<mxfile host="app.diagrams.net" agent="Mozilla/5.0 (Macintosh; Intel Mac OS X 10_15_7) AppleWebKit/537.36 (KHTML, like Gecko) Chrome/131.0.0.0 Safari/537.36" version="26.0.6" pages="5">
  <diagram id="C5RBs43oDa-KdzZeNtuy" name="Supply TON">
    <mxGraphModel grid="1" page="1" gridSize="10" guides="1" tooltips="1" connect="1" arrows="1" fold="1" pageScale="1" pageWidth="827" pageHeight="1169" math="0" shadow="0">
      <root>
        <mxCell id="WIyWlLk6GJQsqaUBKTNV-0" />
        <mxCell id="WIyWlLk6GJQsqaUBKTNV-1" parent="WIyWlLk6GJQsqaUBKTNV-0" />
        <mxCell id="6Pdvxt0OFTVk3Lplfu8R-60" value="" style="rounded=0;whiteSpace=wrap;html=1;" vertex="1" parent="WIyWlLk6GJQsqaUBKTNV-1">
          <mxGeometry x="913" y="110" width="730" height="650" as="geometry" />
        </mxCell>
        <mxCell id="6Pdvxt0OFTVk3Lplfu8R-61" value="" style="rounded=0;whiteSpace=wrap;html=1;" vertex="1" parent="WIyWlLk6GJQsqaUBKTNV-1">
          <mxGeometry x="1.5" y="110" width="858.5" height="650" as="geometry" />
        </mxCell>
        <mxCell id="6Pdvxt0OFTVk3Lplfu8R-62" style="edgeStyle=orthogonalEdgeStyle;rounded=0;orthogonalLoop=1;jettySize=auto;html=1;" edge="1" parent="WIyWlLk6GJQsqaUBKTNV-1" source="6Pdvxt0OFTVk3Lplfu8R-64" target="6Pdvxt0OFTVk3Lplfu8R-66">
          <mxGeometry relative="1" as="geometry" />
        </mxCell>
        <mxCell id="JjPmPuHAdxRFBM17pYAj-82" value="&amp;nbsp;TONs&amp;nbsp;" style="edgeLabel;html=1;align=center;verticalAlign=middle;resizable=0;points=[];" connectable="0" vertex="1" parent="6Pdvxt0OFTVk3Lplfu8R-62">
          <mxGeometry x="-0.5673" y="1" relative="1" as="geometry">
            <mxPoint as="offset" />
          </mxGeometry>
        </mxCell>
        <mxCell id="6Pdvxt0OFTVk3Lplfu8R-64" value="Actor" style="shape=umlActor;verticalLabelPosition=bottom;verticalAlign=top;html=1;outlineConnect=0;" vertex="1" parent="WIyWlLk6GJQsqaUBKTNV-1">
          <mxGeometry x="-100" y="140" width="30" height="60" as="geometry" />
        </mxCell>
        <mxCell id="2thYkjmDLJ1JOjKoCYqP-8" value="" style="edgeStyle=orthogonalEdgeStyle;rounded=0;orthogonalLoop=1;jettySize=auto;html=1;" edge="1" parent="WIyWlLk6GJQsqaUBKTNV-1" source="6Pdvxt0OFTVk3Lplfu8R-66" target="2thYkjmDLJ1JOjKoCYqP-6">
          <mxGeometry relative="1" as="geometry" />
        </mxCell>
        <mxCell id="6Pdvxt0OFTVk3Lplfu8R-66" value="op::supply_master" style="rounded=1;whiteSpace=wrap;html=1;" vertex="1" parent="WIyWlLk6GJQsqaUBKTNV-1">
          <mxGeometry x="35" y="140" width="120" height="60" as="geometry" />
        </mxCell>
        <mxCell id="GkWCejS1UBj2mZo2sevN-20" value="" style="edgeStyle=orthogonalEdgeStyle;rounded=0;orthogonalLoop=1;jettySize=auto;html=1;" edge="1" parent="WIyWlLk6GJQsqaUBKTNV-1" source="6Pdvxt0OFTVk3Lplfu8R-71" target="2thYkjmDLJ1JOjKoCYqP-2">
          <mxGeometry relative="1" as="geometry" />
        </mxCell>
        <mxCell id="6Pdvxt0OFTVk3Lplfu8R-71" value="op::supply_user" style="rounded=1;whiteSpace=wrap;html=1;" vertex="1" parent="WIyWlLk6GJQsqaUBKTNV-1">
          <mxGeometry x="931" y="233" width="120" height="60" as="geometry" />
        </mxCell>
        <mxCell id="JjPmPuHAdxRFBM17pYAj-36" value="" style="edgeStyle=orthogonalEdgeStyle;rounded=0;orthogonalLoop=1;jettySize=auto;html=1;exitX=0.479;exitY=1.006;exitDx=0;exitDy=0;exitPerimeter=0;" edge="1" parent="WIyWlLk6GJQsqaUBKTNV-1" source="2thYkjmDLJ1JOjKoCYqP-1" target="JjPmPuHAdxRFBM17pYAj-52">
          <mxGeometry relative="1" as="geometry">
            <mxPoint x="1093" y="519.5" as="targetPoint" />
            <Array as="points">
              <mxPoint x="1498" y="350" />
              <mxPoint x="1023" y="350" />
            </Array>
            <mxPoint x="1473" y="315.5" as="sourcePoint" />
          </mxGeometry>
        </mxCell>
        <mxCell id="JjPmPuHAdxRFBM17pYAj-45" value="Yes" style="edgeLabel;html=1;align=center;verticalAlign=middle;resizable=0;points=[];" connectable="0" vertex="1" parent="JjPmPuHAdxRFBM17pYAj-36">
          <mxGeometry x="-0.9343" y="2" relative="1" as="geometry">
            <mxPoint as="offset" />
          </mxGeometry>
        </mxCell>
        <mxCell id="GkWCejS1UBj2mZo2sevN-0" value="" style="edgeStyle=orthogonalEdgeStyle;rounded=0;orthogonalLoop=1;jettySize=auto;html=1;" edge="1" parent="WIyWlLk6GJQsqaUBKTNV-1" source="6Pdvxt0OFTVk3Lplfu8R-78" target="2thYkjmDLJ1JOjKoCYqP-7">
          <mxGeometry relative="1" as="geometry" />
        </mxCell>
        <mxCell id="6Pdvxt0OFTVk3Lplfu8R-78" value="op::supply_fail" style="rounded=1;whiteSpace=wrap;html=1;" vertex="1" parent="WIyWlLk6GJQsqaUBKTNV-1">
          <mxGeometry x="719" y="407.5" width="120" height="60" as="geometry" />
        </mxCell>
        <mxCell id="GkWCejS1UBj2mZo2sevN-1" value="" style="edgeStyle=orthogonalEdgeStyle;rounded=0;orthogonalLoop=1;jettySize=auto;html=1;" edge="1" parent="WIyWlLk6GJQsqaUBKTNV-1" source="6Pdvxt0OFTVk3Lplfu8R-81" target="2thYkjmDLJ1JOjKoCYqP-3">
          <mxGeometry relative="1" as="geometry" />
        </mxCell>
        <mxCell id="6Pdvxt0OFTVk3Lplfu8R-81" value="op::supply_success" style="rounded=1;whiteSpace=wrap;html=1;" vertex="1" parent="WIyWlLk6GJQsqaUBKTNV-1">
          <mxGeometry x="719" y="650" width="120" height="60" as="geometry" />
        </mxCell>
        <mxCell id="6Pdvxt0OFTVk3Lplfu8R-82" value="Actor" style="shape=umlActor;verticalLabelPosition=bottom;verticalAlign=top;html=1;outlineConnect=0;" vertex="1" parent="WIyWlLk6GJQsqaUBKTNV-1">
          <mxGeometry x="-100" y="524" width="30" height="60" as="geometry" />
        </mxCell>
        <mxCell id="GkWCejS1UBj2mZo2sevN-16" value="" style="edgeStyle=orthogonalEdgeStyle;rounded=0;orthogonalLoop=1;jettySize=auto;html=1;" edge="1" parent="WIyWlLk6GJQsqaUBKTNV-1" source="6Pdvxt0OFTVk3Lplfu8R-85" target="2thYkjmDLJ1JOjKoCYqP-1">
          <mxGeometry relative="1" as="geometry" />
        </mxCell>
        <mxCell id="6Pdvxt0OFTVk3Lplfu8R-85" value="upgrade userSc" style="rounded=1;whiteSpace=wrap;html=1;" vertex="1" parent="WIyWlLk6GJQsqaUBKTNV-1">
          <mxGeometry x="1282" y="233" width="120" height="60" as="geometry" />
        </mxCell>
        <mxCell id="6Pdvxt0OFTVk3Lplfu8R-88" value="Evaa master smart contract" style="text;html=1;align=center;verticalAlign=middle;resizable=0;points=[];autosize=1;strokeColor=none;fillColor=none;" vertex="1" parent="WIyWlLk6GJQsqaUBKTNV-1">
          <mxGeometry x="1.5" y="110" width="170" height="30" as="geometry" />
        </mxCell>
        <mxCell id="6Pdvxt0OFTVk3Lplfu8R-89" value="Evaa user wallet smart contract" style="text;html=1;align=center;verticalAlign=middle;resizable=0;points=[];autosize=1;strokeColor=none;fillColor=none;" vertex="1" parent="WIyWlLk6GJQsqaUBKTNV-1">
          <mxGeometry x="913" y="110" width="190" height="30" as="geometry" />
        </mxCell>
        <mxCell id="6Pdvxt0OFTVk3Lplfu8R-90" value="Supply TON diagram" style="text;strokeColor=none;fillColor=none;html=1;fontSize=24;fontStyle=1;verticalAlign=middle;align=center;" vertex="1" parent="WIyWlLk6GJQsqaUBKTNV-1">
          <mxGeometry x="-100" y="10" width="250" height="40" as="geometry" />
        </mxCell>
        <mxCell id="JjPmPuHAdxRFBM17pYAj-29" value="update s/b-rates and tracking indexes" style="rounded=1;whiteSpace=wrap;html=1;" vertex="1" parent="WIyWlLk6GJQsqaUBKTNV-1">
          <mxGeometry x="719" y="140" width="120" height="60" as="geometry" />
        </mxCell>
        <mxCell id="JjPmPuHAdxRFBM17pYAj-31" style="edgeStyle=orthogonalEdgeStyle;rounded=0;orthogonalLoop=1;jettySize=auto;html=1;" edge="1" parent="WIyWlLk6GJQsqaUBKTNV-1" source="JjPmPuHAdxRFBM17pYAj-29" target="JjPmPuHAdxRFBM17pYAj-32">
          <mxGeometry relative="1" as="geometry">
            <mxPoint x="740" y="170" as="targetPoint" />
          </mxGeometry>
        </mxCell>
        <mxCell id="JjPmPuHAdxRFBM17pYAj-32" value="update and store awaited supply" style="rounded=1;whiteSpace=wrap;html=1;" vertex="1" parent="WIyWlLk6GJQsqaUBKTNV-1">
          <mxGeometry x="719" y="233" width="120" height="60" as="geometry" />
        </mxCell>
        <mxCell id="JjPmPuHAdxRFBM17pYAj-34" style="edgeStyle=orthogonalEdgeStyle;rounded=0;orthogonalLoop=1;jettySize=auto;html=1;" edge="1" parent="WIyWlLk6GJQsqaUBKTNV-1" source="JjPmPuHAdxRFBM17pYAj-32" target="6Pdvxt0OFTVk3Lplfu8R-71">
          <mxGeometry relative="1" as="geometry" />
        </mxCell>
        <mxCell id="JjPmPuHAdxRFBM17pYAj-48" value="" style="edgeStyle=orthogonalEdgeStyle;rounded=0;orthogonalLoop=1;jettySize=auto;html=1;entryX=1;entryY=0.5;entryDx=0;entryDy=0;exitX=1;exitY=0.506;exitDx=0;exitDy=0;exitPerimeter=0;" edge="1" parent="WIyWlLk6GJQsqaUBKTNV-1" source="2thYkjmDLJ1JOjKoCYqP-1" target="JjPmPuHAdxRFBM17pYAj-47">
          <mxGeometry relative="1" as="geometry">
            <mxPoint x="1580" y="263" as="sourcePoint" />
            <mxPoint x="833" y="600" as="targetPoint" />
          </mxGeometry>
        </mxCell>
        <mxCell id="JjPmPuHAdxRFBM17pYAj-49" value="No" style="edgeLabel;html=1;align=center;verticalAlign=middle;resizable=0;points=[];" connectable="0" vertex="1" parent="JjPmPuHAdxRFBM17pYAj-48">
          <mxGeometry x="-0.8388" y="-2" relative="1" as="geometry">
            <mxPoint x="5" y="-2" as="offset" />
          </mxGeometry>
        </mxCell>
        <mxCell id="GkWCejS1UBj2mZo2sevN-11" value="" style="edgeStyle=orthogonalEdgeStyle;rounded=0;orthogonalLoop=1;jettySize=auto;html=1;" edge="1" parent="WIyWlLk6GJQsqaUBKTNV-1" source="JjPmPuHAdxRFBM17pYAj-47" target="2thYkjmDLJ1JOjKoCYqP-0">
          <mxGeometry relative="1" as="geometry" />
        </mxCell>
        <mxCell id="JjPmPuHAdxRFBM17pYAj-47" value="cut positive dust" style="rounded=1;whiteSpace=wrap;html=1;" vertex="1" parent="WIyWlLk6GJQsqaUBKTNV-1">
          <mxGeometry x="1483" y="407.5" width="120" height="60" as="geometry" />
        </mxCell>
        <mxCell id="JjPmPuHAdxRFBM17pYAj-54" style="edgeStyle=orthogonalEdgeStyle;rounded=0;orthogonalLoop=1;jettySize=auto;html=1;curved=0;entryX=1;entryY=0.5;entryDx=0;entryDy=0;" edge="1" parent="WIyWlLk6GJQsqaUBKTNV-1" source="JjPmPuHAdxRFBM17pYAj-52" target="6Pdvxt0OFTVk3Lplfu8R-78">
          <mxGeometry relative="1" as="geometry" />
        </mxCell>
        <mxCell id="JjPmPuHAdxRFBM17pYAj-52" value="" style="html=1;points=[[0,0,0,0,5],[0,1,0,0,-5],[1,0,0,0,5],[1,1,0,0,-5]];perimeter=orthogonalPerimeter;outlineConnect=0;targetShapes=umlLifeline;portConstraint=eastwest;newEdgeStyle={&quot;curved&quot;:0,&quot;rounded&quot;:0};" vertex="1" parent="WIyWlLk6GJQsqaUBKTNV-1">
          <mxGeometry x="1013" y="397.5" width="20" height="80" as="geometry" />
        </mxCell>
        <mxCell id="JjPmPuHAdxRFBM17pYAj-58" style="edgeStyle=orthogonalEdgeStyle;rounded=0;orthogonalLoop=1;jettySize=auto;html=1;entryX=1;entryY=0.5;entryDx=0;entryDy=0;" edge="1" parent="WIyWlLk6GJQsqaUBKTNV-1" source="JjPmPuHAdxRFBM17pYAj-55" target="6Pdvxt0OFTVk3Lplfu8R-81">
          <mxGeometry relative="1" as="geometry" />
        </mxCell>
        <mxCell id="JjPmPuHAdxRFBM17pYAj-55" value="update user principals&lt;br&gt;update tracking indexes" style="rounded=1;whiteSpace=wrap;html=1;" vertex="1" parent="WIyWlLk6GJQsqaUBKTNV-1">
          <mxGeometry x="1244" y="650" width="120" height="60" as="geometry" />
        </mxCell>
        <mxCell id="JjPmPuHAdxRFBM17pYAj-68" style="edgeStyle=orthogonalEdgeStyle;rounded=0;orthogonalLoop=1;jettySize=auto;html=1;" edge="1" parent="WIyWlLk6GJQsqaUBKTNV-1" source="JjPmPuHAdxRFBM17pYAj-66" target="6Pdvxt0OFTVk3Lplfu8R-82">
          <mxGeometry relative="1" as="geometry" />
        </mxCell>
        <mxCell id="JjPmPuHAdxRFBM17pYAj-85" value="&amp;nbsp;return excesses&amp;nbsp;" style="edgeLabel;html=1;align=center;verticalAlign=middle;resizable=0;points=[];" connectable="0" vertex="1" parent="JjPmPuHAdxRFBM17pYAj-68">
          <mxGeometry x="-0.5187" y="-2" relative="1" as="geometry">
            <mxPoint as="offset" />
          </mxGeometry>
        </mxCell>
        <mxCell id="JjPmPuHAdxRFBM17pYAj-66" value="approve new supply" style="rounded=1;whiteSpace=wrap;html=1;" vertex="1" parent="WIyWlLk6GJQsqaUBKTNV-1">
          <mxGeometry x="375" y="650" width="120" height="60" as="geometry" />
        </mxCell>
        <mxCell id="JjPmPuHAdxRFBM17pYAj-75" value="restore awaited supply" style="rounded=1;whiteSpace=wrap;html=1;" vertex="1" parent="WIyWlLk6GJQsqaUBKTNV-1">
          <mxGeometry x="375" y="407" width="120" height="60" as="geometry" />
        </mxCell>
        <mxCell id="JjPmPuHAdxRFBM17pYAj-77" style="edgeStyle=orthogonalEdgeStyle;rounded=0;orthogonalLoop=1;jettySize=auto;html=1;entryX=0.5;entryY=0;entryDx=0;entryDy=0;entryPerimeter=0;" edge="1" parent="WIyWlLk6GJQsqaUBKTNV-1" source="JjPmPuHAdxRFBM17pYAj-75" target="6Pdvxt0OFTVk3Lplfu8R-82">
          <mxGeometry relative="1" as="geometry" />
        </mxCell>
        <mxCell id="JjPmPuHAdxRFBM17pYAj-84" value="&amp;nbsp;return TONs w/o fees&amp;nbsp;" style="edgeLabel;html=1;align=center;verticalAlign=middle;resizable=0;points=[];" connectable="0" vertex="1" parent="JjPmPuHAdxRFBM17pYAj-77">
          <mxGeometry x="-0.613" y="-1" relative="1" as="geometry">
            <mxPoint x="-31" as="offset" />
          </mxGeometry>
        </mxCell>
        <mxCell id="rgKJpMSwUtB_QR_t_cDE-0" style="vsdxID=11;fillColor=#f8cecc;gradientColor=none;shape=stencil(vVLBDoMgDP0ajiwIM9nduf8gE5WMials6t8PU+JE3Q477Nb2vb6+UojIulq2inDWObA31evC1UScCee6qRVo5yMiciKy0oKqwD6aAvNWTswputvnpDBgH5s6OBsxSzG9IFPC1UMQmDxFKoxxHuCE7UqxgcpBdxSsk07bJppqJFSK+jG0NLIKOgh1vVLtovy7sf/Z8sH7mUttDF5pxj/dIDke0sjkXAiNRjcL+ild0efCZU99Q/+uvjGzVo+2XG3og/XH8yX8tCJ/AQ==);strokeColor=#b85450;spacingTop=-3;spacingBottom=-3;spacingLeft=-3;spacingRight=-3;points=[];labelBackgroundColor=none;rounded=0;html=1;whiteSpace=wrap;" vertex="1" parent="WIyWlLk6GJQsqaUBKTNV-1">
          <mxGeometry x="247" y="253" width="20" height="20" as="geometry" />
        </mxCell>
        <mxCell id="rgKJpMSwUtB_QR_t_cDE-1" style="vsdxID=11;fillColor=#f8cecc;gradientColor=none;shape=stencil(vVLBDoMgDP0ajiwIM9nduf8gE5WMials6t8PU+JE3Q477Nb2vb6+UojIulq2inDWObA31evC1UScCee6qRVo5yMiciKy0oKqwD6aAvNWTswputvnpDBgH5s6OBsxSzG9IFPC1UMQmDxFKoxxHuCE7UqxgcpBdxSsk07bJppqJFSK+jG0NLIKOgh1vVLtovy7sf/Z8sH7mUttDF5pxj/dIDke0sjkXAiNRjcL+ild0efCZU99Q/+uvjGzVo+2XG3og/XH8yX8tCJ/AQ==);strokeColor=#b85450;spacingTop=-3;spacingBottom=-3;spacingLeft=-3;spacingRight=-3;points=[];labelBackgroundColor=none;rounded=0;html=1;whiteSpace=wrap;" vertex="1" parent="WIyWlLk6GJQsqaUBKTNV-1">
          <mxGeometry x="425" y="253" width="20" height="20" as="geometry" />
        </mxCell>
        <mxCell id="rgKJpMSwUtB_QR_t_cDE-2" style="vsdxID=11;fillColor=#f8cecc;gradientColor=none;shape=stencil(vVLBDoMgDP0ajiwIM9nduf8gE5WMials6t8PU+JE3Q477Nb2vb6+UojIulq2inDWObA31evC1UScCee6qRVo5yMiciKy0oKqwD6aAvNWTswputvnpDBgH5s6OBsxSzG9IFPC1UMQmDxFKoxxHuCE7UqxgcpBdxSsk07bJppqJFSK+jG0NLIKOgh1vVLtovy7sf/Z8sH7mUttDF5pxj/dIDke0sjkXAiNRjcL+ild0efCZU99Q/+uvjGzVo+2XG3og/XH8yX8tCJ/AQ==);strokeColor=#b85450;spacingTop=-3;spacingBottom=-3;spacingLeft=-3;spacingRight=-3;points=[];labelBackgroundColor=none;rounded=0;html=1;whiteSpace=wrap;" vertex="1" parent="WIyWlLk6GJQsqaUBKTNV-1">
          <mxGeometry x="599" y="529" width="20" height="20" as="geometry" />
        </mxCell>
        <mxCell id="rgKJpMSwUtB_QR_t_cDE-3" style="vsdxID=11;fillColor=#f8cecc;gradientColor=none;shape=stencil(vVLBDoMgDP0ajiwIM9nduf8gE5WMials6t8PU+JE3Q477Nb2vb6+UojIulq2inDWObA31evC1UScCee6qRVo5yMiciKy0oKqwD6aAvNWTswputvnpDBgH5s6OBsxSzG9IFPC1UMQmDxFKoxxHuCE7UqxgcpBdxSsk07bJppqJFSK+jG0NLIKOgh1vVLtovy7sf/Z8sH7mUttDF5pxj/dIDke0sjkXAiNRjcL+ild0efCZU99Q/+uvjGzVo+2XG3og/XH8yX8tCJ/AQ==);strokeColor=#b85450;spacingTop=-3;spacingBottom=-3;spacingLeft=-3;spacingRight=-3;points=[];labelBackgroundColor=none;rounded=0;html=1;whiteSpace=wrap;" vertex="1" parent="WIyWlLk6GJQsqaUBKTNV-1">
          <mxGeometry x="599" y="253" width="20" height="20" as="geometry" />
        </mxCell>
        <mxCell id="rgKJpMSwUtB_QR_t_cDE-4" style="vsdxID=11;fillColor=#f8cecc;gradientColor=none;shape=stencil(vVLBDoMgDP0ajiwIM9nduf8gE5WMials6t8PU+JE3Q477Nb2vb6+UojIulq2inDWObA31evC1UScCee6qRVo5yMiciKy0oKqwD6aAvNWTswputvnpDBgH5s6OBsxSzG9IFPC1UMQmDxFKoxxHuCE7UqxgcpBdxSsk07bJppqJFSK+jG0NLIKOgh1vVLtovy7sf/Z8sH7mUttDF5pxj/dIDke0sjkXAiNRjcL+ild0efCZU99Q/+uvjGzVo+2XG3og/XH8yX8tCJ/AQ==);strokeColor=#b85450;spacingTop=-3;spacingBottom=-3;spacingLeft=-3;spacingRight=-3;points=[];labelBackgroundColor=none;rounded=0;html=1;whiteSpace=wrap;" vertex="1" parent="WIyWlLk6GJQsqaUBKTNV-1">
          <mxGeometry x="599" y="569" width="20" height="20" as="geometry" />
        </mxCell>
        <mxCell id="GkWCejS1UBj2mZo2sevN-12" value="" style="edgeStyle=orthogonalEdgeStyle;rounded=0;orthogonalLoop=1;jettySize=auto;html=1;entryX=0.85;entryY=0.406;entryDx=0;entryDy=0;entryPerimeter=0;exitX=0.008;exitY=0.488;exitDx=0;exitDy=0;exitPerimeter=0;" edge="1" parent="WIyWlLk6GJQsqaUBKTNV-1" source="2thYkjmDLJ1JOjKoCYqP-0">
          <mxGeometry relative="1" as="geometry">
            <mxPoint x="1030" y="436.98" as="targetPoint" />
            <mxPoint x="1244" y="437" as="sourcePoint" />
            <Array as="points">
              <mxPoint x="1190" y="437" />
            </Array>
          </mxGeometry>
        </mxCell>
        <mxCell id="GkWCejS1UBj2mZo2sevN-14" value="Yes" style="edgeLabel;html=1;align=center;verticalAlign=middle;resizable=0;points=[];" connectable="0" vertex="1" parent="GkWCejS1UBj2mZo2sevN-12">
          <mxGeometry x="0.0045" y="-3" relative="1" as="geometry">
            <mxPoint y="2" as="offset" />
          </mxGeometry>
        </mxCell>
        <mxCell id="GkWCejS1UBj2mZo2sevN-13" value="" style="edgeStyle=orthogonalEdgeStyle;rounded=0;orthogonalLoop=1;jettySize=auto;html=1;entryX=0.5;entryY=0;entryDx=0;entryDy=0;" edge="1" parent="WIyWlLk6GJQsqaUBKTNV-1" source="2thYkjmDLJ1JOjKoCYqP-0" target="JjPmPuHAdxRFBM17pYAj-55">
          <mxGeometry relative="1" as="geometry">
            <mxPoint x="1304" y="558" as="targetPoint" />
          </mxGeometry>
        </mxCell>
        <mxCell id="GkWCejS1UBj2mZo2sevN-15" value="No" style="edgeLabel;html=1;align=center;verticalAlign=middle;resizable=0;points=[];" connectable="0" vertex="1" parent="GkWCejS1UBj2mZo2sevN-13">
          <mxGeometry x="-0.1279" y="1" relative="1" as="geometry">
            <mxPoint as="offset" />
          </mxGeometry>
        </mxCell>
        <mxCell id="2thYkjmDLJ1JOjKoCYqP-0" value="Max cap exceeds?" style="verticalAlign=middle;align=center;overflow=width;vsdxID=9;fillColor=#ffffff;gradientColor=none;shape=stencil(lZHdCsIwDIWfJvcxYfgAc77HYJ0N1nZ09Wdvb2sQp4jUu3PS74RyAtzOtp8MEM4phqO5ypAs8A6IxFsTJWUF3AG3Y4jmEMPZD+qnvpBFncKlbLhpjpoSIVzU4sPtlXTiV+S2mtwgvqFN/dZn9CtLf7D1P/jVQBav4kZxTntfv38WnUd6JO7u);strokeColor=#000000;spacingTop=-3;spacingBottom=-3;spacingLeft=-3;spacingRight=-3;points=[];labelBackgroundColor=none;rounded=0;html=1;whiteSpace=wrap;" vertex="1" parent="WIyWlLk6GJQsqaUBKTNV-1">
          <mxGeometry x="1244" y="398" width="120" height="80" as="geometry" />
        </mxCell>
        <mxCell id="2thYkjmDLJ1JOjKoCYqP-1" value="Is user locked?" style="verticalAlign=middle;align=center;overflow=width;vsdxID=9;fillColor=#ffffff;gradientColor=none;shape=stencil(lZHdCsIwDIWfJvcxYfgAc77HYJ0N1nZ09Wdvb2sQp4jUu3PS74RyAtzOtp8MEM4phqO5ypAs8A6IxFsTJWUF3AG3Y4jmEMPZD+qnvpBFncKlbLhpjpoSIVzU4sPtlXTiV+S2mtwgvqFN/dZn9CtLf7D1P/jVQBav4kZxTntfv38WnUd6JO7u);strokeColor=#000000;spacingTop=-3;spacingBottom=-3;spacingLeft=-3;spacingRight=-3;points=[];labelBackgroundColor=none;rounded=0;html=1;whiteSpace=wrap;" vertex="1" parent="WIyWlLk6GJQsqaUBKTNV-1">
          <mxGeometry x="1440" y="223" width="120" height="80" as="geometry" />
        </mxCell>
        <mxCell id="GkWCejS1UBj2mZo2sevN-21" value="" style="edgeStyle=orthogonalEdgeStyle;rounded=0;orthogonalLoop=1;jettySize=auto;html=1;" edge="1" parent="WIyWlLk6GJQsqaUBKTNV-1" source="2thYkjmDLJ1JOjKoCYqP-2" target="6Pdvxt0OFTVk3Lplfu8R-85">
          <mxGeometry relative="1" as="geometry" />
        </mxCell>
        <mxCell id="2thYkjmDLJ1JOjKoCYqP-2" value="Is code of user sc&lt;div&gt;of the last version?&lt;/div&gt;" style="verticalAlign=middle;align=center;overflow=width;vsdxID=9;fillColor=#ffffff;gradientColor=none;shape=stencil(lZHdCsIwDIWfJvcxYfgAc77HYJ0N1nZ09Wdvb2sQp4jUu3PS74RyAtzOtp8MEM4phqO5ypAs8A6IxFsTJWUF3AG3Y4jmEMPZD+qnvpBFncKlbLhpjpoSIVzU4sPtlXTiV+S2mtwgvqFN/dZn9CtLf7D1P/jVQBav4kZxTntfv38WnUd6JO7u);strokeColor=#000000;spacingTop=-3;spacingBottom=-3;spacingLeft=-3;spacingRight=-3;points=[];labelBackgroundColor=none;rounded=0;html=1;whiteSpace=wrap;" vertex="1" parent="WIyWlLk6GJQsqaUBKTNV-1">
          <mxGeometry x="1110" y="223" width="120" height="80" as="geometry" />
        </mxCell>
        <mxCell id="GkWCejS1UBj2mZo2sevN-4" value="" style="edgeStyle=orthogonalEdgeStyle;rounded=0;orthogonalLoop=1;jettySize=auto;html=1;" edge="1" parent="WIyWlLk6GJQsqaUBKTNV-1" source="2thYkjmDLJ1JOjKoCYqP-3" target="rgKJpMSwUtB_QR_t_cDE-4">
          <mxGeometry relative="1" as="geometry" />
        </mxCell>
        <mxCell id="GkWCejS1UBj2mZo2sevN-6" value="No" style="edgeLabel;html=1;align=center;verticalAlign=middle;resizable=0;points=[];" connectable="0" vertex="1" parent="GkWCejS1UBj2mZo2sevN-4">
          <mxGeometry x="0.0588" relative="1" as="geometry">
            <mxPoint x="1" as="offset" />
          </mxGeometry>
        </mxCell>
        <mxCell id="GkWCejS1UBj2mZo2sevN-8" value="" style="edgeStyle=orthogonalEdgeStyle;rounded=0;orthogonalLoop=1;jettySize=auto;html=1;" edge="1" parent="WIyWlLk6GJQsqaUBKTNV-1" source="2thYkjmDLJ1JOjKoCYqP-3" target="JjPmPuHAdxRFBM17pYAj-66">
          <mxGeometry relative="1" as="geometry" />
        </mxCell>
        <mxCell id="GkWCejS1UBj2mZo2sevN-10" value="Yes" style="edgeLabel;html=1;align=center;verticalAlign=middle;resizable=0;points=[];" connectable="0" vertex="1" parent="GkWCejS1UBj2mZo2sevN-8">
          <mxGeometry x="-0.0556" y="-1" relative="1" as="geometry">
            <mxPoint as="offset" />
          </mxGeometry>
        </mxCell>
        <mxCell id="2thYkjmDLJ1JOjKoCYqP-3" value="Is valid sender?" style="verticalAlign=middle;align=center;overflow=width;vsdxID=9;fillColor=#ffffff;gradientColor=none;shape=stencil(lZHdCsIwDIWfJvcxYfgAc77HYJ0N1nZ09Wdvb2sQp4jUu3PS74RyAtzOtp8MEM4phqO5ypAs8A6IxFsTJWUF3AG3Y4jmEMPZD+qnvpBFncKlbLhpjpoSIVzU4sPtlXTiV+S2mtwgvqFN/dZn9CtLf7D1P/jVQBav4kZxTntfv38WnUd6JO7u);strokeColor=#000000;spacingTop=-3;spacingBottom=-3;spacingLeft=-3;spacingRight=-3;points=[];labelBackgroundColor=none;rounded=0;html=1;whiteSpace=wrap;" vertex="1" parent="WIyWlLk6GJQsqaUBKTNV-1">
          <mxGeometry x="549" y="640" width="120" height="80" as="geometry" />
        </mxCell>
        <mxCell id="2thYkjmDLJ1JOjKoCYqP-11" value="" style="edgeStyle=orthogonalEdgeStyle;rounded=0;orthogonalLoop=1;jettySize=auto;html=1;" edge="1" parent="WIyWlLk6GJQsqaUBKTNV-1" source="2thYkjmDLJ1JOjKoCYqP-4" target="JjPmPuHAdxRFBM17pYAj-29">
          <mxGeometry relative="1" as="geometry" />
        </mxCell>
        <mxCell id="2thYkjmDLJ1JOjKoCYqP-20" value="Yes" style="edgeLabel;html=1;align=center;verticalAlign=middle;resizable=0;points=[];" connectable="0" vertex="1" parent="2thYkjmDLJ1JOjKoCYqP-11">
          <mxGeometry x="-0.18" y="1" relative="1" as="geometry">
            <mxPoint as="offset" />
          </mxGeometry>
        </mxCell>
        <mxCell id="2thYkjmDLJ1JOjKoCYqP-14" value="" style="edgeStyle=orthogonalEdgeStyle;rounded=0;orthogonalLoop=1;jettySize=auto;html=1;" edge="1" parent="WIyWlLk6GJQsqaUBKTNV-1" source="2thYkjmDLJ1JOjKoCYqP-4" target="rgKJpMSwUtB_QR_t_cDE-3">
          <mxGeometry relative="1" as="geometry" />
        </mxCell>
        <mxCell id="2thYkjmDLJ1JOjKoCYqP-17" value="No" style="edgeLabel;html=1;align=center;verticalAlign=middle;resizable=0;points=[];" connectable="0" vertex="1" parent="2thYkjmDLJ1JOjKoCYqP-14">
          <mxGeometry x="-0.1628" y="-1" relative="1" as="geometry">
            <mxPoint as="offset" />
          </mxGeometry>
        </mxCell>
        <mxCell id="2thYkjmDLJ1JOjKoCYqP-4" value="Is enough to&amp;nbsp;&lt;span style=&quot;background-color: initial;&quot;&gt;cover gas fees?&lt;/span&gt;" style="verticalAlign=middle;align=center;overflow=width;vsdxID=9;fillColor=#ffffff;gradientColor=none;shape=stencil(lZHdCsIwDIWfJvcxYfgAc77HYJ0N1nZ09Wdvb2sQp4jUu3PS74RyAtzOtp8MEM4phqO5ypAs8A6IxFsTJWUF3AG3Y4jmEMPZD+qnvpBFncKlbLhpjpoSIVzU4sPtlXTiV+S2mtwgvqFN/dZn9CtLf7D1P/jVQBav4kZxTntfv38WnUd6JO7u);strokeColor=#000000;spacingTop=-3;spacingBottom=-3;spacingLeft=-3;spacingRight=-3;points=[];labelBackgroundColor=none;rounded=0;html=1;whiteSpace=wrap;" vertex="1" parent="WIyWlLk6GJQsqaUBKTNV-1">
          <mxGeometry x="549" y="130" width="120" height="80" as="geometry" />
        </mxCell>
        <mxCell id="2thYkjmDLJ1JOjKoCYqP-10" value="" style="edgeStyle=orthogonalEdgeStyle;rounded=0;orthogonalLoop=1;jettySize=auto;html=1;" edge="1" parent="WIyWlLk6GJQsqaUBKTNV-1" source="2thYkjmDLJ1JOjKoCYqP-5" target="2thYkjmDLJ1JOjKoCYqP-4">
          <mxGeometry relative="1" as="geometry" />
        </mxCell>
        <mxCell id="2thYkjmDLJ1JOjKoCYqP-19" value="Yes" style="edgeLabel;html=1;align=center;verticalAlign=middle;resizable=0;points=[];" connectable="0" vertex="1" parent="2thYkjmDLJ1JOjKoCYqP-10">
          <mxGeometry x="-0.0926" relative="1" as="geometry">
            <mxPoint x="1" as="offset" />
          </mxGeometry>
        </mxCell>
        <mxCell id="2thYkjmDLJ1JOjKoCYqP-13" value="" style="edgeStyle=orthogonalEdgeStyle;rounded=0;orthogonalLoop=1;jettySize=auto;html=1;" edge="1" parent="WIyWlLk6GJQsqaUBKTNV-1" source="2thYkjmDLJ1JOjKoCYqP-5" target="rgKJpMSwUtB_QR_t_cDE-1">
          <mxGeometry relative="1" as="geometry" />
        </mxCell>
        <mxCell id="2thYkjmDLJ1JOjKoCYqP-16" value="No" style="edgeLabel;html=1;align=center;verticalAlign=middle;resizable=0;points=[];" connectable="0" vertex="1" parent="2thYkjmDLJ1JOjKoCYqP-13">
          <mxGeometry x="-0.1163" y="2" relative="1" as="geometry">
            <mxPoint as="offset" />
          </mxGeometry>
        </mxCell>
        <mxCell id="2thYkjmDLJ1JOjKoCYqP-5" value="Is valid response payload?" style="verticalAlign=middle;align=center;overflow=width;vsdxID=9;fillColor=#ffffff;gradientColor=none;shape=stencil(lZHdCsIwDIWfJvcxYfgAc77HYJ0N1nZ09Wdvb2sQp4jUu3PS74RyAtzOtp8MEM4phqO5ypAs8A6IxFsTJWUF3AG3Y4jmEMPZD+qnvpBFncKlbLhpjpoSIVzU4sPtlXTiV+S2mtwgvqFN/dZn9CtLf7D1P/jVQBav4kZxTntfv38WnUd6JO7u);strokeColor=#000000;spacingTop=-3;spacingBottom=-3;spacingLeft=-3;spacingRight=-3;points=[];labelBackgroundColor=none;rounded=0;html=1;whiteSpace=wrap;" vertex="1" parent="WIyWlLk6GJQsqaUBKTNV-1">
          <mxGeometry x="375" y="130" width="120" height="80" as="geometry" />
        </mxCell>
        <mxCell id="2thYkjmDLJ1JOjKoCYqP-9" value="" style="edgeStyle=orthogonalEdgeStyle;rounded=0;orthogonalLoop=1;jettySize=auto;html=1;" edge="1" parent="WIyWlLk6GJQsqaUBKTNV-1" source="2thYkjmDLJ1JOjKoCYqP-6" target="2thYkjmDLJ1JOjKoCYqP-5">
          <mxGeometry relative="1" as="geometry" />
        </mxCell>
        <mxCell id="2thYkjmDLJ1JOjKoCYqP-18" value="Yes" style="edgeLabel;html=1;align=center;verticalAlign=middle;resizable=0;points=[];" connectable="0" vertex="1" parent="2thYkjmDLJ1JOjKoCYqP-9">
          <mxGeometry x="-0.1207" y="1" relative="1" as="geometry">
            <mxPoint x="1" as="offset" />
          </mxGeometry>
        </mxCell>
        <mxCell id="2thYkjmDLJ1JOjKoCYqP-12" value="" style="edgeStyle=orthogonalEdgeStyle;rounded=0;orthogonalLoop=1;jettySize=auto;html=1;" edge="1" parent="WIyWlLk6GJQsqaUBKTNV-1" source="2thYkjmDLJ1JOjKoCYqP-6" target="rgKJpMSwUtB_QR_t_cDE-0">
          <mxGeometry relative="1" as="geometry" />
        </mxCell>
        <mxCell id="2thYkjmDLJ1JOjKoCYqP-15" value="No" style="edgeLabel;html=1;align=center;verticalAlign=middle;resizable=0;points=[];" connectable="0" vertex="1" parent="2thYkjmDLJ1JOjKoCYqP-12">
          <mxGeometry x="-0.1628" y="1" relative="1" as="geometry">
            <mxPoint as="offset" />
          </mxGeometry>
        </mxCell>
        <mxCell id="2thYkjmDLJ1JOjKoCYqP-6" value="Is valid recepient?" style="verticalAlign=middle;align=center;overflow=width;vsdxID=9;fillColor=#ffffff;gradientColor=none;shape=stencil(lZHdCsIwDIWfJvcxYfgAc77HYJ0N1nZ09Wdvb2sQp4jUu3PS74RyAtzOtp8MEM4phqO5ypAs8A6IxFsTJWUF3AG3Y4jmEMPZD+qnvpBFncKlbLhpjpoSIVzU4sPtlXTiV+S2mtwgvqFN/dZn9CtLf7D1P/jVQBav4kZxTntfv38WnUd6JO7u);strokeColor=#000000;spacingTop=-3;spacingBottom=-3;spacingLeft=-3;spacingRight=-3;points=[];labelBackgroundColor=none;rounded=0;html=1;whiteSpace=wrap;" vertex="1" parent="WIyWlLk6GJQsqaUBKTNV-1">
          <mxGeometry x="197" y="130" width="120" height="80" as="geometry" />
        </mxCell>
        <mxCell id="GkWCejS1UBj2mZo2sevN-3" value="" style="edgeStyle=orthogonalEdgeStyle;rounded=0;orthogonalLoop=1;jettySize=auto;html=1;" edge="1" parent="WIyWlLk6GJQsqaUBKTNV-1" source="2thYkjmDLJ1JOjKoCYqP-7" target="rgKJpMSwUtB_QR_t_cDE-2">
          <mxGeometry relative="1" as="geometry" />
        </mxCell>
        <mxCell id="GkWCejS1UBj2mZo2sevN-5" value="No" style="edgeLabel;html=1;align=center;verticalAlign=middle;resizable=0;points=[];" connectable="0" vertex="1" parent="GkWCejS1UBj2mZo2sevN-3">
          <mxGeometry x="-0.1262" y="1" relative="1" as="geometry">
            <mxPoint as="offset" />
          </mxGeometry>
        </mxCell>
        <mxCell id="GkWCejS1UBj2mZo2sevN-7" value="" style="edgeStyle=orthogonalEdgeStyle;rounded=0;orthogonalLoop=1;jettySize=auto;html=1;" edge="1" parent="WIyWlLk6GJQsqaUBKTNV-1" source="2thYkjmDLJ1JOjKoCYqP-7" target="JjPmPuHAdxRFBM17pYAj-75">
          <mxGeometry relative="1" as="geometry" />
        </mxCell>
        <mxCell id="GkWCejS1UBj2mZo2sevN-9" value="Yes" style="edgeLabel;html=1;align=center;verticalAlign=middle;resizable=0;points=[];" connectable="0" vertex="1" parent="GkWCejS1UBj2mZo2sevN-7">
          <mxGeometry x="-0.0642" relative="1" as="geometry">
            <mxPoint x="1" as="offset" />
          </mxGeometry>
        </mxCell>
        <mxCell id="2thYkjmDLJ1JOjKoCYqP-7" value="Is valid sender?" style="verticalAlign=middle;align=center;overflow=width;vsdxID=9;fillColor=#ffffff;gradientColor=none;shape=stencil(lZHdCsIwDIWfJvcxYfgAc77HYJ0N1nZ09Wdvb2sQp4jUu3PS74RyAtzOtp8MEM4phqO5ypAs8A6IxFsTJWUF3AG3Y4jmEMPZD+qnvpBFncKlbLhpjpoSIVzU4sPtlXTiV+S2mtwgvqFN/dZn9CtLf7D1P/jVQBav4kZxTntfv38WnUd6JO7u);strokeColor=#000000;spacingTop=-3;spacingBottom=-3;spacingLeft=-3;spacingRight=-3;points=[];labelBackgroundColor=none;rounded=0;html=1;whiteSpace=wrap;" vertex="1" parent="WIyWlLk6GJQsqaUBKTNV-1">
          <mxGeometry x="549" y="397.5" width="120" height="80" as="geometry" />
        </mxCell>
        <mxCell id="GkWCejS1UBj2mZo2sevN-18" style="edgeStyle=orthogonalEdgeStyle;rounded=0;orthogonalLoop=1;jettySize=auto;html=1;entryX=0.467;entryY=-0.037;entryDx=0;entryDy=0;entryPerimeter=0;exitX=0.496;exitY=0.006;exitDx=0;exitDy=0;exitPerimeter=0;" edge="1" parent="WIyWlLk6GJQsqaUBKTNV-1" source="2thYkjmDLJ1JOjKoCYqP-2" target="2thYkjmDLJ1JOjKoCYqP-1">
          <mxGeometry relative="1" as="geometry">
            <mxPoint x="1140" y="210.5" as="sourcePoint" />
            <Array as="points">
              <mxPoint x="1170" y="160" />
              <mxPoint x="1496" y="160" />
            </Array>
          </mxGeometry>
        </mxCell>
        <mxCell id="GkWCejS1UBj2mZo2sevN-19" value="Yes" style="edgeLabel;html=1;align=center;verticalAlign=middle;resizable=0;points=[];" connectable="0" vertex="1" parent="GkWCejS1UBj2mZo2sevN-18">
          <mxGeometry x="-0.0676" y="1" relative="1" as="geometry">
            <mxPoint as="offset" />
          </mxGeometry>
        </mxCell>
        <mxCell id="Wf2yhwKRq2zgeNsJYpSN-1" value="" style="edgeStyle=orthogonalEdgeStyle;rounded=0;orthogonalLoop=1;jettySize=auto;html=1;" edge="1" parent="WIyWlLk6GJQsqaUBKTNV-1" source="Wf2yhwKRq2zgeNsJYpSN-0" target="JjPmPuHAdxRFBM17pYAj-52">
          <mxGeometry relative="1" as="geometry">
            <Array as="points">
              <mxPoint x="1023" y="510" />
              <mxPoint x="1023" y="510" />
            </Array>
          </mxGeometry>
        </mxCell>
        <mxCell id="Wf2yhwKRq2zgeNsJYpSN-2" value="Error caught" style="edgeLabel;html=1;align=center;verticalAlign=middle;resizable=0;points=[];" connectable="0" vertex="1" parent="Wf2yhwKRq2zgeNsJYpSN-1">
          <mxGeometry x="-0.1278" y="1" relative="1" as="geometry">
            <mxPoint as="offset" />
          </mxGeometry>
        </mxCell>
        <mxCell id="Wf2yhwKRq2zgeNsJYpSN-0" style="vsdxID=11;fillColor=#f8cecc;gradientColor=none;shape=stencil(vVLBDoMgDP0ajiwIM9nduf8gE5WMials6t8PU+JE3Q477Nb2vb6+UojIulq2inDWObA31evC1UScCee6qRVo5yMiciKy0oKqwD6aAvNWTswputvnpDBgH5s6OBsxSzG9IFPC1UMQmDxFKoxxHuCE7UqxgcpBdxSsk07bJppqJFSK+jG0NLIKOgh1vVLtovy7sf/Z8sH7mUttDF5pxj/dIDke0sjkXAiNRjcL+ild0efCZU99Q/+uvjGzVo+2XG3og/XH8yX8tCJ/AQ==);strokeColor=#b85450;spacingTop=-3;spacingBottom=-3;spacingLeft=-3;spacingRight=-3;points=[];labelBackgroundColor=none;rounded=0;html=1;whiteSpace=wrap;" vertex="1" parent="WIyWlLk6GJQsqaUBKTNV-1">
          <mxGeometry x="1013" y="544" width="20" height="20" as="geometry" />
        </mxCell>
      </root>
    </mxGraphModel>
  </diagram>
  <diagram id="tNcJRq2WFbo99xUW2Ukf" name="Supply Jetton">
    <mxGraphModel grid="1" page="1" gridSize="10" guides="1" tooltips="1" connect="1" arrows="1" fold="1" pageScale="1" pageWidth="827" pageHeight="1169" math="0" shadow="0">
      <root>
        <mxCell id="0" />
        <mxCell id="1" parent="0" />
        <mxCell id="JNoaphrmC2Zt9XJzK8fs-1" value="" style="rounded=0;whiteSpace=wrap;html=1;" vertex="1" parent="1">
          <mxGeometry x="1188" y="169" width="732" height="631" as="geometry" />
        </mxCell>
        <mxCell id="roI6ckMuhLVN8BSUlhjc-6" value="" style="rounded=0;whiteSpace=wrap;html=1;" vertex="1" parent="1">
          <mxGeometry x="-273" y="170" width="320" height="380" as="geometry" />
        </mxCell>
        <mxCell id="_KIBPg8wTczJtJQhwyhV-3" value="" style="rounded=0;whiteSpace=wrap;html=1;" vertex="1" parent="1">
          <mxGeometry x="144" y="169" width="1016" height="631" as="geometry" />
        </mxCell>
        <mxCell id="_KIBPg8wTczJtJQhwyhV-4" style="edgeStyle=orthogonalEdgeStyle;rounded=0;orthogonalLoop=1;jettySize=auto;html=1;exitX=1;exitY=0.5;exitDx=0;exitDy=0;entryX=0;entryY=0.5;entryDx=0;entryDy=0;" edge="1" parent="1" source="roI6ckMuhLVN8BSUlhjc-5" target="_KIBPg8wTczJtJQhwyhV-8">
          <mxGeometry relative="1" as="geometry">
            <Array as="points" />
            <mxPoint x="117" y="235.5" as="sourcePoint" />
            <mxPoint x="207" y="235.5" as="targetPoint" />
          </mxGeometry>
        </mxCell>
        <mxCell id="qAHGbjs3AVat579Nnkeo-11" value="send payload" style="edgeLabel;html=1;align=center;verticalAlign=middle;resizable=0;points=[];" connectable="0" vertex="1" parent="_KIBPg8wTczJtJQhwyhV-4">
          <mxGeometry x="-0.0624" relative="1" as="geometry">
            <mxPoint as="offset" />
          </mxGeometry>
        </mxCell>
        <mxCell id="_KIBPg8wTczJtJQhwyhV-5" style="edgeStyle=orthogonalEdgeStyle;rounded=0;orthogonalLoop=1;jettySize=auto;html=1;entryX=0;entryY=0.5;entryDx=0;entryDy=0;exitX=0.5;exitY=0.5;exitDx=0;exitDy=0;exitPerimeter=0;" edge="1" parent="1" source="_KIBPg8wTczJtJQhwyhV-6" target="roI6ckMuhLVN8BSUlhjc-5">
          <mxGeometry relative="1" as="geometry">
            <mxPoint x="-353" y="496" as="sourcePoint" />
          </mxGeometry>
        </mxCell>
        <mxCell id="kwysDcoMwppNxx7waEjH-16" value="&amp;nbsp;send jettons w/ payload&amp;nbsp;" style="edgeLabel;html=1;align=center;verticalAlign=middle;resizable=0;points=[];" connectable="0" vertex="1" parent="_KIBPg8wTczJtJQhwyhV-5">
          <mxGeometry x="0.3357" relative="1" as="geometry">
            <mxPoint as="offset" />
          </mxGeometry>
        </mxCell>
        <mxCell id="_KIBPg8wTczJtJQhwyhV-6" value="Actor" style="shape=umlActor;verticalLabelPosition=bottom;verticalAlign=top;html=1;outlineConnect=0;" vertex="1" parent="1">
          <mxGeometry x="-393" y="206" width="30" height="60" as="geometry" />
        </mxCell>
        <mxCell id="8MBbLaUlNAx4oX11uAM1-32" value="" style="edgeStyle=orthogonalEdgeStyle;rounded=0;orthogonalLoop=1;jettySize=auto;html=1;" edge="1" parent="1" source="_KIBPg8wTczJtJQhwyhV-8" target="8MBbLaUlNAx4oX11uAM1-5">
          <mxGeometry relative="1" as="geometry" />
        </mxCell>
        <mxCell id="_KIBPg8wTczJtJQhwyhV-8" value="jetton_op::transfer_notification" style="rounded=1;whiteSpace=wrap;html=1;" vertex="1" parent="1">
          <mxGeometry x="169" y="206" width="179" height="60" as="geometry" />
        </mxCell>
        <mxCell id="8MBbLaUlNAx4oX11uAM1-45" value="" style="edgeStyle=orthogonalEdgeStyle;rounded=0;orthogonalLoop=1;jettySize=auto;html=1;" edge="1" parent="1" source="_KIBPg8wTczJtJQhwyhV-20" target="8MBbLaUlNAx4oX11uAM1-9">
          <mxGeometry relative="1" as="geometry" />
        </mxCell>
        <mxCell id="_KIBPg8wTczJtJQhwyhV-20" value="op::supply_fail" style="rounded=1;whiteSpace=wrap;html=1;" vertex="1" parent="1">
          <mxGeometry x="1018" y="449" width="120" height="60" as="geometry" />
        </mxCell>
        <mxCell id="8MBbLaUlNAx4oX11uAM1-47" value="" style="edgeStyle=orthogonalEdgeStyle;rounded=0;orthogonalLoop=1;jettySize=auto;html=1;" edge="1" parent="1" source="_KIBPg8wTczJtJQhwyhV-23" target="8MBbLaUlNAx4oX11uAM1-4">
          <mxGeometry relative="1" as="geometry" />
        </mxCell>
        <mxCell id="_KIBPg8wTczJtJQhwyhV-23" value="op::supply_success" style="rounded=1;whiteSpace=wrap;html=1;" vertex="1" parent="1">
          <mxGeometry x="1018" y="706" width="120" height="60" as="geometry" />
        </mxCell>
        <mxCell id="_KIBPg8wTczJtJQhwyhV-24" value="Actor" style="shape=umlActor;verticalLabelPosition=bottom;verticalAlign=top;html=1;outlineConnect=0;" vertex="1" parent="1">
          <mxGeometry x="-380" y="548" width="30" height="60" as="geometry" />
        </mxCell>
        <mxCell id="_KIBPg8wTczJtJQhwyhV-32" style="edgeStyle=orthogonalEdgeStyle;rounded=0;orthogonalLoop=1;jettySize=auto;html=1;" edge="1" parent="1" source="roI6ckMuhLVN8BSUlhjc-11" target="_KIBPg8wTczJtJQhwyhV-24">
          <mxGeometry relative="1" as="geometry">
            <mxPoint x="-283" y="626" as="sourcePoint" />
            <mxPoint x="-353" y="576" as="targetPoint" />
          </mxGeometry>
        </mxCell>
        <mxCell id="qAHGbjs3AVat579Nnkeo-10" value="excesses" style="edgeLabel;html=1;align=center;verticalAlign=middle;resizable=0;points=[];" connectable="0" vertex="1" parent="_KIBPg8wTczJtJQhwyhV-32">
          <mxGeometry x="-0.3566" y="-1" relative="1" as="geometry">
            <mxPoint x="-12" as="offset" />
          </mxGeometry>
        </mxCell>
        <mxCell id="dNQSc1XeHN8SqAbrfkaM-1" value="Supply jetton diagram" style="text;strokeColor=none;fillColor=none;html=1;fontSize=24;fontStyle=1;verticalAlign=middle;align=center;" vertex="1" parent="1">
          <mxGeometry x="-413" y="76" width="260" height="40" as="geometry" />
        </mxCell>
        <mxCell id="roI6ckMuhLVN8BSUlhjc-5" value="op::transfer" style="rounded=1;whiteSpace=wrap;html=1;" vertex="1" parent="1">
          <mxGeometry x="-100" y="206" width="120" height="60" as="geometry" />
        </mxCell>
        <mxCell id="roI6ckMuhLVN8BSUlhjc-11" value="op::transfer" style="rounded=1;whiteSpace=wrap;html=1;" vertex="1" parent="1">
          <mxGeometry x="-100" y="449" width="120" height="60" as="geometry" />
        </mxCell>
        <mxCell id="roI6ckMuhLVN8BSUlhjc-12" value="Jetton user wallet" style="text;html=1;align=center;verticalAlign=middle;resizable=0;points=[];autosize=1;strokeColor=none;fillColor=none;" vertex="1" parent="1">
          <mxGeometry x="-273" y="170" width="120" height="30" as="geometry" />
        </mxCell>
        <mxCell id="hdrETwVjOIWNLtEFXquB-11" value="Evaa master contract" style="text;html=1;align=center;verticalAlign=middle;resizable=0;points=[];autosize=1;strokeColor=none;fillColor=none;" vertex="1" parent="1">
          <mxGeometry x="144" y="169" width="140" height="30" as="geometry" />
        </mxCell>
        <mxCell id="kwysDcoMwppNxx7waEjH-8" style="edgeStyle=orthogonalEdgeStyle;rounded=0;orthogonalLoop=1;jettySize=auto;html=1;curved=0;entryX=1;entryY=0.5;entryDx=0;entryDy=0;" edge="1" parent="1" source="kwysDcoMwppNxx7waEjH-5" target="kwysDcoMwppNxx7waEjH-9">
          <mxGeometry relative="1" as="geometry">
            <mxPoint x="120" y="360" as="targetPoint" />
            <Array as="points">
              <mxPoint x="681" y="359" />
              <mxPoint x="80" y="359" />
            </Array>
          </mxGeometry>
        </mxCell>
        <mxCell id="kwysDcoMwppNxx7waEjH-12" value="&amp;nbsp;return jettons&amp;nbsp;" style="edgeLabel;html=1;align=center;verticalAlign=middle;resizable=0;points=[];" connectable="0" vertex="1" parent="kwysDcoMwppNxx7waEjH-8">
          <mxGeometry x="-0.0251" y="2" relative="1" as="geometry">
            <mxPoint y="-4" as="offset" />
          </mxGeometry>
        </mxCell>
        <mxCell id="kwysDcoMwppNxx7waEjH-5" value="" style="html=1;points=[[0,0,0,0,5],[0,1,0,0,-5],[1,0,0,0,5],[1,1,0,0,-5]];perimeter=orthogonalPerimeter;outlineConnect=0;targetShapes=umlLifeline;portConstraint=eastwest;newEdgeStyle={&quot;curved&quot;:0,&quot;rounded&quot;:0};direction=south;" vertex="1" parent="1">
          <mxGeometry x="570" y="318.5" width="221" height="10" as="geometry" />
        </mxCell>
        <mxCell id="kwysDcoMwppNxx7waEjH-10" style="edgeStyle=orthogonalEdgeStyle;rounded=0;orthogonalLoop=1;jettySize=auto;html=1;exitX=0;exitY=0.5;exitDx=0;exitDy=0;" edge="1" parent="1" source="kwysDcoMwppNxx7waEjH-9" target="_KIBPg8wTczJtJQhwyhV-24">
          <mxGeometry relative="1" as="geometry">
            <Array as="points">
              <mxPoint x="-430" y="359" />
              <mxPoint x="-430" y="570" />
            </Array>
          </mxGeometry>
        </mxCell>
        <mxCell id="kwysDcoMwppNxx7waEjH-13" value="&amp;nbsp;return jettons&amp;nbsp;" style="edgeLabel;html=1;align=center;verticalAlign=middle;resizable=0;points=[];" connectable="0" vertex="1" parent="kwysDcoMwppNxx7waEjH-10">
          <mxGeometry x="-0.5936" y="5" relative="1" as="geometry">
            <mxPoint as="offset" />
          </mxGeometry>
        </mxCell>
        <mxCell id="kwysDcoMwppNxx7waEjH-9" value="op::transfer" style="rounded=1;whiteSpace=wrap;html=1;" vertex="1" parent="1">
          <mxGeometry x="-100" y="328.5" width="120" height="60" as="geometry" />
        </mxCell>
        <mxCell id="9UxbPHe1xc03trH-t5Fy-1" value="update s/b-rates and tracking indexes" style="rounded=1;whiteSpace=wrap;html=1;" vertex="1" parent="1">
          <mxGeometry x="1018" y="206" width="120" height="60" as="geometry" />
        </mxCell>
        <mxCell id="9UxbPHe1xc03trH-t5Fy-2" style="edgeStyle=orthogonalEdgeStyle;rounded=0;orthogonalLoop=1;jettySize=auto;html=1;" edge="1" parent="1" source="9UxbPHe1xc03trH-t5Fy-1" target="9UxbPHe1xc03trH-t5Fy-3">
          <mxGeometry relative="1" as="geometry">
            <mxPoint x="1158" y="236" as="targetPoint" />
          </mxGeometry>
        </mxCell>
        <mxCell id="JNoaphrmC2Zt9XJzK8fs-27" style="edgeStyle=orthogonalEdgeStyle;rounded=0;orthogonalLoop=1;jettySize=auto;html=1;entryX=0;entryY=0.5;entryDx=0;entryDy=0;" edge="1" parent="1" source="9UxbPHe1xc03trH-t5Fy-3" target="JNoaphrmC2Zt9XJzK8fs-3">
          <mxGeometry relative="1" as="geometry" />
        </mxCell>
        <mxCell id="9UxbPHe1xc03trH-t5Fy-3" value="update and store awaited supply" style="rounded=1;whiteSpace=wrap;html=1;" vertex="1" parent="1">
          <mxGeometry x="1018" y="292" width="120" height="60" as="geometry" />
        </mxCell>
        <mxCell id="8MBbLaUlNAx4oX11uAM1-24" value="" style="edgeStyle=orthogonalEdgeStyle;rounded=0;orthogonalLoop=1;jettySize=auto;html=1;" edge="1" parent="1" source="JNoaphrmC2Zt9XJzK8fs-3" target="8MBbLaUlNAx4oX11uAM1-2">
          <mxGeometry relative="1" as="geometry" />
        </mxCell>
        <mxCell id="JNoaphrmC2Zt9XJzK8fs-3" value="op::supply_user" style="rounded=1;whiteSpace=wrap;html=1;" vertex="1" parent="1">
          <mxGeometry x="1211" y="292" width="120" height="60" as="geometry" />
        </mxCell>
        <mxCell id="JNoaphrmC2Zt9XJzK8fs-7" value="" style="edgeStyle=orthogonalEdgeStyle;rounded=0;orthogonalLoop=1;jettySize=auto;html=1;exitX=0.5;exitY=0.956;exitDx=0;exitDy=0;entryX=0.5;entryY=0;entryDx=0;entryDy=0;entryPerimeter=0;exitPerimeter=0;" edge="1" parent="1" source="8MBbLaUlNAx4oX11uAM1-3" target="JNoaphrmC2Zt9XJzK8fs-22">
          <mxGeometry relative="1" as="geometry">
            <mxPoint x="1368" y="578.5" as="targetPoint" />
            <mxPoint x="1748" y="374.5" as="sourcePoint" />
          </mxGeometry>
        </mxCell>
        <mxCell id="JNoaphrmC2Zt9XJzK8fs-8" value="Yes" style="edgeLabel;html=1;align=center;verticalAlign=middle;resizable=0;points=[];" connectable="0" vertex="1" parent="JNoaphrmC2Zt9XJzK8fs-7">
          <mxGeometry x="-0.9343" y="2" relative="1" as="geometry">
            <mxPoint x="-2" as="offset" />
          </mxGeometry>
        </mxCell>
        <mxCell id="8MBbLaUlNAx4oX11uAM1-23" value="" style="edgeStyle=orthogonalEdgeStyle;rounded=0;orthogonalLoop=1;jettySize=auto;html=1;" edge="1" parent="1" source="JNoaphrmC2Zt9XJzK8fs-11" target="8MBbLaUlNAx4oX11uAM1-3">
          <mxGeometry relative="1" as="geometry" />
        </mxCell>
        <mxCell id="JNoaphrmC2Zt9XJzK8fs-11" value="upgrade userSc" style="rounded=1;whiteSpace=wrap;html=1;" vertex="1" parent="1">
          <mxGeometry x="1566" y="292" width="120" height="60" as="geometry" />
        </mxCell>
        <mxCell id="JNoaphrmC2Zt9XJzK8fs-12" value="Evaa user wallet smart contract" style="text;html=1;align=center;verticalAlign=middle;resizable=0;points=[];autosize=1;strokeColor=none;fillColor=none;" vertex="1" parent="1">
          <mxGeometry x="1188" y="170" width="190" height="30" as="geometry" />
        </mxCell>
        <mxCell id="JNoaphrmC2Zt9XJzK8fs-13" style="edgeStyle=orthogonalEdgeStyle;rounded=0;orthogonalLoop=1;jettySize=auto;html=1;entryX=0.475;entryY=-0.031;entryDx=0;entryDy=0;entryPerimeter=0;exitX=0.471;exitY=-0.006;exitDx=0;exitDy=0;exitPerimeter=0;" edge="1" parent="1" source="8MBbLaUlNAx4oX11uAM1-2" target="8MBbLaUlNAx4oX11uAM1-3">
          <mxGeometry relative="1" as="geometry">
            <Array as="points">
              <mxPoint x="1446" y="230" />
              <mxPoint x="1767" y="230" />
            </Array>
            <mxPoint x="1415" y="269.5" as="sourcePoint" />
            <mxPoint x="1748" y="269.5" as="targetPoint" />
          </mxGeometry>
        </mxCell>
        <mxCell id="JNoaphrmC2Zt9XJzK8fs-14" value="Yes" style="edgeLabel;html=1;align=center;verticalAlign=middle;resizable=0;points=[];" connectable="0" vertex="1" parent="JNoaphrmC2Zt9XJzK8fs-13">
          <mxGeometry x="-0.0411" y="-2" relative="1" as="geometry">
            <mxPoint y="-2" as="offset" />
          </mxGeometry>
        </mxCell>
        <mxCell id="JNoaphrmC2Zt9XJzK8fs-15" value="" style="edgeStyle=orthogonalEdgeStyle;rounded=0;orthogonalLoop=1;jettySize=auto;html=1;entryX=1;entryY=0.5;entryDx=0;entryDy=0;exitX=1.008;exitY=0.488;exitDx=0;exitDy=0;exitPerimeter=0;" edge="1" parent="1" source="8MBbLaUlNAx4oX11uAM1-3" target="JNoaphrmC2Zt9XJzK8fs-17">
          <mxGeometry relative="1" as="geometry">
            <mxPoint x="1850" y="330" as="sourcePoint" />
            <mxPoint x="1108" y="659" as="targetPoint" />
          </mxGeometry>
        </mxCell>
        <mxCell id="8MBbLaUlNAx4oX11uAM1-27" value="No" style="edgeLabel;html=1;align=center;verticalAlign=middle;resizable=0;points=[];" connectable="0" vertex="1" parent="JNoaphrmC2Zt9XJzK8fs-15">
          <mxGeometry x="-0.1494" relative="1" as="geometry">
            <mxPoint as="offset" />
          </mxGeometry>
        </mxCell>
        <mxCell id="JNoaphrmC2Zt9XJzK8fs-17" value="cut positive dust" style="rounded=1;whiteSpace=wrap;html=1;" vertex="1" parent="1">
          <mxGeometry x="1757" y="449" width="120" height="60" as="geometry" />
        </mxCell>
        <mxCell id="JNoaphrmC2Zt9XJzK8fs-28" style="edgeStyle=orthogonalEdgeStyle;rounded=0;orthogonalLoop=1;jettySize=auto;html=1;curved=0;entryX=1;entryY=0.5;entryDx=0;entryDy=0;" edge="1" parent="1" source="JNoaphrmC2Zt9XJzK8fs-22" target="_KIBPg8wTczJtJQhwyhV-20">
          <mxGeometry relative="1" as="geometry" />
        </mxCell>
        <mxCell id="JNoaphrmC2Zt9XJzK8fs-22" value="" style="html=1;points=[[0,0,0,0,5],[0,1,0,0,-5],[1,0,0,0,5],[1,1,0,0,-5]];perimeter=orthogonalPerimeter;outlineConnect=0;targetShapes=umlLifeline;portConstraint=eastwest;newEdgeStyle={&quot;curved&quot;:0,&quot;rounded&quot;:0};" vertex="1" parent="1">
          <mxGeometry x="1298" y="439" width="20" height="80" as="geometry" />
        </mxCell>
        <mxCell id="JNoaphrmC2Zt9XJzK8fs-29" style="edgeStyle=orthogonalEdgeStyle;rounded=0;orthogonalLoop=1;jettySize=auto;html=1;entryX=1;entryY=0.5;entryDx=0;entryDy=0;" edge="1" parent="1" source="JNoaphrmC2Zt9XJzK8fs-23" target="_KIBPg8wTczJtJQhwyhV-23">
          <mxGeometry relative="1" as="geometry" />
        </mxCell>
        <mxCell id="JNoaphrmC2Zt9XJzK8fs-23" value="update user principals&lt;br&gt;update tracking indexes" style="rounded=1;whiteSpace=wrap;html=1;" vertex="1" parent="1">
          <mxGeometry x="1518" y="706" width="120" height="60" as="geometry" />
        </mxCell>
        <mxCell id="_pfn1T-m3RDYXWWq7z3e-1" style="edgeStyle=orthogonalEdgeStyle;rounded=0;orthogonalLoop=1;jettySize=auto;html=1;" edge="1" parent="1" source="NWfle6D3z9drxyIa941Z-14" target="_KIBPg8wTczJtJQhwyhV-24">
          <mxGeometry relative="1" as="geometry" />
        </mxCell>
        <mxCell id="7mYbtGEnwBM5UqJ1AThA-2" value="&amp;nbsp;excess fees&amp;nbsp;" style="edgeLabel;html=1;align=center;verticalAlign=middle;resizable=0;points=[];" connectable="0" vertex="1" parent="_pfn1T-m3RDYXWWq7z3e-1">
          <mxGeometry x="-0.7483" y="-2" relative="1" as="geometry">
            <mxPoint x="-126" as="offset" />
          </mxGeometry>
        </mxCell>
        <mxCell id="NWfle6D3z9drxyIa941Z-14" value="approve new supply" style="rounded=1;whiteSpace=wrap;html=1;" vertex="1" parent="1">
          <mxGeometry x="648.5" y="706" width="120" height="60" as="geometry" />
        </mxCell>
        <mxCell id="aQkKbZsRZdI9DJt7T9bL-5" style="edgeStyle=orthogonalEdgeStyle;rounded=0;orthogonalLoop=1;jettySize=auto;html=1;entryX=1;entryY=0.5;entryDx=0;entryDy=0;" edge="1" parent="1" source="NWfle6D3z9drxyIa941Z-18" target="roI6ckMuhLVN8BSUlhjc-11">
          <mxGeometry relative="1" as="geometry" />
        </mxCell>
        <mxCell id="7mYbtGEnwBM5UqJ1AThA-1" value="&amp;nbsp;return jettons&amp;nbsp;" style="edgeLabel;html=1;align=center;verticalAlign=middle;resizable=0;points=[];" connectable="0" vertex="1" parent="aQkKbZsRZdI9DJt7T9bL-5">
          <mxGeometry x="-0.4417" relative="1" as="geometry">
            <mxPoint x="-98" y="-1" as="offset" />
          </mxGeometry>
        </mxCell>
        <mxCell id="NWfle6D3z9drxyIa941Z-18" value="restore awaited supply" style="rounded=1;whiteSpace=wrap;html=1;" vertex="1" parent="1">
          <mxGeometry x="648.5" y="449" width="120" height="60" as="geometry" />
        </mxCell>
        <mxCell id="WJr6vXXRc2hObr8wF9rW-1" style="vsdxID=11;fillColor=#f8cecc;gradientColor=none;shape=stencil(vVLBDoMgDP0ajiwIM9nduf8gE5WMials6t8PU+JE3Q477Nb2vb6+UojIulq2inDWObA31evC1UScCee6qRVo5yMiciKy0oKqwD6aAvNWTswputvnpDBgH5s6OBsxSzG9IFPC1UMQmDxFKoxxHuCE7UqxgcpBdxSsk07bJppqJFSK+jG0NLIKOgh1vVLtovy7sf/Z8sH7mUttDF5pxj/dIDke0sjkXAiNRjcL+ild0efCZU99Q/+uvjGzVo+2XG3og/XH8yX8tCJ/AQ==);strokeColor=#b85450;spacingTop=-3;spacingBottom=-3;spacingLeft=-3;spacingRight=-3;points=[];labelBackgroundColor=none;rounded=0;html=1;whiteSpace=wrap;" vertex="1" parent="1">
          <mxGeometry x="434" y="308.5" width="20" height="20" as="geometry" />
        </mxCell>
        <mxCell id="WJr6vXXRc2hObr8wF9rW-3" style="vsdxID=11;fillColor=#f8cecc;gradientColor=none;shape=stencil(vVLBDoMgDP0ajiwIM9nduf8gE5WMials6t8PU+JE3Q477Nb2vb6+UojIulq2inDWObA31evC1UScCee6qRVo5yMiciKy0oKqwD6aAvNWTswputvnpDBgH5s6OBsxSzG9IFPC1UMQmDxFKoxxHuCE7UqxgcpBdxSsk07bJppqJFSK+jG0NLIKOgh1vVLtovy7sf/Z8sH7mUttDF5pxj/dIDke0sjkXAiNRjcL+ild0efCZU99Q/+uvjGzVo+2XG3og/XH8yX8tCJ/AQ==);strokeColor=#b85450;spacingTop=-3;spacingBottom=-3;spacingLeft=-3;spacingRight=-3;points=[];labelBackgroundColor=none;rounded=0;html=1;whiteSpace=wrap;" vertex="1" parent="1">
          <mxGeometry x="910" y="308.5" width="20" height="20" as="geometry" />
        </mxCell>
        <mxCell id="WJr6vXXRc2hObr8wF9rW-4" style="vsdxID=11;fillColor=#f8cecc;gradientColor=none;shape=stencil(vVLBDoMgDP0ajiwIM9nduf8gE5WMials6t8PU+JE3Q477Nb2vb6+UojIulq2inDWObA31evC1UScCee6qRVo5yMiciKy0oKqwD6aAvNWTswputvnpDBgH5s6OBsxSzG9IFPC1UMQmDxFKoxxHuCE7UqxgcpBdxSsk07bJppqJFSK+jG0NLIKOgh1vVLtovy7sf/Z8sH7mUttDF5pxj/dIDke0sjkXAiNRjcL+ild0efCZU99Q/+uvjGzVo+2XG3og/XH8yX8tCJ/AQ==);strokeColor=#b85450;spacingTop=-3;spacingBottom=-3;spacingLeft=-3;spacingRight=-3;points=[];labelBackgroundColor=none;rounded=0;html=1;whiteSpace=wrap;" vertex="1" parent="1">
          <mxGeometry x="882" y="574" width="20" height="20" as="geometry" />
        </mxCell>
        <mxCell id="WJr6vXXRc2hObr8wF9rW-5" style="vsdxID=11;fillColor=#f8cecc;gradientColor=none;shape=stencil(vVLBDoMgDP0ajiwIM9nduf8gE5WMials6t8PU+JE3Q477Nb2vb6+UojIulq2inDWObA31evC1UScCee6qRVo5yMiciKy0oKqwD6aAvNWTswputvnpDBgH5s6OBsxSzG9IFPC1UMQmDxFKoxxHuCE7UqxgcpBdxSsk07bJppqJFSK+jG0NLIKOgh1vVLtovy7sf/Z8sH7mUttDF5pxj/dIDke0sjkXAiNRjcL+ild0efCZU99Q/+uvjGzVo+2XG3og/XH8yX8tCJ/AQ==);strokeColor=#b85450;spacingTop=-3;spacingBottom=-3;spacingLeft=-3;spacingRight=-3;points=[];labelBackgroundColor=none;rounded=0;html=1;whiteSpace=wrap;" vertex="1" parent="1">
          <mxGeometry x="882" y="622" width="20" height="20" as="geometry" />
        </mxCell>
        <mxCell id="8MBbLaUlNAx4oX11uAM1-17" value="" style="edgeStyle=orthogonalEdgeStyle;rounded=0;orthogonalLoop=1;jettySize=auto;html=1;" edge="1" parent="1" source="8MBbLaUlNAx4oX11uAM1-1" target="JNoaphrmC2Zt9XJzK8fs-22">
          <mxGeometry relative="1" as="geometry">
            <mxPoint x="1430" y="480" as="targetPoint" />
          </mxGeometry>
        </mxCell>
        <mxCell id="8MBbLaUlNAx4oX11uAM1-21" value="Yes" style="edgeLabel;html=1;align=center;verticalAlign=middle;resizable=0;points=[];" connectable="0" vertex="1" parent="8MBbLaUlNAx4oX11uAM1-17">
          <mxGeometry x="-0.0729" y="-1" relative="1" as="geometry">
            <mxPoint as="offset" />
          </mxGeometry>
        </mxCell>
        <mxCell id="8MBbLaUlNAx4oX11uAM1-18" value="" style="edgeStyle=orthogonalEdgeStyle;rounded=0;orthogonalLoop=1;jettySize=auto;html=1;entryX=0.438;entryY=-0.042;entryDx=0;entryDy=0;entryPerimeter=0;" edge="1" parent="1" source="8MBbLaUlNAx4oX11uAM1-1" target="JNoaphrmC2Zt9XJzK8fs-23">
          <mxGeometry relative="1" as="geometry">
            <mxPoint x="1570" y="599" as="targetPoint" />
          </mxGeometry>
        </mxCell>
        <mxCell id="8MBbLaUlNAx4oX11uAM1-19" value="No" style="edgeLabel;html=1;align=center;verticalAlign=middle;resizable=0;points=[];" connectable="0" vertex="1" parent="8MBbLaUlNAx4oX11uAM1-18">
          <mxGeometry x="-0.0491" y="-2" relative="1" as="geometry">
            <mxPoint as="offset" />
          </mxGeometry>
        </mxCell>
        <mxCell id="8MBbLaUlNAx4oX11uAM1-1" value="Max cap exceeds?" style="verticalAlign=middle;align=center;overflow=width;vsdxID=9;fillColor=#ffffff;gradientColor=none;shape=stencil(lZHdCsIwDIWfJvcxYfgAc77HYJ0N1nZ09Wdvb2sQp4jUu3PS74RyAtzOtp8MEM4phqO5ypAs8A6IxFsTJWUF3AG3Y4jmEMPZD+qnvpBFncKlbLhpjpoSIVzU4sPtlXTiV+S2mtwgvqFN/dZn9CtLf7D1P/jVQBav4kZxTntfv38WnUd6JO7u);strokeColor=#000000;spacingTop=-3;spacingBottom=-3;spacingLeft=-3;spacingRight=-3;points=[];labelBackgroundColor=none;rounded=0;html=1;whiteSpace=wrap;" vertex="1" parent="1">
          <mxGeometry x="1510" y="439" width="120" height="80" as="geometry" />
        </mxCell>
        <mxCell id="8MBbLaUlNAx4oX11uAM1-25" value="" style="edgeStyle=orthogonalEdgeStyle;rounded=0;orthogonalLoop=1;jettySize=auto;html=1;" edge="1" parent="1" source="8MBbLaUlNAx4oX11uAM1-2" target="JNoaphrmC2Zt9XJzK8fs-11">
          <mxGeometry relative="1" as="geometry" />
        </mxCell>
        <mxCell id="8MBbLaUlNAx4oX11uAM1-26" value="No" style="edgeLabel;html=1;align=center;verticalAlign=middle;resizable=0;points=[];" connectable="0" vertex="1" parent="8MBbLaUlNAx4oX11uAM1-25">
          <mxGeometry x="-0.113" relative="1" as="geometry">
            <mxPoint as="offset" />
          </mxGeometry>
        </mxCell>
        <mxCell id="8MBbLaUlNAx4oX11uAM1-2" value="Is code of user sc&lt;div&gt;of he last version?&lt;/div&gt;" style="verticalAlign=middle;align=center;overflow=width;vsdxID=9;fillColor=#ffffff;gradientColor=none;shape=stencil(lZHdCsIwDIWfJvcxYfgAc77HYJ0N1nZ09Wdvb2sQp4jUu3PS74RyAtzOtp8MEM4phqO5ypAs8A6IxFsTJWUF3AG3Y4jmEMPZD+qnvpBFncKlbLhpjpoSIVzU4sPtlXTiV+S2mtwgvqFN/dZn9CtLf7D1P/jVQBav4kZxTntfv38WnUd6JO7u);strokeColor=#000000;spacingTop=-3;spacingBottom=-3;spacingLeft=-3;spacingRight=-3;points=[];labelBackgroundColor=none;rounded=0;html=1;whiteSpace=wrap;" vertex="1" parent="1">
          <mxGeometry x="1377" y="282.5" width="120" height="80" as="geometry" />
        </mxCell>
        <mxCell id="8MBbLaUlNAx4oX11uAM1-3" value="Is user locked?" style="verticalAlign=middle;align=center;overflow=width;vsdxID=9;fillColor=#ffffff;gradientColor=none;shape=stencil(lZHdCsIwDIWfJvcxYfgAc77HYJ0N1nZ09Wdvb2sQp4jUu3PS74RyAtzOtp8MEM4phqO5ypAs8A6IxFsTJWUF3AG3Y4jmEMPZD+qnvpBFncKlbLhpjpoSIVzU4sPtlXTiV+S2mtwgvqFN/dZn9CtLf7D1P/jVQBav4kZxTntfv38WnUd6JO7u);strokeColor=#000000;spacingTop=-3;spacingBottom=-3;spacingLeft=-3;spacingRight=-3;points=[];labelBackgroundColor=none;rounded=0;html=1;whiteSpace=wrap;" vertex="1" parent="1">
          <mxGeometry x="1743" y="282.5" width="120" height="80" as="geometry" />
        </mxCell>
        <mxCell id="8MBbLaUlNAx4oX11uAM1-48" value="" style="edgeStyle=orthogonalEdgeStyle;rounded=0;orthogonalLoop=1;jettySize=auto;html=1;" edge="1" parent="1" source="8MBbLaUlNAx4oX11uAM1-4" target="NWfle6D3z9drxyIa941Z-14">
          <mxGeometry relative="1" as="geometry" />
        </mxCell>
        <mxCell id="_pNw8tSkBVz3jn2YdhMc-1" value="Yes" style="edgeLabel;html=1;align=center;verticalAlign=middle;resizable=0;points=[];" connectable="0" vertex="1" parent="8MBbLaUlNAx4oX11uAM1-48">
          <mxGeometry x="-0.0866" y="1" relative="1" as="geometry">
            <mxPoint y="-1" as="offset" />
          </mxGeometry>
        </mxCell>
        <mxCell id="8MBbLaUlNAx4oX11uAM1-50" value="" style="edgeStyle=orthogonalEdgeStyle;rounded=0;orthogonalLoop=1;jettySize=auto;html=1;" edge="1" parent="1" source="8MBbLaUlNAx4oX11uAM1-4" target="WJr6vXXRc2hObr8wF9rW-5">
          <mxGeometry relative="1" as="geometry" />
        </mxCell>
        <mxCell id="8MBbLaUlNAx4oX11uAM1-52" value="No" style="edgeLabel;html=1;align=center;verticalAlign=middle;resizable=0;points=[];" connectable="0" vertex="1" parent="8MBbLaUlNAx4oX11uAM1-50">
          <mxGeometry relative="1" as="geometry">
            <mxPoint x="1" as="offset" />
          </mxGeometry>
        </mxCell>
        <mxCell id="8MBbLaUlNAx4oX11uAM1-4" value="Is valid sender?" style="verticalAlign=middle;align=center;overflow=width;vsdxID=9;fillColor=#ffffff;gradientColor=none;shape=stencil(lZHdCsIwDIWfJvcxYfgAc77HYJ0N1nZ09Wdvb2sQp4jUu3PS74RyAtzOtp8MEM4phqO5ypAs8A6IxFsTJWUF3AG3Y4jmEMPZD+qnvpBFncKlbLhpjpoSIVzU4sPtlXTiV+S2mtwgvqFN/dZn9CtLf7D1P/jVQBav4kZxTntfv38WnUd6JO7u);strokeColor=#000000;spacingTop=-3;spacingBottom=-3;spacingLeft=-3;spacingRight=-3;points=[];labelBackgroundColor=none;rounded=0;html=1;whiteSpace=wrap;" vertex="1" parent="1">
          <mxGeometry x="832" y="696" width="120" height="80" as="geometry" />
        </mxCell>
        <mxCell id="8MBbLaUlNAx4oX11uAM1-33" value="" style="edgeStyle=orthogonalEdgeStyle;rounded=0;orthogonalLoop=1;jettySize=auto;html=1;" edge="1" parent="1" source="8MBbLaUlNAx4oX11uAM1-5" target="8MBbLaUlNAx4oX11uAM1-6">
          <mxGeometry relative="1" as="geometry" />
        </mxCell>
        <mxCell id="8MBbLaUlNAx4oX11uAM1-43" value="Yes" style="edgeLabel;html=1;align=center;verticalAlign=middle;resizable=0;points=[];" connectable="0" vertex="1" parent="8MBbLaUlNAx4oX11uAM1-33">
          <mxGeometry x="-0.4444" y="2" relative="1" as="geometry">
            <mxPoint x="-1" as="offset" />
          </mxGeometry>
        </mxCell>
        <mxCell id="8MBbLaUlNAx4oX11uAM1-36" value="" style="edgeStyle=orthogonalEdgeStyle;rounded=0;orthogonalLoop=1;jettySize=auto;html=1;" edge="1" parent="1" source="8MBbLaUlNAx4oX11uAM1-5" target="WJr6vXXRc2hObr8wF9rW-1">
          <mxGeometry relative="1" as="geometry" />
        </mxCell>
        <mxCell id="8MBbLaUlNAx4oX11uAM1-37" value="No" style="edgeLabel;html=1;align=center;verticalAlign=middle;resizable=0;points=[];" connectable="0" vertex="1" parent="8MBbLaUlNAx4oX11uAM1-36">
          <mxGeometry x="0.1789" y="3" relative="1" as="geometry">
            <mxPoint x="-2" y="1" as="offset" />
          </mxGeometry>
        </mxCell>
        <mxCell id="8MBbLaUlNAx4oX11uAM1-5" value="Is supported jetton?" style="verticalAlign=middle;align=center;overflow=width;vsdxID=9;fillColor=#ffffff;gradientColor=none;shape=stencil(lZHdCsIwDIWfJvcxYfgAc77HYJ0N1nZ09Wdvb2sQp4jUu3PS74RyAtzOtp8MEM4phqO5ypAs8A6IxFsTJWUF3AG3Y4jmEMPZD+qnvpBFncKlbLhpjpoSIVzU4sPtlXTiV+S2mtwgvqFN/dZn9CtLf7D1P/jVQBav4kZxTntfv38WnUd6JO7u);strokeColor=#000000;spacingTop=-3;spacingBottom=-3;spacingLeft=-3;spacingRight=-3;points=[];labelBackgroundColor=none;rounded=0;html=1;whiteSpace=wrap;" vertex="1" parent="1">
          <mxGeometry x="384" y="196" width="120" height="80" as="geometry" />
        </mxCell>
        <mxCell id="8MBbLaUlNAx4oX11uAM1-31" value="" style="edgeStyle=orthogonalEdgeStyle;rounded=0;orthogonalLoop=1;jettySize=auto;html=1;" edge="1" parent="1" source="8MBbLaUlNAx4oX11uAM1-6" target="8MBbLaUlNAx4oX11uAM1-7">
          <mxGeometry relative="1" as="geometry" />
        </mxCell>
        <mxCell id="8MBbLaUlNAx4oX11uAM1-44" value="Yes" style="edgeLabel;html=1;align=center;verticalAlign=middle;resizable=0;points=[];" connectable="0" vertex="1" parent="8MBbLaUlNAx4oX11uAM1-31">
          <mxGeometry x="-0.225" relative="1" as="geometry">
            <mxPoint as="offset" />
          </mxGeometry>
        </mxCell>
        <mxCell id="8MBbLaUlNAx4oX11uAM1-34" value="" style="edgeStyle=orthogonalEdgeStyle;rounded=0;orthogonalLoop=1;jettySize=auto;html=1;" edge="1" parent="1" source="8MBbLaUlNAx4oX11uAM1-6" target="kwysDcoMwppNxx7waEjH-5">
          <mxGeometry relative="1" as="geometry">
            <Array as="points">
              <mxPoint x="599" y="310" />
              <mxPoint x="599" y="310" />
            </Array>
          </mxGeometry>
        </mxCell>
        <mxCell id="8MBbLaUlNAx4oX11uAM1-38" value="No" style="edgeLabel;html=1;align=center;verticalAlign=middle;resizable=0;points=[];" connectable="0" vertex="1" parent="8MBbLaUlNAx4oX11uAM1-34">
          <mxGeometry x="-0.3412" relative="1" as="geometry">
            <mxPoint as="offset" />
          </mxGeometry>
        </mxCell>
        <mxCell id="8MBbLaUlNAx4oX11uAM1-6" value="Is valid recepient?" style="verticalAlign=middle;align=center;overflow=width;vsdxID=9;fillColor=#ffffff;gradientColor=none;shape=stencil(lZHdCsIwDIWfJvcxYfgAc77HYJ0N1nZ09Wdvb2sQp4jUu3PS74RyAtzOtp8MEM4phqO5ypAs8A6IxFsTJWUF3AG3Y4jmEMPZD+qnvpBFncKlbLhpjpoSIVzU4sPtlXTiV+S2mtwgvqFN/dZn9CtLf7D1P/jVQBav4kZxTntfv38WnUd6JO7u);strokeColor=#000000;spacingTop=-3;spacingBottom=-3;spacingLeft=-3;spacingRight=-3;points=[];labelBackgroundColor=none;rounded=0;html=1;whiteSpace=wrap;" vertex="1" parent="1">
          <mxGeometry x="539" y="196" width="120" height="80" as="geometry" />
        </mxCell>
        <mxCell id="8MBbLaUlNAx4oX11uAM1-30" value="" style="edgeStyle=orthogonalEdgeStyle;rounded=0;orthogonalLoop=1;jettySize=auto;html=1;" edge="1" parent="1" source="8MBbLaUlNAx4oX11uAM1-7" target="8MBbLaUlNAx4oX11uAM1-8">
          <mxGeometry relative="1" as="geometry" />
        </mxCell>
        <mxCell id="8MBbLaUlNAx4oX11uAM1-42" value="Yes" style="edgeLabel;html=1;align=center;verticalAlign=middle;resizable=0;points=[];" connectable="0" vertex="1" parent="8MBbLaUlNAx4oX11uAM1-30">
          <mxGeometry x="-0.1463" relative="1" as="geometry">
            <mxPoint as="offset" />
          </mxGeometry>
        </mxCell>
        <mxCell id="8MBbLaUlNAx4oX11uAM1-35" value="" style="edgeStyle=orthogonalEdgeStyle;rounded=0;orthogonalLoop=1;jettySize=auto;html=1;" edge="1" parent="1" source="8MBbLaUlNAx4oX11uAM1-7" target="kwysDcoMwppNxx7waEjH-5">
          <mxGeometry relative="1" as="geometry">
            <Array as="points">
              <mxPoint x="759" y="310" />
              <mxPoint x="759" y="310" />
            </Array>
          </mxGeometry>
        </mxCell>
        <mxCell id="8MBbLaUlNAx4oX11uAM1-39" value="No" style="edgeLabel;html=1;align=center;verticalAlign=middle;resizable=0;points=[];" connectable="0" vertex="1" parent="8MBbLaUlNAx4oX11uAM1-35">
          <mxGeometry x="-0.2" y="1" relative="1" as="geometry">
            <mxPoint as="offset" />
          </mxGeometry>
        </mxCell>
        <mxCell id="8MBbLaUlNAx4oX11uAM1-7" value="Is valid custom response payload?" style="verticalAlign=middle;align=center;overflow=width;vsdxID=9;fillColor=#ffffff;gradientColor=none;shape=stencil(lZHdCsIwDIWfJvcxYfgAc77HYJ0N1nZ09Wdvb2sQp4jUu3PS74RyAtzOtp8MEM4phqO5ypAs8A6IxFsTJWUF3AG3Y4jmEMPZD+qnvpBFncKlbLhpjpoSIVzU4sPtlXTiV+S2mtwgvqFN/dZn9CtLf7D1P/jVQBav4kZxTntfv38WnUd6JO7u);strokeColor=#000000;spacingTop=-3;spacingBottom=-3;spacingLeft=-3;spacingRight=-3;points=[];labelBackgroundColor=none;rounded=0;html=1;whiteSpace=wrap;" vertex="1" parent="1">
          <mxGeometry x="699" y="196" width="120" height="80" as="geometry" />
        </mxCell>
        <mxCell id="8MBbLaUlNAx4oX11uAM1-28" value="" style="edgeStyle=orthogonalEdgeStyle;rounded=0;orthogonalLoop=1;jettySize=auto;html=1;" edge="1" parent="1" source="8MBbLaUlNAx4oX11uAM1-8" target="9UxbPHe1xc03trH-t5Fy-1">
          <mxGeometry relative="1" as="geometry" />
        </mxCell>
        <mxCell id="8MBbLaUlNAx4oX11uAM1-41" value="Yes" style="edgeLabel;html=1;align=center;verticalAlign=middle;resizable=0;points=[];" connectable="0" vertex="1" parent="8MBbLaUlNAx4oX11uAM1-28">
          <mxGeometry x="-0.2143" y="2" relative="1" as="geometry">
            <mxPoint x="-1" as="offset" />
          </mxGeometry>
        </mxCell>
        <mxCell id="8MBbLaUlNAx4oX11uAM1-29" value="" style="edgeStyle=orthogonalEdgeStyle;rounded=0;orthogonalLoop=1;jettySize=auto;html=1;" edge="1" parent="1" source="8MBbLaUlNAx4oX11uAM1-8" target="WJr6vXXRc2hObr8wF9rW-3">
          <mxGeometry relative="1" as="geometry" />
        </mxCell>
        <mxCell id="8MBbLaUlNAx4oX11uAM1-40" value="No" style="edgeLabel;html=1;align=center;verticalAlign=middle;resizable=0;points=[];" connectable="0" vertex="1" parent="8MBbLaUlNAx4oX11uAM1-29">
          <mxGeometry x="0.1789" y="-1" relative="1" as="geometry">
            <mxPoint as="offset" />
          </mxGeometry>
        </mxCell>
        <mxCell id="8MBbLaUlNAx4oX11uAM1-8" value="Is enough gas fees?" style="verticalAlign=middle;align=center;overflow=width;vsdxID=9;fillColor=#ffffff;gradientColor=none;shape=stencil(lZHdCsIwDIWfJvcxYfgAc77HYJ0N1nZ09Wdvb2sQp4jUu3PS74RyAtzOtp8MEM4phqO5ypAs8A6IxFsTJWUF3AG3Y4jmEMPZD+qnvpBFncKlbLhpjpoSIVzU4sPtlXTiV+S2mtwgvqFN/dZn9CtLf7D1P/jVQBav4kZxTntfv38WnUd6JO7u);strokeColor=#000000;spacingTop=-3;spacingBottom=-3;spacingLeft=-3;spacingRight=-3;points=[];labelBackgroundColor=none;rounded=0;html=1;whiteSpace=wrap;" vertex="1" parent="1">
          <mxGeometry x="860" y="196" width="120" height="80" as="geometry" />
        </mxCell>
        <mxCell id="8MBbLaUlNAx4oX11uAM1-46" value="" style="edgeStyle=orthogonalEdgeStyle;rounded=0;orthogonalLoop=1;jettySize=auto;html=1;" edge="1" parent="1" source="8MBbLaUlNAx4oX11uAM1-9" target="NWfle6D3z9drxyIa941Z-18">
          <mxGeometry relative="1" as="geometry" />
        </mxCell>
        <mxCell id="_pNw8tSkBVz3jn2YdhMc-2" value="Yes" style="edgeLabel;html=1;align=center;verticalAlign=middle;resizable=0;points=[];" connectable="0" vertex="1" parent="8MBbLaUlNAx4oX11uAM1-46">
          <mxGeometry x="-0.0551" y="-2" relative="1" as="geometry">
            <mxPoint as="offset" />
          </mxGeometry>
        </mxCell>
        <mxCell id="8MBbLaUlNAx4oX11uAM1-49" value="" style="edgeStyle=orthogonalEdgeStyle;rounded=0;orthogonalLoop=1;jettySize=auto;html=1;" edge="1" parent="1" source="8MBbLaUlNAx4oX11uAM1-9" target="WJr6vXXRc2hObr8wF9rW-4">
          <mxGeometry relative="1" as="geometry" />
        </mxCell>
        <mxCell id="8MBbLaUlNAx4oX11uAM1-51" value="No" style="edgeLabel;html=1;align=center;verticalAlign=middle;resizable=0;points=[];" connectable="0" vertex="1" parent="8MBbLaUlNAx4oX11uAM1-49">
          <mxGeometry x="-0.1273" y="3" relative="1" as="geometry">
            <mxPoint as="offset" />
          </mxGeometry>
        </mxCell>
        <mxCell id="8MBbLaUlNAx4oX11uAM1-9" value="Is valid sender?" style="verticalAlign=middle;align=center;overflow=width;vsdxID=9;fillColor=#ffffff;gradientColor=none;shape=stencil(lZHdCsIwDIWfJvcxYfgAc77HYJ0N1nZ09Wdvb2sQp4jUu3PS74RyAtzOtp8MEM4phqO5ypAs8A6IxFsTJWUF3AG3Y4jmEMPZD+qnvpBFncKlbLhpjpoSIVzU4sPtlXTiV+S2mtwgvqFN/dZn9CtLf7D1P/jVQBav4kZxTntfv38WnUd6JO7u);strokeColor=#000000;spacingTop=-3;spacingBottom=-3;spacingLeft=-3;spacingRight=-3;points=[];labelBackgroundColor=none;rounded=0;html=1;whiteSpace=wrap;" vertex="1" parent="1">
          <mxGeometry x="832" y="439" width="120" height="80" as="geometry" />
        </mxCell>
        <mxCell id="8MBbLaUlNAx4oX11uAM1-10" style="edgeStyle=orthogonalEdgeStyle;rounded=0;orthogonalLoop=1;jettySize=auto;html=1;entryX=0.983;entryY=0.494;entryDx=0;entryDy=0;entryPerimeter=0;" edge="1" parent="1" source="JNoaphrmC2Zt9XJzK8fs-17" target="8MBbLaUlNAx4oX11uAM1-1">
          <mxGeometry relative="1" as="geometry" />
        </mxCell>
        <mxCell id="ExoVZbIKNvYrf5kV8sMA-4" value="" style="edgeStyle=orthogonalEdgeStyle;rounded=0;orthogonalLoop=1;jettySize=auto;html=1;" edge="1" parent="1" source="ExoVZbIKNvYrf5kV8sMA-1" target="JNoaphrmC2Zt9XJzK8fs-22">
          <mxGeometry relative="1" as="geometry">
            <Array as="points">
              <mxPoint x="1308" y="554" />
              <mxPoint x="1308" y="554" />
            </Array>
          </mxGeometry>
        </mxCell>
        <mxCell id="ExoVZbIKNvYrf5kV8sMA-5" value="Error caught" style="edgeLabel;html=1;align=center;verticalAlign=middle;resizable=0;points=[];" connectable="0" vertex="1" parent="ExoVZbIKNvYrf5kV8sMA-4">
          <mxGeometry x="-0.1014" relative="1" as="geometry">
            <mxPoint as="offset" />
          </mxGeometry>
        </mxCell>
        <mxCell id="ExoVZbIKNvYrf5kV8sMA-1" style="vsdxID=11;fillColor=#f8cecc;gradientColor=none;shape=stencil(vVLBDoMgDP0ajiwIM9nduf8gE5WMials6t8PU+JE3Q477Nb2vb6+UojIulq2inDWObA31evC1UScCee6qRVo5yMiciKy0oKqwD6aAvNWTswputvnpDBgH5s6OBsxSzG9IFPC1UMQmDxFKoxxHuCE7UqxgcpBdxSsk07bJppqJFSK+jG0NLIKOgh1vVLtovy7sf/Z8sH7mUttDF5pxj/dIDke0sjkXAiNRjcL+ild0efCZU99Q/+uvjGzVo+2XG3og/XH8yX8tCJ/AQ==);strokeColor=#b85450;spacingTop=-3;spacingBottom=-3;spacingLeft=-3;spacingRight=-3;points=[];labelBackgroundColor=none;rounded=0;html=1;whiteSpace=wrap;" vertex="1" parent="1">
          <mxGeometry x="1298" y="588" width="20" height="20" as="geometry" />
        </mxCell>
      </root>
    </mxGraphModel>
  </diagram>
  <diagram id="IlyBZnQka20s_tLv-cZA" name="Withdraw TON">
    <mxGraphModel dx="2555" dy="157" grid="1" gridSize="10" guides="1" tooltips="1" connect="1" arrows="1" fold="1" page="1" pageScale="1" pageWidth="827" pageHeight="1169" math="0" shadow="0">
      <root>
        <mxCell id="0" />
        <mxCell id="1" parent="0" />
        <mxCell id="A8wvUUDn1bnoPcl6TJQY-1" value="" style="rounded=0;whiteSpace=wrap;html=1;" parent="1" vertex="1">
          <mxGeometry x="830" y="1290" width="1190" height="530" as="geometry" />
        </mxCell>
        <mxCell id="A8wvUUDn1bnoPcl6TJQY-3" value="" style="rounded=0;whiteSpace=wrap;html=1;" parent="1" vertex="1">
          <mxGeometry x="-170" y="1290" width="980" height="530" as="geometry" />
        </mxCell>
        <mxCell id="A8wvUUDn1bnoPcl6TJQY-4" style="edgeStyle=orthogonalEdgeStyle;rounded=0;orthogonalLoop=1;jettySize=auto;html=1;entryX=0;entryY=0.5;entryDx=0;entryDy=0;" parent="1" source="A8wvUUDn1bnoPcl6TJQY-7" target="08cf-Fnic-BSwIpua85B-6" edge="1">
          <mxGeometry relative="1" as="geometry">
            <Array as="points">
              <mxPoint x="-92" y="2180" />
              <mxPoint x="-217" y="2180" />
            </Array>
            <mxPoint x="-217.96000000000004" y="2136.48" as="targetPoint" />
          </mxGeometry>
        </mxCell>
        <mxCell id="A8wvUUDn1bnoPcl6TJQY-6" style="edgeStyle=orthogonalEdgeStyle;rounded=0;orthogonalLoop=1;jettySize=auto;html=1;entryX=0.5;entryY=1;entryDx=0;entryDy=0;" parent="1" source="08cf-Fnic-BSwIpua85B-2" target="A8wvUUDn1bnoPcl6TJQY-9" edge="1">
          <mxGeometry relative="1" as="geometry">
            <mxPoint x="15" y="1958" as="targetPoint" />
            <Array as="points" />
          </mxGeometry>
        </mxCell>
        <mxCell id="A8wvUUDn1bnoPcl6TJQY-7" value="Actor" style="shape=umlActor;verticalLabelPosition=bottom;verticalAlign=top;html=1;outlineConnect=0;" parent="1" vertex="1">
          <mxGeometry x="-107" y="2068" width="30" height="60" as="geometry" />
        </mxCell>
        <mxCell id="A8wvUUDn1bnoPcl6TJQY-8" style="edgeStyle=orthogonalEdgeStyle;rounded=0;orthogonalLoop=1;jettySize=auto;html=1;entryX=0.031;entryY=0.513;entryDx=0;entryDy=0;entryPerimeter=0;" parent="1" source="A8wvUUDn1bnoPcl6TJQY-9" target="A8wvUUDn1bnoPcl6TJQY-75" edge="1">
          <mxGeometry relative="1" as="geometry">
            <mxPoint x="101" y="1379.5" as="targetPoint" />
          </mxGeometry>
        </mxCell>
        <mxCell id="A8wvUUDn1bnoPcl6TJQY-9" value="op::withdraw_master" style="rounded=1;whiteSpace=wrap;html=1;" parent="1" vertex="1">
          <mxGeometry x="-150" y="1350" width="115" height="59" as="geometry" />
        </mxCell>
        <mxCell id="A8wvUUDn1bnoPcl6TJQY-10" value="" style="edgeStyle=orthogonalEdgeStyle;rounded=0;orthogonalLoop=1;jettySize=auto;html=1;" parent="1" source="A8wvUUDn1bnoPcl6TJQY-11" target="A8wvUUDn1bnoPcl6TJQY-107" edge="1">
          <mxGeometry relative="1" as="geometry" />
        </mxCell>
        <mxCell id="A8wvUUDn1bnoPcl6TJQY-11" value="op::withdraw_user" style="rounded=1;whiteSpace=wrap;html=1;" parent="1" vertex="1">
          <mxGeometry x="850" y="1348.5" width="120" height="60" as="geometry" />
        </mxCell>
        <mxCell id="A8wvUUDn1bnoPcl6TJQY-12" style="edgeStyle=orthogonalEdgeStyle;rounded=0;orthogonalLoop=1;jettySize=auto;html=1;entryX=0.517;entryY=-0.037;entryDx=0;entryDy=0;exitX=0.5;exitY=0.019;exitDx=0;exitDy=0;entryPerimeter=0;exitPerimeter=0;" parent="1" source="A8wvUUDn1bnoPcl6TJQY-107" target="A8wvUUDn1bnoPcl6TJQY-108" edge="1">
          <mxGeometry relative="1" as="geometry">
            <mxPoint x="1050" y="1334.5" as="sourcePoint" />
            <mxPoint x="1344" y="1335" as="targetPoint" />
            <Array as="points">
              <mxPoint x="1050" y="1310" />
              <mxPoint x="1352" y="1310" />
            </Array>
          </mxGeometry>
        </mxCell>
        <mxCell id="A8wvUUDn1bnoPcl6TJQY-13" value="Yes" style="edgeLabel;html=1;align=center;verticalAlign=middle;resizable=0;points=[];" parent="A8wvUUDn1bnoPcl6TJQY-12" connectable="0" vertex="1">
          <mxGeometry x="-0.0308" y="-2" relative="1" as="geometry">
            <mxPoint y="-2" as="offset" />
          </mxGeometry>
        </mxCell>
        <mxCell id="A8wvUUDn1bnoPcl6TJQY-14" value="" style="edgeStyle=orthogonalEdgeStyle;rounded=0;orthogonalLoop=1;jettySize=auto;html=1;" parent="1" target="A8wvUUDn1bnoPcl6TJQY-109" edge="1">
          <mxGeometry relative="1" as="geometry">
            <mxPoint x="1389" y="1380" as="sourcePoint" />
          </mxGeometry>
        </mxCell>
        <mxCell id="A8wvUUDn1bnoPcl6TJQY-15" value="No" style="edgeLabel;html=1;align=center;verticalAlign=middle;resizable=0;points=[];" parent="A8wvUUDn1bnoPcl6TJQY-14" connectable="0" vertex="1">
          <mxGeometry x="-0.0851" relative="1" as="geometry">
            <mxPoint x="8" as="offset" />
          </mxGeometry>
        </mxCell>
        <mxCell id="A8wvUUDn1bnoPcl6TJQY-16" style="edgeStyle=orthogonalEdgeStyle;rounded=0;orthogonalLoop=1;jettySize=auto;html=1;exitX=0;exitY=0.5;exitDx=0;exitDy=0;entryX=0.5;entryY=0;entryDx=0;entryDy=0;entryPerimeter=0;" parent="1" source="A8wvUUDn1bnoPcl6TJQY-33" target="A8wvUUDn1bnoPcl6TJQY-19" edge="1">
          <mxGeometry relative="1" as="geometry">
            <mxPoint x="70" y="1532" as="sourcePoint" />
            <mxPoint x="100.25" y="1898" as="targetPoint" />
          </mxGeometry>
        </mxCell>
        <mxCell id="A8wvUUDn1bnoPcl6TJQY-17" value="Transfer&lt;br&gt;TONs" style="edgeLabel;html=1;align=center;verticalAlign=middle;resizable=0;points=[];" parent="A8wvUUDn1bnoPcl6TJQY-16" connectable="0" vertex="1">
          <mxGeometry x="-0.3741" y="3" relative="1" as="geometry">
            <mxPoint x="-5" y="-3" as="offset" />
          </mxGeometry>
        </mxCell>
        <mxCell id="A8wvUUDn1bnoPcl6TJQY-18" value="op::withdraw_collateralized" style="rounded=1;whiteSpace=wrap;html=1;" parent="1" vertex="1">
          <mxGeometry x="645" y="1540.5" width="150" height="60" as="geometry" />
        </mxCell>
        <mxCell id="A8wvUUDn1bnoPcl6TJQY-19" value="Recepient" style="shape=umlActor;verticalLabelPosition=bottom;verticalAlign=top;html=1;outlineConnect=0;" parent="1" vertex="1">
          <mxGeometry x="85.25" y="2068" width="30" height="60" as="geometry" />
        </mxCell>
        <mxCell id="A8wvUUDn1bnoPcl6TJQY-20" value="" style="edgeStyle=orthogonalEdgeStyle;rounded=0;orthogonalLoop=1;jettySize=auto;html=1;" parent="1" source="A8wvUUDn1bnoPcl6TJQY-21" target="A8wvUUDn1bnoPcl6TJQY-108" edge="1">
          <mxGeometry relative="1" as="geometry" />
        </mxCell>
        <mxCell id="A8wvUUDn1bnoPcl6TJQY-21" value="upgrade userSc" style="rounded=1;whiteSpace=wrap;html=1;" parent="1" vertex="1">
          <mxGeometry x="1146" y="1348.5" width="120" height="60" as="geometry" />
        </mxCell>
        <mxCell id="A8wvUUDn1bnoPcl6TJQY-22" value="Evaa master smart contract" style="text;html=1;align=center;verticalAlign=middle;resizable=0;points=[];autosize=1;strokeColor=none;fillColor=none;" parent="1" vertex="1">
          <mxGeometry x="-170" y="1290" width="170" height="30" as="geometry" />
        </mxCell>
        <mxCell id="A8wvUUDn1bnoPcl6TJQY-23" value="Evaa user wallet smart contract" style="text;html=1;align=center;verticalAlign=middle;resizable=0;points=[];autosize=1;strokeColor=none;fillColor=none;" parent="1" vertex="1">
          <mxGeometry x="830" y="1290" width="190" height="30" as="geometry" />
        </mxCell>
        <mxCell id="A8wvUUDn1bnoPcl6TJQY-26" style="edgeStyle=orthogonalEdgeStyle;rounded=0;orthogonalLoop=1;jettySize=auto;html=1;entryX=0.525;entryY=-0.075;entryDx=0;entryDy=0;entryPerimeter=0;" parent="1" target="A8wvUUDn1bnoPcl6TJQY-70" edge="1">
          <mxGeometry relative="1" as="geometry">
            <mxPoint x="412" y="1419.5" as="sourcePoint" />
            <mxPoint x="412" y="1459" as="targetPoint" />
          </mxGeometry>
        </mxCell>
        <mxCell id="A8wvUUDn1bnoPcl6TJQY-27" value="No" style="edgeLabel;html=1;align=center;verticalAlign=middle;resizable=0;points=[];" parent="A8wvUUDn1bnoPcl6TJQY-26" connectable="0" vertex="1">
          <mxGeometry x="0.4923" y="2" relative="1" as="geometry">
            <mxPoint as="offset" />
          </mxGeometry>
        </mxCell>
        <mxCell id="A8wvUUDn1bnoPcl6TJQY-28" style="edgeStyle=orthogonalEdgeStyle;rounded=0;orthogonalLoop=1;jettySize=auto;html=1;entryX=1;entryY=0.5;entryDx=0;entryDy=0;exitX=0.025;exitY=0.5;exitDx=0;exitDy=0;exitPerimeter=0;" parent="1" source="A8wvUUDn1bnoPcl6TJQY-111" target="A8wvUUDn1bnoPcl6TJQY-66" edge="1">
          <mxGeometry relative="1" as="geometry">
            <mxPoint x="1630" y="1571" as="sourcePoint" />
          </mxGeometry>
        </mxCell>
        <mxCell id="A8wvUUDn1bnoPcl6TJQY-29" value="Yes" style="edgeLabel;html=1;align=center;verticalAlign=middle;resizable=0;points=[];" parent="A8wvUUDn1bnoPcl6TJQY-28" connectable="0" vertex="1">
          <mxGeometry x="-0.88" y="1" relative="1" as="geometry">
            <mxPoint x="1" as="offset" />
          </mxGeometry>
        </mxCell>
        <mxCell id="A8wvUUDn1bnoPcl6TJQY-30" style="edgeStyle=orthogonalEdgeStyle;rounded=0;orthogonalLoop=1;jettySize=auto;html=1;exitX=0.492;exitY=1.019;exitDx=0;exitDy=0;exitPerimeter=0;" parent="1" source="A8wvUUDn1bnoPcl6TJQY-111" target="A8wvUUDn1bnoPcl6TJQY-55" edge="1">
          <mxGeometry relative="1" as="geometry">
            <mxPoint x="1704" y="1660" as="sourcePoint" />
            <mxPoint x="1780" y="1748" as="targetPoint" />
            <Array as="points">
              <mxPoint x="1704" y="1710" />
              <mxPoint x="1704" y="1710" />
            </Array>
          </mxGeometry>
        </mxCell>
        <mxCell id="A8wvUUDn1bnoPcl6TJQY-31" value="No" style="edgeLabel;html=1;align=center;verticalAlign=middle;resizable=0;points=[];" parent="A8wvUUDn1bnoPcl6TJQY-30" connectable="0" vertex="1">
          <mxGeometry x="-0.8337" y="2" relative="1" as="geometry">
            <mxPoint y="1" as="offset" />
          </mxGeometry>
        </mxCell>
        <mxCell id="A8wvUUDn1bnoPcl6TJQY-32" value="report withdraw_excess_message:&lt;div&gt;the op code is one of:&lt;br&gt;withdraw_not_collateralized_excess&lt;br&gt;withdraw_missing_prices_excess&lt;/div&gt;" style="edgeLabel;html=1;align=left;verticalAlign=middle;resizable=0;points=[];" parent="A8wvUUDn1bnoPcl6TJQY-30" connectable="0" vertex="1">
          <mxGeometry x="-0.3817" relative="1" as="geometry">
            <mxPoint x="-74" y="27" as="offset" />
          </mxGeometry>
        </mxCell>
        <mxCell id="A8wvUUDn1bnoPcl6TJQY-33" value="update total supply &amp;amp; total borrow" style="rounded=1;whiteSpace=wrap;html=1;" parent="1" vertex="1">
          <mxGeometry x="162.5" y="1541.5" width="115" height="59" as="geometry" />
        </mxCell>
        <mxCell id="A8wvUUDn1bnoPcl6TJQY-34" style="edgeStyle=orthogonalEdgeStyle;rounded=0;orthogonalLoop=1;jettySize=auto;html=1;exitX=0.483;exitY=0.994;exitDx=0;exitDy=0;entryX=0;entryY=0.5;entryDx=0;entryDy=0;exitPerimeter=0;" parent="1" source="A8wvUUDn1bnoPcl6TJQY-99" target="A8wvUUDn1bnoPcl6TJQY-38" edge="1">
          <mxGeometry relative="1" as="geometry">
            <Array as="points">
              <mxPoint x="380" y="1681" />
            </Array>
            <mxPoint x="403" y="1611" as="sourcePoint" />
            <mxPoint x="880" y="1670" as="targetPoint" />
          </mxGeometry>
        </mxCell>
        <mxCell id="A8wvUUDn1bnoPcl6TJQY-35" style="edgeStyle=orthogonalEdgeStyle;rounded=0;orthogonalLoop=1;jettySize=auto;html=1;exitX=1;exitY=0.5;exitDx=0;exitDy=0;" parent="1" source="A8wvUUDn1bnoPcl6TJQY-62" target="A8wvUUDn1bnoPcl6TJQY-55" edge="1">
          <mxGeometry relative="1" as="geometry">
            <Array as="points">
              <mxPoint x="1140" y="1678" />
              <mxPoint x="1400" y="1678" />
            </Array>
          </mxGeometry>
        </mxCell>
        <mxCell id="A8wvUUDn1bnoPcl6TJQY-36" value="report withdraw_excess_message&lt;div&gt;with op=withdraw_no_funds_excess&lt;br&gt;and query_id attached&lt;/div&gt;" style="edgeLabel;html=1;align=left;verticalAlign=middle;resizable=0;points=[];" parent="A8wvUUDn1bnoPcl6TJQY-35" connectable="0" vertex="1">
          <mxGeometry x="-0.4641" y="3" relative="1" as="geometry">
            <mxPoint x="-19" y="6" as="offset" />
          </mxGeometry>
        </mxCell>
        <mxCell id="A8wvUUDn1bnoPcl6TJQY-37" style="edgeStyle=orthogonalEdgeStyle;rounded=0;orthogonalLoop=1;jettySize=auto;html=1;entryX=0;entryY=0.5;entryDx=0;entryDy=0;" parent="1" source="A8wvUUDn1bnoPcl6TJQY-38" target="A8wvUUDn1bnoPcl6TJQY-62" edge="1">
          <mxGeometry relative="1" as="geometry" />
        </mxCell>
        <mxCell id="A8wvUUDn1bnoPcl6TJQY-38" value="op::withdraw_fail" style="rounded=1;whiteSpace=wrap;html=1;" parent="1" vertex="1">
          <mxGeometry x="850" y="1651" width="120" height="60" as="geometry" />
        </mxCell>
        <mxCell id="A8wvUUDn1bnoPcl6TJQY-39" style="edgeStyle=orthogonalEdgeStyle;rounded=0;orthogonalLoop=1;jettySize=auto;html=1;entryX=0;entryY=0.5;entryDx=0;entryDy=0;" parent="1" source="A8wvUUDn1bnoPcl6TJQY-40" target="A8wvUUDn1bnoPcl6TJQY-59" edge="1">
          <mxGeometry relative="1" as="geometry" />
        </mxCell>
        <mxCell id="A8wvUUDn1bnoPcl6TJQY-40" value="op::withdraw_success" style="rounded=1;whiteSpace=wrap;html=1;" parent="1" vertex="1">
          <mxGeometry x="850" y="1718" width="120" height="60" as="geometry" />
        </mxCell>
        <mxCell id="A8wvUUDn1bnoPcl6TJQY-41" style="edgeStyle=orthogonalEdgeStyle;rounded=0;orthogonalLoop=1;jettySize=auto;html=1;exitX=0.5;exitY=1;exitDx=0;exitDy=0;entryX=0;entryY=0.5;entryDx=0;entryDy=0;" parent="1" source="A8wvUUDn1bnoPcl6TJQY-33" target="A8wvUUDn1bnoPcl6TJQY-40" edge="1">
          <mxGeometry relative="1" as="geometry">
            <Array as="points">
              <mxPoint x="220" y="1748" />
            </Array>
            <mxPoint x="110" y="1599.92" as="sourcePoint" />
            <mxPoint x="752" y="1614.92" as="targetPoint" />
          </mxGeometry>
        </mxCell>
        <mxCell id="A8wvUUDn1bnoPcl6TJQY-42" style="edgeStyle=orthogonalEdgeStyle;rounded=0;orthogonalLoop=1;jettySize=auto;html=1;entryX=0;entryY=0.5;entryDx=0;entryDy=0;exitX=0.99;exitY=0.494;exitDx=0;exitDy=0;exitPerimeter=0;entryPerimeter=0;" parent="1" source="A8wvUUDn1bnoPcl6TJQY-75" target="A8wvUUDn1bnoPcl6TJQY-78" edge="1">
          <mxGeometry relative="1" as="geometry">
            <mxPoint x="181" y="1379.5" as="sourcePoint" />
            <mxPoint x="260" y="1379" as="targetPoint" />
          </mxGeometry>
        </mxCell>
        <mxCell id="A8wvUUDn1bnoPcl6TJQY-43" value="Yes" style="edgeLabel;html=1;align=center;verticalAlign=middle;resizable=0;points=[];" parent="A8wvUUDn1bnoPcl6TJQY-42" connectable="0" vertex="1">
          <mxGeometry x="-0.2593" relative="1" as="geometry">
            <mxPoint as="offset" />
          </mxGeometry>
        </mxCell>
        <mxCell id="A8wvUUDn1bnoPcl6TJQY-44" style="edgeStyle=orthogonalEdgeStyle;rounded=0;orthogonalLoop=1;jettySize=auto;html=1;entryX=0;entryY=0.5;entryDx=0;entryDy=0;" parent="1" source="A8wvUUDn1bnoPcl6TJQY-45" target="A8wvUUDn1bnoPcl6TJQY-11" edge="1">
          <mxGeometry relative="1" as="geometry" />
        </mxCell>
        <mxCell id="A8wvUUDn1bnoPcl6TJQY-45" value="update s/b-rates and tracking indexes" style="rounded=1;whiteSpace=wrap;html=1;" parent="1" vertex="1">
          <mxGeometry x="655" y="1349" width="140" height="60" as="geometry" />
        </mxCell>
        <mxCell id="A8wvUUDn1bnoPcl6TJQY-46" style="edgeStyle=orthogonalEdgeStyle;rounded=0;orthogonalLoop=1;jettySize=auto;html=1;entryX=0.017;entryY=0.488;entryDx=0;entryDy=0;entryPerimeter=0;" parent="1" source="A8wvUUDn1bnoPcl6TJQY-114" target="A8wvUUDn1bnoPcl6TJQY-110" edge="1">
          <mxGeometry relative="1" as="geometry">
            <mxPoint x="1740" y="1379.5" as="targetPoint" />
          </mxGeometry>
        </mxCell>
        <mxCell id="A8wvUUDn1bnoPcl6TJQY-47" style="edgeStyle=orthogonalEdgeStyle;rounded=0;orthogonalLoop=1;jettySize=auto;html=1;exitX=0.554;exitY=1.025;exitDx=0;exitDy=0;exitPerimeter=0;" parent="1" source="A8wvUUDn1bnoPcl6TJQY-109" target="A8wvUUDn1bnoPcl6TJQY-116" edge="1">
          <mxGeometry relative="1" as="geometry">
            <mxPoint x="1470" y="1420" as="sourcePoint" />
            <Array as="points">
              <mxPoint x="1509" y="1450" />
              <mxPoint x="1670" y="1450" />
            </Array>
          </mxGeometry>
        </mxCell>
        <mxCell id="A8wvUUDn1bnoPcl6TJQY-48" value="No" style="edgeLabel;html=1;align=center;verticalAlign=middle;resizable=0;points=[];" parent="A8wvUUDn1bnoPcl6TJQY-47" connectable="0" vertex="1">
          <mxGeometry x="-0.8993" y="-1" relative="1" as="geometry">
            <mxPoint as="offset" />
          </mxGeometry>
        </mxCell>
        <mxCell id="A8wvUUDn1bnoPcl6TJQY-49" style="edgeStyle=orthogonalEdgeStyle;rounded=0;orthogonalLoop=1;jettySize=auto;html=1;exitX=0.996;exitY=0.506;exitDx=0;exitDy=0;exitPerimeter=0;" parent="1" source="A8wvUUDn1bnoPcl6TJQY-110" target="A8wvUUDn1bnoPcl6TJQY-55" edge="1">
          <mxGeometry relative="1" as="geometry">
            <Array as="points">
              <mxPoint x="1910" y="1381" />
              <mxPoint x="1910" y="1748" />
            </Array>
            <mxPoint x="1870" y="1380" as="sourcePoint" />
          </mxGeometry>
        </mxCell>
        <mxCell id="A8wvUUDn1bnoPcl6TJQY-50" value="report withdraw_excess_message&lt;div&gt;op=withdraw_missing_prices_excess&lt;/div&gt;&lt;div&gt;query_id attached&lt;/div&gt;" style="edgeLabel;html=1;align=left;verticalAlign=middle;resizable=0;points=[];" parent="A8wvUUDn1bnoPcl6TJQY-49" connectable="0" vertex="1">
          <mxGeometry x="0.257" y="2" relative="1" as="geometry">
            <mxPoint x="-92" y="-66" as="offset" />
          </mxGeometry>
        </mxCell>
        <mxCell id="A8wvUUDn1bnoPcl6TJQY-51" value="No" style="edgeLabel;html=1;align=center;verticalAlign=middle;resizable=0;points=[];" parent="A8wvUUDn1bnoPcl6TJQY-49" connectable="0" vertex="1">
          <mxGeometry x="-0.9054" y="1" relative="1" as="geometry">
            <mxPoint x="-6" as="offset" />
          </mxGeometry>
        </mxCell>
        <mxCell id="A8wvUUDn1bnoPcl6TJQY-52" style="edgeStyle=orthogonalEdgeStyle;rounded=0;orthogonalLoop=1;jettySize=auto;html=1;entryX=0.492;entryY=0.019;entryDx=0;entryDy=0;exitX=0.009;exitY=0.543;exitDx=0;exitDy=0;exitPerimeter=0;entryPerimeter=0;" parent="1" source="A8wvUUDn1bnoPcl6TJQY-116" target="A8wvUUDn1bnoPcl6TJQY-111" edge="1">
          <mxGeometry relative="1" as="geometry">
            <mxPoint x="1707" y="1470" as="sourcePoint" />
            <mxPoint x="1704" y="1530.5" as="targetPoint" />
            <Array as="points">
              <mxPoint x="1704" y="1489" />
            </Array>
          </mxGeometry>
        </mxCell>
        <mxCell id="A8wvUUDn1bnoPcl6TJQY-53" style="edgeStyle=orthogonalEdgeStyle;rounded=0;orthogonalLoop=1;jettySize=auto;html=1;curved=0;entryX=0.5;entryY=0.5;entryDx=0;entryDy=0;entryPerimeter=0;" parent="1" source="A8wvUUDn1bnoPcl6TJQY-55" target="A8wvUUDn1bnoPcl6TJQY-19" edge="1">
          <mxGeometry relative="1" as="geometry">
            <mxPoint x="-160" y="1650" as="targetPoint" />
            <Array as="points">
              <mxPoint x="1597" y="2098" />
            </Array>
          </mxGeometry>
        </mxCell>
        <mxCell id="A8wvUUDn1bnoPcl6TJQY-54" value="TON excesses" style="edgeLabel;html=1;align=center;verticalAlign=middle;resizable=0;points=[];" parent="A8wvUUDn1bnoPcl6TJQY-53" connectable="0" vertex="1">
          <mxGeometry x="-0.8131" y="4" relative="1" as="geometry">
            <mxPoint as="offset" />
          </mxGeometry>
        </mxCell>
        <mxCell id="A8wvUUDn1bnoPcl6TJQY-55" value="" style="html=1;points=[[0,0,0,0,5],[0,1,0,0,-5],[1,0,0,0,5],[1,1,0,0,-5]];perimeter=orthogonalPerimeter;outlineConnect=0;targetShapes=umlLifeline;portConstraint=eastwest;newEdgeStyle={&quot;curved&quot;:0,&quot;rounded&quot;:0};direction=south;" parent="1" vertex="1">
          <mxGeometry x="1383" y="1743" width="427" height="10" as="geometry" />
        </mxCell>
        <mxCell id="A8wvUUDn1bnoPcl6TJQY-56" value="" style="edgeStyle=none;curved=1;rounded=0;orthogonalLoop=1;jettySize=auto;html=1;entryX=0.996;entryY=0.488;entryDx=0;entryDy=0;fontSize=12;startSize=8;endSize=8;entryPerimeter=0;" parent="1" source="A8wvUUDn1bnoPcl6TJQY-18" target="A8wvUUDn1bnoPcl6TJQY-102" edge="1">
          <mxGeometry relative="1" as="geometry">
            <mxPoint x="600" y="1571" as="sourcePoint" />
            <mxPoint x="565" y="1571" as="targetPoint" />
          </mxGeometry>
        </mxCell>
        <mxCell id="A8wvUUDn1bnoPcl6TJQY-57" style="edgeStyle=orthogonalEdgeStyle;rounded=0;orthogonalLoop=1;jettySize=auto;html=1;" parent="1" source="A8wvUUDn1bnoPcl6TJQY-59" target="A8wvUUDn1bnoPcl6TJQY-55" edge="1">
          <mxGeometry relative="1" as="geometry">
            <Array as="points">
              <mxPoint x="1350" y="1748" />
              <mxPoint x="1350" y="1748" />
            </Array>
          </mxGeometry>
        </mxCell>
        <mxCell id="A8wvUUDn1bnoPcl6TJQY-58" value="report withdraw success&lt;div&gt;with msg=&quot;EVAA withdraw&quot;&lt;br&gt;and op=0&lt;/div&gt;" style="edgeLabel;html=1;align=left;verticalAlign=middle;resizable=0;points=[];" parent="A8wvUUDn1bnoPcl6TJQY-57" connectable="0" vertex="1">
          <mxGeometry x="-0.0409" y="-3" relative="1" as="geometry">
            <mxPoint x="-51" y="-4" as="offset" />
          </mxGeometry>
        </mxCell>
        <mxCell id="A8wvUUDn1bnoPcl6TJQY-59" value="update tracking indexes" style="rounded=1;whiteSpace=wrap;html=1;" parent="1" vertex="1">
          <mxGeometry x="1020" y="1718" width="120" height="60" as="geometry" />
        </mxCell>
        <mxCell id="A8wvUUDn1bnoPcl6TJQY-62" value="revert user principal" style="rounded=1;whiteSpace=wrap;html=1;" parent="1" vertex="1">
          <mxGeometry x="1020" y="1651" width="120" height="60" as="geometry" />
        </mxCell>
        <mxCell id="A8wvUUDn1bnoPcl6TJQY-63" style="edgeStyle=orthogonalEdgeStyle;rounded=0;orthogonalLoop=1;jettySize=auto;html=1;exitX=0.5;exitY=1;exitDx=0;exitDy=0;" parent="1" source="A8wvUUDn1bnoPcl6TJQY-96" target="A8wvUUDn1bnoPcl6TJQY-55" edge="1">
          <mxGeometry relative="1" as="geometry">
            <mxPoint x="1174" y="1542" as="sourcePoint" />
            <mxPoint x="1490" y="1740" as="targetPoint" />
            <Array as="points">
              <mxPoint x="1148" y="1530" />
              <mxPoint x="1480" y="1530" />
            </Array>
          </mxGeometry>
        </mxCell>
        <mxCell id="A8wvUUDn1bnoPcl6TJQY-64" value="when caught an exception:&lt;div&gt;report withdraw_excess_message&lt;br&gt;with op=withdraw_execution_crashed&lt;br&gt;and query_id attached&lt;/div&gt;" style="edgeLabel;html=1;align=left;verticalAlign=middle;resizable=0;points=[];" parent="A8wvUUDn1bnoPcl6TJQY-63" connectable="0" vertex="1">
          <mxGeometry x="-0.3266" y="1" relative="1" as="geometry">
            <mxPoint x="-95" y="2" as="offset" />
          </mxGeometry>
        </mxCell>
        <mxCell id="A8wvUUDn1bnoPcl6TJQY-65" style="edgeStyle=orthogonalEdgeStyle;rounded=0;orthogonalLoop=1;jettySize=auto;html=1;entryX=1;entryY=0.5;entryDx=0;entryDy=0;" parent="1" source="A8wvUUDn1bnoPcl6TJQY-66" target="A8wvUUDn1bnoPcl6TJQY-18" edge="1">
          <mxGeometry relative="1" as="geometry" />
        </mxCell>
        <mxCell id="A8wvUUDn1bnoPcl6TJQY-66" value="update user principal &amp;amp; set user locked" style="rounded=1;whiteSpace=wrap;html=1;strokeColor=#006600;" parent="1" vertex="1">
          <mxGeometry x="1020" y="1540.5" width="120" height="60" as="geometry" />
        </mxCell>
        <mxCell id="A8wvUUDn1bnoPcl6TJQY-68" style="vsdxID=11;fillColor=#f8cecc;gradientColor=none;shape=stencil(vVLBDoMgDP0ajiwIM9nduf8gE5WMials6t8PU+JE3Q477Nb2vb6+UojIulq2inDWObA31evC1UScCee6qRVo5yMiciKy0oKqwD6aAvNWTswputvnpDBgH5s6OBsxSzG9IFPC1UMQmDxFKoxxHuCE7UqxgcpBdxSsk07bJppqJFSK+jG0NLIKOgh1vVLtovy7sf/Z8sH7mUttDF5pxj/dIDke0sjkXAiNRjcL+ild0efCZU99Q/+uvjGzVo+2XG3og/XH8yX8tCJ/AQ==);strokeColor=#b85450;spacingTop=-3;spacingBottom=-3;spacingLeft=-3;spacingRight=-3;points=[];labelBackgroundColor=none;rounded=0;html=1;whiteSpace=wrap;" parent="1" vertex="1">
          <mxGeometry x="535" y="1459" width="20" height="20" as="geometry" />
        </mxCell>
        <mxCell id="A8wvUUDn1bnoPcl6TJQY-69" style="vsdxID=11;fillColor=#f8cecc;gradientColor=none;shape=stencil(vVLBDoMgDP0ajiwIM9nduf8gE5WMials6t8PU+JE3Q477Nb2vb6+UojIulq2inDWObA31evC1UScCee6qRVo5yMiciKy0oKqwD6aAvNWTswputvnpDBgH5s6OBsxSzG9IFPC1UMQmDxFKoxxHuCE7UqxgcpBdxSsk07bJppqJFSK+jG0NLIKOgh1vVLtovy7sf/Z8sH7mUttDF5pxj/dIDke0sjkXAiNRjcL+ild0efCZU99Q/+uvjGzVo+2XG3og/XH8yX8tCJ/AQ==);strokeColor=#b85450;spacingTop=-3;spacingBottom=-3;spacingLeft=-3;spacingRight=-3;points=[];labelBackgroundColor=none;rounded=0;html=1;whiteSpace=wrap;" parent="1" vertex="1">
          <mxGeometry x="535" y="1651" width="20" height="20" as="geometry" />
        </mxCell>
        <mxCell id="A8wvUUDn1bnoPcl6TJQY-70" style="vsdxID=11;fillColor=#f8cecc;gradientColor=none;shape=stencil(vVLBDoMgDP0ajiwIM9nduf8gE5WMials6t8PU+JE3Q477Nb2vb6+UojIulq2inDWObA31evC1UScCee6qRVo5yMiciKy0oKqwD6aAvNWTswputvnpDBgH5s6OBsxSzG9IFPC1UMQmDxFKoxxHuCE7UqxgcpBdxSsk07bJppqJFSK+jG0NLIKOgh1vVLtovy7sf/Z8sH7mUttDF5pxj/dIDke0sjkXAiNRjcL+ild0efCZU99Q/+uvjGzVo+2XG3og/XH8yX8tCJ/AQ==);strokeColor=#b85450;spacingTop=-3;spacingBottom=-3;spacingLeft=-3;spacingRight=-3;points=[];labelBackgroundColor=none;rounded=0;html=1;whiteSpace=wrap;" parent="1" vertex="1">
          <mxGeometry x="372" y="1459" width="20" height="20" as="geometry" />
        </mxCell>
        <mxCell id="A8wvUUDn1bnoPcl6TJQY-71" style="vsdxID=11;fillColor=#f8cecc;gradientColor=none;shape=stencil(vVLBDoMgDP0ajiwIM9nduf8gE5WMials6t8PU+JE3Q477Nb2vb6+UojIulq2inDWObA31evC1UScCee6qRVo5yMiciKy0oKqwD6aAvNWTswputvnpDBgH5s6OBsxSzG9IFPC1UMQmDxFKoxxHuCE7UqxgcpBdxSsk07bJppqJFSK+jG0NLIKOgh1vVLtovy7sf/Z8sH7mUttDF5pxj/dIDke0sjkXAiNRjcL+ild0efCZU99Q/+uvjGzVo+2XG3og/XH8yX8tCJ/AQ==);strokeColor=#b85450;spacingTop=-3;spacingBottom=-3;spacingLeft=-3;spacingRight=-3;points=[];labelBackgroundColor=none;rounded=0;html=1;whiteSpace=wrap;" parent="1" vertex="1">
          <mxGeometry x="210" y="1459" width="20" height="20" as="geometry" />
        </mxCell>
        <mxCell id="A8wvUUDn1bnoPcl6TJQY-72" style="vsdxID=11;fillColor=#f8cecc;gradientColor=none;shape=stencil(vVLBDoMgDP0ajiwIM9nduf8gE5WMials6t8PU+JE3Q477Nb2vb6+UojIulq2inDWObA31evC1UScCee6qRVo5yMiciKy0oKqwD6aAvNWTswputvnpDBgH5s6OBsxSzG9IFPC1UMQmDxFKoxxHuCE7UqxgcpBdxSsk07bJppqJFSK+jG0NLIKOgh1vVLtovy7sf/Z8sH7mUttDF5pxj/dIDke0sjkXAiNRjcL+ild0efCZU99Q/+uvjGzVo+2XG3og/XH8yX8tCJ/AQ==);strokeColor=#b85450;spacingTop=-3;spacingBottom=-3;spacingLeft=-3;spacingRight=-3;points=[];labelBackgroundColor=none;rounded=0;html=1;whiteSpace=wrap;" parent="1" vertex="1">
          <mxGeometry x="50" y="1459" width="20" height="20" as="geometry" />
        </mxCell>
        <mxCell id="A8wvUUDn1bnoPcl6TJQY-75" value="&lt;div style=&quot;&quot;&gt;&lt;span style=&quot;font-size: 11.64px;&quot;&gt;Is valid recepient?&lt;/span&gt;&lt;/div&gt;" style="verticalAlign=middle;align=center;overflow=width;vsdxID=9;fillColor=#ffffff;gradientColor=none;shape=stencil(lZHdCsIwDIWfJvcxYfgAc77HYJ0N1nZ09Wdvb2sQp4jUu3PS74RyAtzOtp8MEM4phqO5ypAs8A6IxFsTJWUF3AG3Y4jmEMPZD+qnvpBFncKlbLhpjpoSIVzU4sPtlXTiV+S2mtwgvqFN/dZn9CtLf7D1P/jVQBav4kZxTntfv38WnUd6JO7u);strokeColor=#000000;spacingTop=-3;spacingBottom=-3;spacingLeft=-3;spacingRight=-3;points=[];labelBackgroundColor=none;rounded=0;html=1;whiteSpace=wrap;" parent="1" vertex="1">
          <mxGeometry y="1338.5" width="120" height="80" as="geometry" />
        </mxCell>
        <mxCell id="A8wvUUDn1bnoPcl6TJQY-76" style="edgeStyle=orthogonalEdgeStyle;rounded=0;orthogonalLoop=1;jettySize=auto;html=1;entryX=0.5;entryY=0.05;entryDx=0;entryDy=0;entryPerimeter=0;" parent="1" source="A8wvUUDn1bnoPcl6TJQY-75" target="A8wvUUDn1bnoPcl6TJQY-72" edge="1">
          <mxGeometry relative="1" as="geometry" />
        </mxCell>
        <mxCell id="A8wvUUDn1bnoPcl6TJQY-77" value="No" style="edgeLabel;html=1;align=center;verticalAlign=middle;resizable=0;points=[];" parent="A8wvUUDn1bnoPcl6TJQY-76" connectable="0" vertex="1">
          <mxGeometry x="-0.1566" y="2" relative="1" as="geometry">
            <mxPoint as="offset" />
          </mxGeometry>
        </mxCell>
        <mxCell id="A8wvUUDn1bnoPcl6TJQY-78" value="&lt;span style=&quot;color: rgb(0, 0, 0); font-family: Helvetica; font-size: 12px; font-style: normal; font-variant-ligatures: normal; font-variant-caps: normal; font-weight: 400; letter-spacing: normal; orphans: 2; text-align: center; text-indent: 0px; text-transform: none; widows: 2; word-spacing: 0px; -webkit-text-stroke-width: 0px; white-space: normal; background-color: rgb(251, 251, 251); text-decoration-thickness: initial; text-decoration-style: initial; text-decoration-color: initial; display: inline !important; float: none;&quot;&gt;is valid custom responce payload?&lt;/span&gt;" style="verticalAlign=middle;align=center;overflow=width;vsdxID=9;fillColor=#ffffff;gradientColor=none;shape=stencil(lZHdCsIwDIWfJvcxYfgAc77HYJ0N1nZ09Wdvb2sQp4jUu3PS74RyAtzOtp8MEM4phqO5ypAs8A6IxFsTJWUF3AG3Y4jmEMPZD+qnvpBFncKlbLhpjpoSIVzU4sPtlXTiV+S2mtwgvqFN/dZn9CtLf7D1P/jVQBav4kZxTntfv38WnUd6JO7u);strokeColor=#000000;spacingTop=-3;spacingBottom=-3;spacingLeft=-3;spacingRight=-3;points=[];labelBackgroundColor=none;rounded=0;html=1;whiteSpace=wrap;" parent="1" vertex="1">
          <mxGeometry x="160" y="1338.5" width="120" height="80" as="geometry" />
        </mxCell>
        <mxCell id="A8wvUUDn1bnoPcl6TJQY-79" value="Is pricefeed correct&lt;div&gt;or no pricefeed?&lt;/div&gt;" style="verticalAlign=middle;align=center;overflow=width;vsdxID=9;fillColor=#ffffff;gradientColor=none;shape=stencil(lZHdCsIwDIWfJvcxYfgAc77HYJ0N1nZ09Wdvb2sQp4jUu3PS74RyAtzOtp8MEM4phqO5ypAs8A6IxFsTJWUF3AG3Y4jmEMPZD+qnvpBFncKlbLhpjpoSIVzU4sPtlXTiV+S2mtwgvqFN/dZn9CtLf7D1P/jVQBav4kZxTntfv38WnUd6JO7u);strokeColor=#000000;spacingTop=-3;spacingBottom=-3;spacingLeft=-3;spacingRight=-3;points=[];labelBackgroundColor=none;rounded=0;html=1;whiteSpace=wrap;" parent="1" vertex="1">
          <mxGeometry x="322" y="1339.5" width="120" height="80" as="geometry" />
        </mxCell>
        <mxCell id="A8wvUUDn1bnoPcl6TJQY-80" value="EVAA" style="verticalAlign=middle;align=center;overflow=width;vsdxID=9;fillColor=#ffffff;gradientColor=none;shape=stencil(lZHdCsIwDIWfJvcxYfgAc77HYJ0N1nZ09Wdvb2sQp4jUu3PS74RyAtzOtp8MEM4phqO5ypAs8A6IxFsTJWUF3AG3Y4jmEMPZD+qnvpBFncKlbLhpjpoSIVzU4sPtlXTiV+S2mtwgvqFN/dZn9CtLf7D1P/jVQBav4kZxTntfv38WnUd6JO7u);strokeColor=#000000;spacingTop=-3;spacingBottom=-3;spacingLeft=-3;spacingRight=-3;points=[];labelBackgroundColor=none;rounded=0;html=1;whiteSpace=wrap;" parent="1" vertex="1">
          <mxGeometry x="948" y="1917.5" width="120" height="80" as="geometry" />
        </mxCell>
        <mxCell id="A8wvUUDn1bnoPcl6TJQY-81" value="Need" style="verticalAlign=middle;align=center;overflow=width;vsdxID=9;fillColor=#ffffff;gradientColor=none;shape=stencil(lZHdCsIwDIWfJvcxYfgAc77HYJ0N1nZ09Wdvb2sQp4jUu3PS74RyAtzOtp8MEM4phqO5ypAs8A6IxFsTJWUF3AG3Y4jmEMPZD+qnvpBFncKlbLhpjpoSIVzU4sPtlXTiV+S2mtwgvqFN/dZn9CtLf7D1P/jVQBav4kZxTntfv38WnUd6JO7u);strokeColor=#000000;spacingTop=-3;spacingBottom=-3;spacingLeft=-3;spacingRight=-3;points=[];labelBackgroundColor=none;rounded=0;html=1;whiteSpace=wrap;" parent="1" vertex="1">
          <mxGeometry x="752" y="1917.5" width="120" height="80" as="geometry" />
        </mxCell>
        <mxCell id="A8wvUUDn1bnoPcl6TJQY-82" value="You" style="verticalAlign=middle;align=center;overflow=width;vsdxID=9;fillColor=#ffffff;gradientColor=none;shape=stencil(lZHdCsIwDIWfJvcxYfgAc77HYJ0N1nZ09Wdvb2sQp4jUu3PS74RyAtzOtp8MEM4phqO5ypAs8A6IxFsTJWUF3AG3Y4jmEMPZD+qnvpBFncKlbLhpjpoSIVzU4sPtlXTiV+S2mtwgvqFN/dZn9CtLf7D1P/jVQBav4kZxTntfv38WnUd6JO7u);strokeColor=#000000;spacingTop=-3;spacingBottom=-3;spacingLeft=-3;spacingRight=-3;points=[];labelBackgroundColor=none;rounded=0;html=1;whiteSpace=wrap;" parent="1" vertex="1">
          <mxGeometry x="653" y="1878.5" width="120" height="80" as="geometry" />
        </mxCell>
        <mxCell id="A8wvUUDn1bnoPcl6TJQY-83" value="Is" style="verticalAlign=middle;align=center;overflow=width;vsdxID=9;fillColor=#ffffff;gradientColor=none;shape=stencil(lZHdCsIwDIWfJvcxYfgAc77HYJ0N1nZ09Wdvb2sQp4jUu3PS74RyAtzOtp8MEM4phqO5ypAs8A6IxFsTJWUF3AG3Y4jmEMPZD+qnvpBFncKlbLhpjpoSIVzU4sPtlXTiV+S2mtwgvqFN/dZn9CtLf7D1P/jVQBav4kZxTntfv38WnUd6JO7u);strokeColor=#000000;spacingTop=-3;spacingBottom=-3;spacingLeft=-3;spacingRight=-3;points=[];labelBackgroundColor=none;rounded=0;html=1;whiteSpace=wrap;" parent="1" vertex="1">
          <mxGeometry x="850" y="1877.5" width="120" height="80" as="geometry" />
        </mxCell>
        <mxCell id="A8wvUUDn1bnoPcl6TJQY-84" style="edgeStyle=orthogonalEdgeStyle;rounded=0;orthogonalLoop=1;jettySize=auto;html=1;entryX=0;entryY=0.5;entryDx=0;entryDy=0;" parent="1" source="A8wvUUDn1bnoPcl6TJQY-86" target="A8wvUUDn1bnoPcl6TJQY-45" edge="1">
          <mxGeometry relative="1" as="geometry" />
        </mxCell>
        <mxCell id="A8wvUUDn1bnoPcl6TJQY-85" value="Yes" style="edgeLabel;html=1;align=center;verticalAlign=middle;resizable=0;points=[];" parent="A8wvUUDn1bnoPcl6TJQY-84" connectable="0" vertex="1">
          <mxGeometry x="-0.168" y="3" relative="1" as="geometry">
            <mxPoint y="1" as="offset" />
          </mxGeometry>
        </mxCell>
        <mxCell id="A8wvUUDn1bnoPcl6TJQY-86" value="Enough to cover&amp;nbsp;&lt;div&gt;gas fees?&lt;/div&gt;" style="verticalAlign=middle;align=center;overflow=width;vsdxID=9;fillColor=#ffffff;gradientColor=none;shape=stencil(lZHdCsIwDIWfJvcxYfgAc77HYJ0N1nZ09Wdvb2sQp4jUu3PS74RyAtzOtp8MEM4phqO5ypAs8A6IxFsTJWUF3AG3Y4jmEMPZD+qnvpBFncKlbLhpjpoSIVzU4sPtlXTiV+S2mtwgvqFN/dZn9CtLf7D1P/jVQBav4kZxTntfv38WnUd6JO7u);strokeColor=#000000;spacingTop=-3;spacingBottom=-3;spacingLeft=-3;spacingRight=-3;points=[];labelBackgroundColor=none;rounded=0;html=1;whiteSpace=wrap;" parent="1" vertex="1">
          <mxGeometry x="485" y="1338.5" width="120" height="80" as="geometry" />
        </mxCell>
        <mxCell id="A8wvUUDn1bnoPcl6TJQY-87" value="All" style="verticalAlign=middle;align=center;overflow=width;vsdxID=9;fillColor=#ffffff;gradientColor=none;shape=stencil(lZHdCsIwDIWfJvcxYfgAc77HYJ0N1nZ09Wdvb2sQp4jUu3PS74RyAtzOtp8MEM4phqO5ypAs8A6IxFsTJWUF3AG3Y4jmEMPZD+qnvpBFncKlbLhpjpoSIVzU4sPtlXTiV+S2mtwgvqFN/dZn9CtLf7D1P/jVQBav4kZxTntfv38WnUd6JO7u);strokeColor=#000000;spacingTop=-3;spacingBottom=-3;spacingLeft=-3;spacingRight=-3;points=[];labelBackgroundColor=none;rounded=0;html=1;whiteSpace=wrap;" parent="1" vertex="1">
          <mxGeometry x="555" y="1919.5" width="120" height="80" as="geometry" />
        </mxCell>
        <mxCell id="A8wvUUDn1bnoPcl6TJQY-88" style="edgeStyle=orthogonalEdgeStyle;rounded=0;orthogonalLoop=1;jettySize=auto;html=1;entryX=0.525;entryY=0;entryDx=0;entryDy=0;entryPerimeter=0;" parent="1" source="A8wvUUDn1bnoPcl6TJQY-78" target="A8wvUUDn1bnoPcl6TJQY-71" edge="1">
          <mxGeometry relative="1" as="geometry" />
        </mxCell>
        <mxCell id="A8wvUUDn1bnoPcl6TJQY-89" value="No" style="edgeLabel;html=1;align=center;verticalAlign=middle;resizable=0;points=[];" parent="A8wvUUDn1bnoPcl6TJQY-88" connectable="0" vertex="1">
          <mxGeometry x="-0.1951" y="-3" relative="1" as="geometry">
            <mxPoint as="offset" />
          </mxGeometry>
        </mxCell>
        <mxCell id="A8wvUUDn1bnoPcl6TJQY-90" style="edgeStyle=orthogonalEdgeStyle;rounded=0;orthogonalLoop=1;jettySize=auto;html=1;entryX=0.021;entryY=0.488;entryDx=0;entryDy=0;entryPerimeter=0;" parent="1" source="A8wvUUDn1bnoPcl6TJQY-78" target="A8wvUUDn1bnoPcl6TJQY-79" edge="1">
          <mxGeometry relative="1" as="geometry" />
        </mxCell>
        <mxCell id="A8wvUUDn1bnoPcl6TJQY-91" value="Yes" style="edgeLabel;html=1;align=center;verticalAlign=middle;resizable=0;points=[];" parent="A8wvUUDn1bnoPcl6TJQY-90" connectable="0" vertex="1">
          <mxGeometry x="-0.1015" relative="1" as="geometry">
            <mxPoint as="offset" />
          </mxGeometry>
        </mxCell>
        <mxCell id="A8wvUUDn1bnoPcl6TJQY-92" style="edgeStyle=orthogonalEdgeStyle;rounded=0;orthogonalLoop=1;jettySize=auto;html=1;entryX=0.025;entryY=0.506;entryDx=0;entryDy=0;entryPerimeter=0;" parent="1" source="A8wvUUDn1bnoPcl6TJQY-79" target="A8wvUUDn1bnoPcl6TJQY-86" edge="1">
          <mxGeometry relative="1" as="geometry" />
        </mxCell>
        <mxCell id="A8wvUUDn1bnoPcl6TJQY-93" value="Yes&lt;div&gt;&lt;br&gt;&lt;/div&gt;" style="edgeLabel;html=1;align=center;verticalAlign=middle;resizable=0;points=[];" parent="A8wvUUDn1bnoPcl6TJQY-92" connectable="0" vertex="1">
          <mxGeometry x="-0.0361" y="-2" relative="1" as="geometry">
            <mxPoint x="-2" y="3" as="offset" />
          </mxGeometry>
        </mxCell>
        <mxCell id="A8wvUUDn1bnoPcl6TJQY-94" style="edgeStyle=orthogonalEdgeStyle;rounded=0;orthogonalLoop=1;jettySize=auto;html=1;entryX=0.5;entryY=0.05;entryDx=0;entryDy=0;entryPerimeter=0;" parent="1" source="A8wvUUDn1bnoPcl6TJQY-86" target="A8wvUUDn1bnoPcl6TJQY-68" edge="1">
          <mxGeometry relative="1" as="geometry" />
        </mxCell>
        <mxCell id="A8wvUUDn1bnoPcl6TJQY-95" value="No" style="edgeLabel;html=1;align=center;verticalAlign=middle;resizable=0;points=[];" parent="A8wvUUDn1bnoPcl6TJQY-94" connectable="0" vertex="1">
          <mxGeometry x="-0.0602" y="1" relative="1" as="geometry">
            <mxPoint as="offset" />
          </mxGeometry>
        </mxCell>
        <mxCell id="A8wvUUDn1bnoPcl6TJQY-96" style="ellipse;whiteSpace=wrap;html=1;aspect=fixed;&#xa;&#xa;vsdxID=11;fillColor=#f8cecc;gradientColor=none;shape=stencil(vVLBDoMgDP0ajiwIM9nduf8gE5WMials6t8PU+JE3Q477Nb2vb6+UojIulq2inDWObA31evC1UScCee6qRVo5yMiciKy0oKqwD6aAvNWTswputvnpDBgH5s6OBsxSzG9IFPC1UMQmDxFKoxxHuCE7UqxgcpBdxSsk07bJppqJFSK+jG0NLIKOgh1vVLtovy7sf/Z8sH7mUttDF5pxj/dIDke0sjkXAiNRjcL+ild0efCZU99Q/+uvjGzVo+2XG3og/XH8yX8tCJ/AQ==);strokeColor=#b85450;spacingTop=-3;spacingBottom=-3;spacingLeft=-3;spacingRight=-3;points=[];labelBackgroundColor=none;rounded=0;html=1;whiteSpace=wrap;" parent="1" vertex="1">
          <mxGeometry x="1138" y="1479" width="20" height="20" as="geometry" />
        </mxCell>
        <mxCell id="A8wvUUDn1bnoPcl6TJQY-97" value="" style="edgeStyle=orthogonalEdgeStyle;rounded=0;orthogonalLoop=1;jettySize=auto;html=1;" parent="1" source="A8wvUUDn1bnoPcl6TJQY-99" target="A8wvUUDn1bnoPcl6TJQY-33" edge="1">
          <mxGeometry relative="1" as="geometry" />
        </mxCell>
        <mxCell id="A8wvUUDn1bnoPcl6TJQY-98" value="Yes" style="edgeLabel;html=1;align=center;verticalAlign=middle;resizable=0;points=[];" parent="A8wvUUDn1bnoPcl6TJQY-97" connectable="0" vertex="1">
          <mxGeometry x="0.4622" relative="1" as="geometry">
            <mxPoint x="11" y="-1" as="offset" />
          </mxGeometry>
        </mxCell>
        <mxCell id="A8wvUUDn1bnoPcl6TJQY-99" value="Is enough liquidity?" style="verticalAlign=middle;align=center;overflow=width;vsdxID=9;fillColor=#ffffff;gradientColor=none;shape=stencil(lZHdCsIwDIWfJvcxYfgAc77HYJ0N1nZ09Wdvb2sQp4jUu3PS74RyAtzOtp8MEM4phqO5ypAs8A6IxFsTJWUF3AG3Y4jmEMPZD+qnvpBFncKlbLhpjpoSIVzU4sPtlXTiV+S2mtwgvqFN/dZn9CtLf7D1P/jVQBav4kZxTntfv38WnUd6JO7u);strokeColor=#000000;spacingTop=-3;spacingBottom=-3;spacingLeft=-3;spacingRight=-3;points=[];labelBackgroundColor=none;rounded=0;html=1;whiteSpace=wrap;" parent="1" vertex="1">
          <mxGeometry x="322" y="1530.5" width="120" height="80" as="geometry" />
        </mxCell>
        <mxCell id="A8wvUUDn1bnoPcl6TJQY-100" value="" style="edgeStyle=orthogonalEdgeStyle;rounded=0;orthogonalLoop=1;jettySize=auto;html=1;" parent="1" source="A8wvUUDn1bnoPcl6TJQY-102" target="A8wvUUDn1bnoPcl6TJQY-99" edge="1">
          <mxGeometry relative="1" as="geometry" />
        </mxCell>
        <mxCell id="A8wvUUDn1bnoPcl6TJQY-101" value="Yes" style="edgeLabel;html=1;align=center;verticalAlign=middle;resizable=0;points=[];" parent="A8wvUUDn1bnoPcl6TJQY-100" connectable="0" vertex="1">
          <mxGeometry y="2" relative="1" as="geometry">
            <mxPoint x="1" y="-2" as="offset" />
          </mxGeometry>
        </mxCell>
        <mxCell id="A8wvUUDn1bnoPcl6TJQY-102" value="Is valid sender?" style="verticalAlign=middle;align=center;overflow=width;vsdxID=9;fillColor=#ffffff;gradientColor=none;shape=stencil(lZHdCsIwDIWfJvcxYfgAc77HYJ0N1nZ09Wdvb2sQp4jUu3PS74RyAtzOtp8MEM4phqO5ypAs8A6IxFsTJWUF3AG3Y4jmEMPZD+qnvpBFncKlbLhpjpoSIVzU4sPtlXTiV+S2mtwgvqFN/dZn9CtLf7D1P/jVQBav4kZxTntfv38WnUd6JO7u);strokeColor=#000000;spacingTop=-3;spacingBottom=-3;spacingLeft=-3;spacingRight=-3;points=[];labelBackgroundColor=none;rounded=0;html=1;whiteSpace=wrap;" parent="1" vertex="1">
          <mxGeometry x="485" y="1530.5" width="120" height="80" as="geometry" />
        </mxCell>
        <mxCell id="A8wvUUDn1bnoPcl6TJQY-103" style="edgeStyle=orthogonalEdgeStyle;rounded=0;orthogonalLoop=1;jettySize=auto;html=1;entryX=0.5;entryY=-0.05;entryDx=0;entryDy=0;entryPerimeter=0;" parent="1" source="A8wvUUDn1bnoPcl6TJQY-102" target="A8wvUUDn1bnoPcl6TJQY-69" edge="1">
          <mxGeometry relative="1" as="geometry" />
        </mxCell>
        <mxCell id="A8wvUUDn1bnoPcl6TJQY-104" value="No" style="edgeLabel;html=1;align=center;verticalAlign=middle;resizable=0;points=[];" parent="A8wvUUDn1bnoPcl6TJQY-103" connectable="0" vertex="1">
          <mxGeometry x="0.2727" relative="1" as="geometry">
            <mxPoint y="-9" as="offset" />
          </mxGeometry>
        </mxCell>
        <mxCell id="A8wvUUDn1bnoPcl6TJQY-105" value="" style="edgeStyle=orthogonalEdgeStyle;rounded=0;orthogonalLoop=1;jettySize=auto;html=1;" parent="1" source="A8wvUUDn1bnoPcl6TJQY-107" target="A8wvUUDn1bnoPcl6TJQY-21" edge="1">
          <mxGeometry relative="1" as="geometry" />
        </mxCell>
        <mxCell id="A8wvUUDn1bnoPcl6TJQY-106" value="No" style="edgeLabel;html=1;align=center;verticalAlign=middle;resizable=0;points=[];" parent="A8wvUUDn1bnoPcl6TJQY-105" connectable="0" vertex="1">
          <mxGeometry x="-0.66" y="2" relative="1" as="geometry">
            <mxPoint x="4" y="1" as="offset" />
          </mxGeometry>
        </mxCell>
        <mxCell id="A8wvUUDn1bnoPcl6TJQY-107" value="Is code of user sc&amp;nbsp;&lt;div&gt;of the last version?&lt;/div&gt;" style="verticalAlign=middle;align=center;overflow=width;vsdxID=9;fillColor=#ffffff;gradientColor=none;shape=stencil(lZHdCsIwDIWfJvcxYfgAc77HYJ0N1nZ09Wdvb2sQp4jUu3PS74RyAtzOtp8MEM4phqO5ypAs8A6IxFsTJWUF3AG3Y4jmEMPZD+qnvpBFncKlbLhpjpoSIVzU4sPtlXTiV+S2mtwgvqFN/dZn9CtLf7D1P/jVQBav4kZxTntfv38WnUd6JO7u);strokeColor=#000000;spacingTop=-3;spacingBottom=-3;spacingLeft=-3;spacingRight=-3;points=[];labelBackgroundColor=none;rounded=0;html=1;whiteSpace=wrap;" parent="1" vertex="1">
          <mxGeometry x="992" y="1338.5" width="120" height="80" as="geometry" />
        </mxCell>
        <mxCell id="A8wvUUDn1bnoPcl6TJQY-108" value="Is user locked?" style="verticalAlign=middle;align=center;overflow=width;vsdxID=9;fillColor=#ffffff;gradientColor=none;shape=stencil(lZHdCsIwDIWfJvcxYfgAc77HYJ0N1nZ09Wdvb2sQp4jUu3PS74RyAtzOtp8MEM4phqO5ypAs8A6IxFsTJWUF3AG3Y4jmEMPZD+qnvpBFncKlbLhpjpoSIVzU4sPtlXTiV+S2mtwgvqFN/dZn9CtLf7D1P/jVQBav4kZxTntfv38WnUd6JO7u);strokeColor=#000000;spacingTop=-3;spacingBottom=-3;spacingLeft=-3;spacingRight=-3;points=[];labelBackgroundColor=none;rounded=0;html=1;whiteSpace=wrap;" parent="1" vertex="1">
          <mxGeometry x="1290" y="1338.5" width="120" height="80" as="geometry" />
        </mxCell>
        <mxCell id="A8wvUUDn1bnoPcl6TJQY-109" value="Is withdraw max?" style="verticalAlign=middle;align=center;overflow=width;vsdxID=9;fillColor=#ffffff;gradientColor=none;shape=stencil(lZHdCsIwDIWfJvcxYfgAc77HYJ0N1nZ09Wdvb2sQp4jUu3PS74RyAtzOtp8MEM4phqO5ypAs8A6IxFsTJWUF3AG3Y4jmEMPZD+qnvpBFncKlbLhpjpoSIVzU4sPtlXTiV+S2mtwgvqFN/dZn9CtLf7D1P/jVQBav4kZxTntfv38WnUd6JO7u);strokeColor=#000000;spacingTop=-3;spacingBottom=-3;spacingLeft=-3;spacingRight=-3;points=[];labelBackgroundColor=none;rounded=0;html=1;whiteSpace=wrap;" parent="1" vertex="1">
          <mxGeometry x="1442" y="1340" width="120" height="80" as="geometry" />
        </mxCell>
        <mxCell id="A8wvUUDn1bnoPcl6TJQY-110" value="Is enough price data&lt;div&gt;and amount &amp;gt;= 0 ?&lt;/div&gt;" style="verticalAlign=middle;align=center;overflow=width;vsdxID=9;fillColor=#ffffff;gradientColor=none;shape=stencil(lZHdCsIwDIWfJvcxYfgAc77HYJ0N1nZ09Wdvb2sQp4jUu3PS74RyAtzOtp8MEM4phqO5ypAs8A6IxFsTJWUF3AG3Y4jmEMPZD+qnvpBFncKlbLhpjpoSIVzU4sPtlXTiV+S2mtwgvqFN/dZn9CtLf7D1P/jVQBav4kZxTntfv38WnUd6JO7u);strokeColor=#000000;spacingTop=-3;spacingBottom=-3;spacingLeft=-3;spacingRight=-3;points=[];labelBackgroundColor=none;rounded=0;html=1;whiteSpace=wrap;" parent="1" vertex="1">
          <mxGeometry x="1754" y="1340" width="120" height="80" as="geometry" />
        </mxCell>
        <mxCell id="A8wvUUDn1bnoPcl6TJQY-111" value="Is borrow collateralized?" style="verticalAlign=middle;align=center;overflow=width;vsdxID=9;fillColor=#ffffff;gradientColor=none;shape=stencil(lZHdCsIwDIWfJvcxYfgAc77HYJ0N1nZ09Wdvb2sQp4jUu3PS74RyAtzOtp8MEM4phqO5ypAs8A6IxFsTJWUF3AG3Y4jmEMPZD+qnvpBFncKlbLhpjpoSIVzU4sPtlXTiV+S2mtwgvqFN/dZn9CtLf7D1P/jVQBav4kZxTntfv38WnUd6JO7u);strokeColor=#000000;spacingTop=-3;spacingBottom=-3;spacingLeft=-3;spacingRight=-3;points=[];labelBackgroundColor=none;rounded=0;html=1;whiteSpace=wrap;" parent="1" vertex="1">
          <mxGeometry x="1645" y="1531" width="120" height="80" as="geometry" />
        </mxCell>
        <mxCell id="A8wvUUDn1bnoPcl6TJQY-112" value="" style="edgeStyle=orthogonalEdgeStyle;rounded=0;orthogonalLoop=1;jettySize=auto;html=1;entryX=0;entryY=0.5;entryDx=0;entryDy=0;exitX=1;exitY=0.469;exitDx=0;exitDy=0;exitPerimeter=0;" parent="1" source="A8wvUUDn1bnoPcl6TJQY-109" target="A8wvUUDn1bnoPcl6TJQY-114" edge="1">
          <mxGeometry relative="1" as="geometry">
            <mxPoint x="1550" y="1380" as="sourcePoint" />
            <mxPoint x="1850" y="1416" as="targetPoint" />
          </mxGeometry>
        </mxCell>
        <mxCell id="A8wvUUDn1bnoPcl6TJQY-113" value="Yes" style="edgeLabel;html=1;align=center;verticalAlign=middle;resizable=0;points=[];" parent="A8wvUUDn1bnoPcl6TJQY-112" connectable="0" vertex="1">
          <mxGeometry x="-0.3" relative="1" as="geometry">
            <mxPoint as="offset" />
          </mxGeometry>
        </mxCell>
        <mxCell id="A8wvUUDn1bnoPcl6TJQY-114" value="calculate withdraw amount and check enough price data" style="rounded=1;whiteSpace=wrap;html=1;" parent="1" vertex="1">
          <mxGeometry x="1603" y="1349.5" width="120" height="60" as="geometry" />
        </mxCell>
        <mxCell id="A8wvUUDn1bnoPcl6TJQY-115" value="" style="edgeStyle=orthogonalEdgeStyle;rounded=0;orthogonalLoop=1;jettySize=auto;html=1;exitX=0.5;exitY=0.988;exitDx=0;exitDy=0;exitPerimeter=0;" parent="1" source="A8wvUUDn1bnoPcl6TJQY-110" target="A8wvUUDn1bnoPcl6TJQY-116" edge="1">
          <mxGeometry relative="1" as="geometry">
            <mxPoint x="1780" y="1440" as="sourcePoint" />
            <mxPoint x="1850" y="1531" as="targetPoint" />
            <Array as="points">
              <mxPoint x="1814" y="1484" />
            </Array>
          </mxGeometry>
        </mxCell>
        <mxCell id="A8wvUUDn1bnoPcl6TJQY-116" value="" style="html=1;points=[[0,0,0,0,5],[0,1,0,0,-5],[1,0,0,0,5],[1,1,0,0,-5]];perimeter=orthogonalPerimeter;outlineConnect=0;targetShapes=umlLifeline;portConstraint=eastwest;newEdgeStyle={&quot;curved&quot;:0,&quot;rounded&quot;:0};direction=south;rotation=-180;" parent="1" vertex="1">
          <mxGeometry x="1654" y="1479" width="102" height="10" as="geometry" />
        </mxCell>
        <mxCell id="A8wvUUDn1bnoPcl6TJQY-117" style="edgeStyle=orthogonalEdgeStyle;rounded=0;orthogonalLoop=1;jettySize=auto;html=1;exitX=0.5;exitY=1;exitDx=0;exitDy=0;exitPerimeter=0;" parent="1" source="A8wvUUDn1bnoPcl6TJQY-108" target="A8wvUUDn1bnoPcl6TJQY-55" edge="1">
          <mxGeometry relative="1" as="geometry">
            <Array as="points">
              <mxPoint x="1350" y="1490" />
              <mxPoint x="1560" y="1490" />
            </Array>
            <mxPoint x="1338" y="1419" as="sourcePoint" />
          </mxGeometry>
        </mxCell>
        <mxCell id="A8wvUUDn1bnoPcl6TJQY-118" value="yes" style="edgeLabel;html=1;align=center;verticalAlign=middle;resizable=0;points=[];" parent="A8wvUUDn1bnoPcl6TJQY-117" connectable="0" vertex="1">
          <mxGeometry x="-0.8633" y="1" relative="1" as="geometry">
            <mxPoint as="offset" />
          </mxGeometry>
        </mxCell>
        <mxCell id="A8wvUUDn1bnoPcl6TJQY-119" value="report withdraw_excess_message&lt;div&gt;op=withdraw_locked_excess&lt;br&gt;&lt;/div&gt;" style="edgeLabel;html=1;align=left;verticalAlign=middle;resizable=0;points=[];" parent="A8wvUUDn1bnoPcl6TJQY-117" connectable="0" vertex="1">
          <mxGeometry x="-0.358" y="3" relative="1" as="geometry">
            <mxPoint x="-77" y="-17" as="offset" />
          </mxGeometry>
        </mxCell>
        <mxCell id="08cf-Fnic-BSwIpua85B-1" value="" style="sketch=0;pointerEvents=1;shadow=0;dashed=0;html=1;strokeColor=none;labelPosition=center;verticalLabelPosition=bottom;verticalAlign=top;outlineConnect=0;align=center;shape=mxgraph.office.security.lock_protected;fillColor=#DA4026;fontSize=10;" parent="1" vertex="1">
          <mxGeometry x="-162.31" y="1964.5" width="14.62" height="20" as="geometry" />
        </mxCell>
        <mxCell id="08cf-Fnic-BSwIpua85B-5" value="" style="edgeStyle=orthogonalEdgeStyle;rounded=0;orthogonalLoop=1;jettySize=auto;html=1;entryX=0.5;entryY=1;entryDx=0;entryDy=0;" parent="1" source="A8wvUUDn1bnoPcl6TJQY-7" target="08cf-Fnic-BSwIpua85B-2" edge="1">
          <mxGeometry relative="1" as="geometry">
            <mxPoint x="-92" y="1409" as="targetPoint" />
            <Array as="points">
              <mxPoint x="-92" y="2020" />
            </Array>
            <mxPoint x="-92" y="2068" as="sourcePoint" />
          </mxGeometry>
        </mxCell>
        <mxCell id="08cf-Fnic-BSwIpua85B-2" value="" style="shape=message;html=1;outlineConnect=0;fontSize=12;fontColor=#000000;" parent="1" vertex="1">
          <mxGeometry x="-102.50022687442788" y="1950.4974995840635" width="20" height="14" as="geometry" />
        </mxCell>
        <mxCell id="08cf-Fnic-BSwIpua85B-7" style="edgeStyle=orthogonalEdgeStyle;rounded=0;orthogonalLoop=1;jettySize=auto;html=1;entryX=0;entryY=0.5;entryDx=0;entryDy=0;exitX=1;exitY=0.5;exitDx=0;exitDy=0;" parent="1" source="08cf-Fnic-BSwIpua85B-6" target="08cf-Fnic-BSwIpua85B-2" edge="1">
          <mxGeometry relative="1" as="geometry">
            <Array as="points">
              <mxPoint x="-217" y="1957" />
            </Array>
          </mxGeometry>
        </mxCell>
        <mxCell id="08cf-Fnic-BSwIpua85B-6" value="EVAA decentralized oracles" style="rounded=0;whiteSpace=wrap;html=1;rotation=-90;" parent="1" vertex="1">
          <mxGeometry x="-300" y="2042.5" width="165.38" height="25.5" as="geometry" />
        </mxCell>
        <mxCell id="08cf-Fnic-BSwIpua85B-9" value="prices_packed" style="text;html=1;align=center;verticalAlign=middle;whiteSpace=wrap;rounded=0;" parent="1" vertex="1">
          <mxGeometry x="-200" y="1927.5" width="90" height="30" as="geometry" />
        </mxCell>
        <mxCell id="08cf-Fnic-BSwIpua85B-12" value="get prices" style="text;html=1;align=center;verticalAlign=middle;whiteSpace=wrap;rounded=0;" parent="1" vertex="1">
          <mxGeometry x="-200" y="2150" width="90" height="30" as="geometry" />
        </mxCell>
        <mxCell id="9h7NWSsUmFOlCsUQtn5U-1" value="" style="sketch=0;pointerEvents=1;shadow=0;dashed=0;html=1;strokeColor=none;labelPosition=center;verticalLabelPosition=bottom;verticalAlign=top;outlineConnect=0;align=center;shape=mxgraph.office.security.lock_unprotected;fillColor=#DA4026;fontSize=10;" vertex="1" parent="1">
          <mxGeometry x="375.42999999999995" y="1340" width="13.13" height="19" as="geometry" />
        </mxCell>
      </root>
    </mxGraphModel>
  </diagram>
  <diagram id="kOOEqNBTGifsS_NAHfN6" name="Withdraw jetton">
    <mxGraphModel dx="2555" dy="157" grid="1" gridSize="10" guides="1" tooltips="1" connect="1" arrows="1" fold="1" page="1" pageScale="1" pageWidth="827" pageHeight="1169" math="0" shadow="0">
      <root>
        <mxCell id="0" />
        <mxCell id="1" parent="0" />
        <mxCell id="Rv3pvhyty8UO6Tn3SfZe-23" value="" style="rounded=0;whiteSpace=wrap;html=1;" parent="1" vertex="1">
          <mxGeometry x="830" y="1290" width="1190" height="530" as="geometry" />
        </mxCell>
        <mxCell id="2-OJ2lh8gaTpNA8edTT2-1" value="" style="rounded=0;whiteSpace=wrap;html=1;" parent="1" vertex="1">
          <mxGeometry x="-30" y="1861.5" width="260" height="138.5" as="geometry" />
        </mxCell>
        <mxCell id="pBwmNIc0gVgjRXL-kRwy-2" value="" style="rounded=0;whiteSpace=wrap;html=1;" parent="1" vertex="1">
          <mxGeometry x="-170" y="1290" width="980" height="530" as="geometry" />
        </mxCell>
        <mxCell id="9PymqvHZJMddZspfVthG-2" style="edgeStyle=orthogonalEdgeStyle;rounded=0;orthogonalLoop=1;jettySize=auto;html=1;entryX=0.5;entryY=1;entryDx=0;entryDy=0;" parent="1" source="NwS3Xz_NMjakxZuXKKBK-1" target="pBwmNIc0gVgjRXL-kRwy-8" edge="1">
          <mxGeometry relative="1" as="geometry">
            <mxPoint x="15" y="1958" as="targetPoint" />
            <Array as="points" />
          </mxGeometry>
        </mxCell>
        <mxCell id="QKfYTQII9LWKq_Klsc3Y-1" style="edgeStyle=orthogonalEdgeStyle;rounded=0;orthogonalLoop=1;jettySize=auto;html=1;entryX=0;entryY=0.5;entryDx=0;entryDy=0;" parent="1" source="pBwmNIc0gVgjRXL-kRwy-6" target="Pwce9LuDka779ld7ZI8a-2" edge="1">
          <mxGeometry relative="1" as="geometry">
            <Array as="points">
              <mxPoint x="-92" y="2170" />
              <mxPoint x="-253" y="2170" />
            </Array>
          </mxGeometry>
        </mxCell>
        <mxCell id="pBwmNIc0gVgjRXL-kRwy-6" value="Actor" style="shape=umlActor;verticalLabelPosition=bottom;verticalAlign=top;html=1;outlineConnect=0;" parent="1" vertex="1">
          <mxGeometry x="-107" y="2068" width="30" height="60" as="geometry" />
        </mxCell>
        <mxCell id="pBwmNIc0gVgjRXL-kRwy-7" style="edgeStyle=orthogonalEdgeStyle;rounded=0;orthogonalLoop=1;jettySize=auto;html=1;entryX=0.031;entryY=0.513;entryDx=0;entryDy=0;entryPerimeter=0;" parent="1" source="pBwmNIc0gVgjRXL-kRwy-8" target="HOX6GRswkgkodM6_yyiV-54" edge="1">
          <mxGeometry relative="1" as="geometry">
            <mxPoint x="101" y="1379.5" as="targetPoint" />
          </mxGeometry>
        </mxCell>
        <mxCell id="pBwmNIc0gVgjRXL-kRwy-8" value="op::withdraw_master" style="rounded=1;whiteSpace=wrap;html=1;" parent="1" vertex="1">
          <mxGeometry x="-150" y="1350" width="115" height="59" as="geometry" />
        </mxCell>
        <mxCell id="Rv3pvhyty8UO6Tn3SfZe-19" value="" style="edgeStyle=orthogonalEdgeStyle;rounded=0;orthogonalLoop=1;jettySize=auto;html=1;" parent="1" source="pBwmNIc0gVgjRXL-kRwy-14" target="Rv3pvhyty8UO6Tn3SfZe-1" edge="1">
          <mxGeometry relative="1" as="geometry" />
        </mxCell>
        <mxCell id="pBwmNIc0gVgjRXL-kRwy-14" value="op::withdraw_user" style="rounded=1;whiteSpace=wrap;html=1;" parent="1" vertex="1">
          <mxGeometry x="850" y="1348.5" width="120" height="60" as="geometry" />
        </mxCell>
        <mxCell id="pBwmNIc0gVgjRXL-kRwy-15" style="edgeStyle=orthogonalEdgeStyle;rounded=0;orthogonalLoop=1;jettySize=auto;html=1;entryX=0.517;entryY=-0.037;entryDx=0;entryDy=0;exitX=0.5;exitY=0.019;exitDx=0;exitDy=0;entryPerimeter=0;exitPerimeter=0;" parent="1" source="Rv3pvhyty8UO6Tn3SfZe-1" target="Rv3pvhyty8UO6Tn3SfZe-2" edge="1">
          <mxGeometry relative="1" as="geometry">
            <mxPoint x="1050" y="1334.5" as="sourcePoint" />
            <mxPoint x="1344" y="1335" as="targetPoint" />
            <Array as="points">
              <mxPoint x="1050" y="1310" />
              <mxPoint x="1352" y="1310" />
            </Array>
          </mxGeometry>
        </mxCell>
        <mxCell id="pBwmNIc0gVgjRXL-kRwy-16" value="Yes" style="edgeLabel;html=1;align=center;verticalAlign=middle;resizable=0;points=[];" parent="pBwmNIc0gVgjRXL-kRwy-15" connectable="0" vertex="1">
          <mxGeometry x="-0.0308" y="-2" relative="1" as="geometry">
            <mxPoint y="-2" as="offset" />
          </mxGeometry>
        </mxCell>
        <mxCell id="Rv3pvhyty8UO6Tn3SfZe-17" value="" style="edgeStyle=orthogonalEdgeStyle;rounded=0;orthogonalLoop=1;jettySize=auto;html=1;" parent="1" target="Rv3pvhyty8UO6Tn3SfZe-3" edge="1">
          <mxGeometry relative="1" as="geometry">
            <mxPoint x="1389" y="1380" as="sourcePoint" />
          </mxGeometry>
        </mxCell>
        <mxCell id="Rv3pvhyty8UO6Tn3SfZe-18" value="No" style="edgeLabel;html=1;align=center;verticalAlign=middle;resizable=0;points=[];" parent="Rv3pvhyty8UO6Tn3SfZe-17" connectable="0" vertex="1">
          <mxGeometry x="-0.0851" relative="1" as="geometry">
            <mxPoint x="8" as="offset" />
          </mxGeometry>
        </mxCell>
        <mxCell id="pBwmNIc0gVgjRXL-kRwy-25" style="edgeStyle=orthogonalEdgeStyle;rounded=0;orthogonalLoop=1;jettySize=auto;html=1;exitX=0;exitY=0.5;exitDx=0;exitDy=0;entryX=0.5;entryY=0;entryDx=0;entryDy=0;" parent="1" source="pBwmNIc0gVgjRXL-kRwy-50" target="9PymqvHZJMddZspfVthG-4" edge="1">
          <mxGeometry relative="1" as="geometry">
            <mxPoint x="70" y="1532" as="sourcePoint" />
          </mxGeometry>
        </mxCell>
        <mxCell id="pBwmNIc0gVgjRXL-kRwy-26" value="Transfer&lt;div&gt;Jettons&lt;/div&gt;" style="edgeLabel;html=1;align=center;verticalAlign=middle;resizable=0;points=[];" parent="pBwmNIc0gVgjRXL-kRwy-25" connectable="0" vertex="1">
          <mxGeometry x="-0.3741" y="3" relative="1" as="geometry">
            <mxPoint x="-5" y="-3" as="offset" />
          </mxGeometry>
        </mxCell>
        <mxCell id="pBwmNIc0gVgjRXL-kRwy-29" value="op::withdraw_collateralized" style="rounded=1;whiteSpace=wrap;html=1;" parent="1" vertex="1">
          <mxGeometry x="645" y="1540.5" width="150" height="60" as="geometry" />
        </mxCell>
        <mxCell id="pBwmNIc0gVgjRXL-kRwy-30" value="Recepient" style="shape=umlActor;verticalLabelPosition=bottom;verticalAlign=top;html=1;outlineConnect=0;" parent="1" vertex="1">
          <mxGeometry x="85.25" y="2068" width="30" height="60" as="geometry" />
        </mxCell>
        <mxCell id="Rv3pvhyty8UO6Tn3SfZe-21" value="" style="edgeStyle=orthogonalEdgeStyle;rounded=0;orthogonalLoop=1;jettySize=auto;html=1;" parent="1" source="pBwmNIc0gVgjRXL-kRwy-32" target="Rv3pvhyty8UO6Tn3SfZe-2" edge="1">
          <mxGeometry relative="1" as="geometry" />
        </mxCell>
        <mxCell id="pBwmNIc0gVgjRXL-kRwy-32" value="upgrade userSc" style="rounded=1;whiteSpace=wrap;html=1;" parent="1" vertex="1">
          <mxGeometry x="1146" y="1348.5" width="120" height="60" as="geometry" />
        </mxCell>
        <mxCell id="pBwmNIc0gVgjRXL-kRwy-33" value="Evaa master smart contract" style="text;html=1;align=center;verticalAlign=middle;resizable=0;points=[];autosize=1;strokeColor=none;fillColor=none;" parent="1" vertex="1">
          <mxGeometry x="-170" y="1290" width="170" height="30" as="geometry" />
        </mxCell>
        <mxCell id="pBwmNIc0gVgjRXL-kRwy-34" value="Evaa user wallet smart contract" style="text;html=1;align=center;verticalAlign=middle;resizable=0;points=[];autosize=1;strokeColor=none;fillColor=none;" parent="1" vertex="1">
          <mxGeometry x="830" y="1290" width="190" height="30" as="geometry" />
        </mxCell>
        <mxCell id="pBwmNIc0gVgjRXL-kRwy-41" style="edgeStyle=orthogonalEdgeStyle;rounded=0;orthogonalLoop=1;jettySize=auto;html=1;entryX=0.525;entryY=-0.075;entryDx=0;entryDy=0;entryPerimeter=0;" parent="1" target="dhT3XbkEFXpcO1lKDE8c-4" edge="1">
          <mxGeometry relative="1" as="geometry">
            <mxPoint x="412" y="1419.5" as="sourcePoint" />
            <mxPoint x="412" y="1459" as="targetPoint" />
          </mxGeometry>
        </mxCell>
        <mxCell id="HOX6GRswkgkodM6_yyiV-67" value="No" style="edgeLabel;html=1;align=center;verticalAlign=middle;resizable=0;points=[];" parent="pBwmNIc0gVgjRXL-kRwy-41" connectable="0" vertex="1">
          <mxGeometry x="0.4923" y="2" relative="1" as="geometry">
            <mxPoint as="offset" />
          </mxGeometry>
        </mxCell>
        <mxCell id="pBwmNIc0gVgjRXL-kRwy-44" style="edgeStyle=orthogonalEdgeStyle;rounded=0;orthogonalLoop=1;jettySize=auto;html=1;entryX=1;entryY=0.5;entryDx=0;entryDy=0;exitX=0.025;exitY=0.5;exitDx=0;exitDy=0;exitPerimeter=0;" parent="1" source="Rv3pvhyty8UO6Tn3SfZe-5" target="SFaU2RS9cUj74fsuJC3y-12" edge="1">
          <mxGeometry relative="1" as="geometry">
            <mxPoint x="1630" y="1571" as="sourcePoint" />
          </mxGeometry>
        </mxCell>
        <mxCell id="Rv3pvhyty8UO6Tn3SfZe-15" value="Yes" style="edgeLabel;html=1;align=center;verticalAlign=middle;resizable=0;points=[];" parent="pBwmNIc0gVgjRXL-kRwy-44" connectable="0" vertex="1">
          <mxGeometry x="-0.88" y="1" relative="1" as="geometry">
            <mxPoint x="1" as="offset" />
          </mxGeometry>
        </mxCell>
        <mxCell id="pBwmNIc0gVgjRXL-kRwy-45" style="edgeStyle=orthogonalEdgeStyle;rounded=0;orthogonalLoop=1;jettySize=auto;html=1;exitX=0.492;exitY=1.019;exitDx=0;exitDy=0;exitPerimeter=0;" parent="1" source="Rv3pvhyty8UO6Tn3SfZe-5" target="pBwmNIc0gVgjRXL-kRwy-82" edge="1">
          <mxGeometry relative="1" as="geometry">
            <mxPoint x="1704" y="1660" as="sourcePoint" />
            <mxPoint x="1780" y="1748" as="targetPoint" />
            <Array as="points">
              <mxPoint x="1704" y="1710" />
              <mxPoint x="1704" y="1710" />
            </Array>
          </mxGeometry>
        </mxCell>
        <mxCell id="SFaU2RS9cUj74fsuJC3y-14" value="No" style="edgeLabel;html=1;align=center;verticalAlign=middle;resizable=0;points=[];" parent="pBwmNIc0gVgjRXL-kRwy-45" connectable="0" vertex="1">
          <mxGeometry x="-0.8337" y="2" relative="1" as="geometry">
            <mxPoint y="1" as="offset" />
          </mxGeometry>
        </mxCell>
        <mxCell id="SFaU2RS9cUj74fsuJC3y-16" value="report withdraw_excess_message:&lt;div&gt;the op code is one of:&lt;br&gt;withdraw_not_collateralized_excess&lt;br&gt;withdraw_missing_prices_excess&lt;/div&gt;" style="edgeLabel;html=1;align=left;verticalAlign=middle;resizable=0;points=[];" parent="pBwmNIc0gVgjRXL-kRwy-45" connectable="0" vertex="1">
          <mxGeometry x="-0.3817" relative="1" as="geometry">
            <mxPoint x="-74" y="27" as="offset" />
          </mxGeometry>
        </mxCell>
        <mxCell id="pBwmNIc0gVgjRXL-kRwy-50" value="update total supply &amp;amp; total borrow" style="rounded=1;whiteSpace=wrap;html=1;" parent="1" vertex="1">
          <mxGeometry x="162.5" y="1541.5" width="115" height="59" as="geometry" />
        </mxCell>
        <mxCell id="pBwmNIc0gVgjRXL-kRwy-51" style="edgeStyle=orthogonalEdgeStyle;rounded=0;orthogonalLoop=1;jettySize=auto;html=1;exitX=0.483;exitY=0.994;exitDx=0;exitDy=0;entryX=0;entryY=0.5;entryDx=0;entryDy=0;exitPerimeter=0;" parent="1" source="9VljNj-bRr1mulfuYv1_-2" target="pBwmNIc0gVgjRXL-kRwy-53" edge="1">
          <mxGeometry relative="1" as="geometry">
            <Array as="points">
              <mxPoint x="380" y="1681" />
            </Array>
            <mxPoint x="403" y="1611" as="sourcePoint" />
            <mxPoint x="880" y="1670" as="targetPoint" />
          </mxGeometry>
        </mxCell>
        <mxCell id="pBwmNIc0gVgjRXL-kRwy-52" style="edgeStyle=orthogonalEdgeStyle;rounded=0;orthogonalLoop=1;jettySize=auto;html=1;exitX=1;exitY=0.5;exitDx=0;exitDy=0;" parent="1" source="o3MaF3YIS8MiFT2cPfFZ-3" target="pBwmNIc0gVgjRXL-kRwy-82" edge="1">
          <mxGeometry relative="1" as="geometry">
            <Array as="points">
              <mxPoint x="1140" y="1678" />
              <mxPoint x="1400" y="1678" />
            </Array>
          </mxGeometry>
        </mxCell>
        <mxCell id="INKZq1UCPzoZppUib9Ew-1" value="report withdraw_excess_message&lt;div&gt;with op=withdraw_no_funds_excess&lt;br&gt;and query_id attached&lt;/div&gt;" style="edgeLabel;html=1;align=left;verticalAlign=middle;resizable=0;points=[];" parent="pBwmNIc0gVgjRXL-kRwy-52" connectable="0" vertex="1">
          <mxGeometry x="-0.4641" y="3" relative="1" as="geometry">
            <mxPoint x="-19" y="6" as="offset" />
          </mxGeometry>
        </mxCell>
        <mxCell id="o3MaF3YIS8MiFT2cPfFZ-4" style="edgeStyle=orthogonalEdgeStyle;rounded=0;orthogonalLoop=1;jettySize=auto;html=1;entryX=0;entryY=0.5;entryDx=0;entryDy=0;" parent="1" source="pBwmNIc0gVgjRXL-kRwy-53" target="o3MaF3YIS8MiFT2cPfFZ-3" edge="1">
          <mxGeometry relative="1" as="geometry" />
        </mxCell>
        <mxCell id="pBwmNIc0gVgjRXL-kRwy-53" value="op::withdraw_fail" style="rounded=1;whiteSpace=wrap;html=1;" parent="1" vertex="1">
          <mxGeometry x="850" y="1651" width="120" height="60" as="geometry" />
        </mxCell>
        <mxCell id="pBwmNIc0gVgjRXL-kRwy-54" style="edgeStyle=orthogonalEdgeStyle;rounded=0;orthogonalLoop=1;jettySize=auto;html=1;entryX=0;entryY=0.5;entryDx=0;entryDy=0;" parent="1" source="pBwmNIc0gVgjRXL-kRwy-55" target="pBwmNIc0gVgjRXL-kRwy-88" edge="1">
          <mxGeometry relative="1" as="geometry" />
        </mxCell>
        <mxCell id="pBwmNIc0gVgjRXL-kRwy-55" value="op::withdraw_success" style="rounded=1;whiteSpace=wrap;html=1;" parent="1" vertex="1">
          <mxGeometry x="850" y="1718" width="120" height="60" as="geometry" />
        </mxCell>
        <mxCell id="pBwmNIc0gVgjRXL-kRwy-56" style="edgeStyle=orthogonalEdgeStyle;rounded=0;orthogonalLoop=1;jettySize=auto;html=1;exitX=0.5;exitY=1;exitDx=0;exitDy=0;entryX=0;entryY=0.5;entryDx=0;entryDy=0;" parent="1" source="pBwmNIc0gVgjRXL-kRwy-50" target="pBwmNIc0gVgjRXL-kRwy-55" edge="1">
          <mxGeometry relative="1" as="geometry">
            <Array as="points">
              <mxPoint x="220" y="1748" />
            </Array>
            <mxPoint x="110" y="1599.92" as="sourcePoint" />
            <mxPoint x="752" y="1614.92" as="targetPoint" />
          </mxGeometry>
        </mxCell>
        <mxCell id="pBwmNIc0gVgjRXL-kRwy-57" style="edgeStyle=orthogonalEdgeStyle;rounded=0;orthogonalLoop=1;jettySize=auto;html=1;entryX=0;entryY=0.5;entryDx=0;entryDy=0;exitX=0.99;exitY=0.494;exitDx=0;exitDy=0;exitPerimeter=0;entryPerimeter=0;" parent="1" source="HOX6GRswkgkodM6_yyiV-54" target="HOX6GRswkgkodM6_yyiV-58" edge="1">
          <mxGeometry relative="1" as="geometry">
            <mxPoint x="181" y="1379.5" as="sourcePoint" />
            <mxPoint x="260" y="1379" as="targetPoint" />
          </mxGeometry>
        </mxCell>
        <mxCell id="pBwmNIc0gVgjRXL-kRwy-58" value="Yes" style="edgeLabel;html=1;align=center;verticalAlign=middle;resizable=0;points=[];" parent="pBwmNIc0gVgjRXL-kRwy-57" connectable="0" vertex="1">
          <mxGeometry x="-0.2593" relative="1" as="geometry">
            <mxPoint as="offset" />
          </mxGeometry>
        </mxCell>
        <mxCell id="pBwmNIc0gVgjRXL-kRwy-71" style="edgeStyle=orthogonalEdgeStyle;rounded=0;orthogonalLoop=1;jettySize=auto;html=1;entryX=0;entryY=0.5;entryDx=0;entryDy=0;" parent="1" source="pBwmNIc0gVgjRXL-kRwy-72" target="pBwmNIc0gVgjRXL-kRwy-14" edge="1">
          <mxGeometry relative="1" as="geometry" />
        </mxCell>
        <mxCell id="pBwmNIc0gVgjRXL-kRwy-72" value="update s/b-rates and tracking indexes" style="rounded=1;whiteSpace=wrap;html=1;" parent="1" vertex="1">
          <mxGeometry x="655" y="1349" width="140" height="60" as="geometry" />
        </mxCell>
        <mxCell id="pBwmNIc0gVgjRXL-kRwy-73" style="edgeStyle=orthogonalEdgeStyle;rounded=0;orthogonalLoop=1;jettySize=auto;html=1;entryX=0.017;entryY=0.488;entryDx=0;entryDy=0;entryPerimeter=0;" parent="1" source="Rv3pvhyty8UO6Tn3SfZe-6" target="Rv3pvhyty8UO6Tn3SfZe-4" edge="1">
          <mxGeometry relative="1" as="geometry">
            <mxPoint x="1740" y="1379.5" as="targetPoint" />
          </mxGeometry>
        </mxCell>
        <mxCell id="Rv3pvhyty8UO6Tn3SfZe-11" style="edgeStyle=orthogonalEdgeStyle;rounded=0;orthogonalLoop=1;jettySize=auto;html=1;exitX=0.554;exitY=1.025;exitDx=0;exitDy=0;exitPerimeter=0;" parent="1" source="Rv3pvhyty8UO6Tn3SfZe-3" target="Rv3pvhyty8UO6Tn3SfZe-9" edge="1">
          <mxGeometry relative="1" as="geometry">
            <mxPoint x="1470" y="1420" as="sourcePoint" />
            <Array as="points">
              <mxPoint x="1509" y="1450" />
              <mxPoint x="1670" y="1450" />
            </Array>
          </mxGeometry>
        </mxCell>
        <mxCell id="Rv3pvhyty8UO6Tn3SfZe-26" value="No" style="edgeLabel;html=1;align=center;verticalAlign=middle;resizable=0;points=[];" parent="Rv3pvhyty8UO6Tn3SfZe-11" connectable="0" vertex="1">
          <mxGeometry x="-0.8993" y="-1" relative="1" as="geometry">
            <mxPoint as="offset" />
          </mxGeometry>
        </mxCell>
        <mxCell id="pBwmNIc0gVgjRXL-kRwy-76" style="edgeStyle=orthogonalEdgeStyle;rounded=0;orthogonalLoop=1;jettySize=auto;html=1;exitX=0.996;exitY=0.506;exitDx=0;exitDy=0;exitPerimeter=0;" parent="1" source="Rv3pvhyty8UO6Tn3SfZe-4" target="pBwmNIc0gVgjRXL-kRwy-82" edge="1">
          <mxGeometry relative="1" as="geometry">
            <Array as="points">
              <mxPoint x="1910" y="1381" />
              <mxPoint x="1910" y="1748" />
            </Array>
            <mxPoint x="1870" y="1380" as="sourcePoint" />
          </mxGeometry>
        </mxCell>
        <mxCell id="SFaU2RS9cUj74fsuJC3y-11" value="report withdraw_excess_message&lt;div&gt;op=withdraw_missing_prices_excess&lt;/div&gt;&lt;div&gt;query_id attached&lt;/div&gt;" style="edgeLabel;html=1;align=left;verticalAlign=middle;resizable=0;points=[];" parent="pBwmNIc0gVgjRXL-kRwy-76" connectable="0" vertex="1">
          <mxGeometry x="0.257" y="2" relative="1" as="geometry">
            <mxPoint x="-92" y="-66" as="offset" />
          </mxGeometry>
        </mxCell>
        <mxCell id="Rv3pvhyty8UO6Tn3SfZe-16" value="No" style="edgeLabel;html=1;align=center;verticalAlign=middle;resizable=0;points=[];" parent="pBwmNIc0gVgjRXL-kRwy-76" connectable="0" vertex="1">
          <mxGeometry x="-0.9054" y="1" relative="1" as="geometry">
            <mxPoint x="-6" as="offset" />
          </mxGeometry>
        </mxCell>
        <mxCell id="pBwmNIc0gVgjRXL-kRwy-78" style="edgeStyle=orthogonalEdgeStyle;rounded=0;orthogonalLoop=1;jettySize=auto;html=1;entryX=0.492;entryY=0.019;entryDx=0;entryDy=0;exitX=0.009;exitY=0.543;exitDx=0;exitDy=0;exitPerimeter=0;entryPerimeter=0;" parent="1" source="Rv3pvhyty8UO6Tn3SfZe-9" target="Rv3pvhyty8UO6Tn3SfZe-5" edge="1">
          <mxGeometry relative="1" as="geometry">
            <mxPoint x="1707" y="1470" as="sourcePoint" />
            <mxPoint x="1704" y="1530.5" as="targetPoint" />
            <Array as="points">
              <mxPoint x="1704" y="1489" />
            </Array>
          </mxGeometry>
        </mxCell>
        <mxCell id="pBwmNIc0gVgjRXL-kRwy-80" style="edgeStyle=orthogonalEdgeStyle;rounded=0;orthogonalLoop=1;jettySize=auto;html=1;curved=0;entryX=0.5;entryY=0.5;entryDx=0;entryDy=0;entryPerimeter=0;" parent="1" source="pBwmNIc0gVgjRXL-kRwy-82" target="pBwmNIc0gVgjRXL-kRwy-30" edge="1">
          <mxGeometry relative="1" as="geometry">
            <mxPoint x="-160" y="1650" as="targetPoint" />
            <Array as="points">
              <mxPoint x="1597" y="2098" />
            </Array>
          </mxGeometry>
        </mxCell>
        <mxCell id="9PymqvHZJMddZspfVthG-7" value="TON excesses" style="edgeLabel;html=1;align=center;verticalAlign=middle;resizable=0;points=[];" parent="pBwmNIc0gVgjRXL-kRwy-80" connectable="0" vertex="1">
          <mxGeometry x="-0.8131" y="4" relative="1" as="geometry">
            <mxPoint as="offset" />
          </mxGeometry>
        </mxCell>
        <mxCell id="pBwmNIc0gVgjRXL-kRwy-82" value="" style="html=1;points=[[0,0,0,0,5],[0,1,0,0,-5],[1,0,0,0,5],[1,1,0,0,-5]];perimeter=orthogonalPerimeter;outlineConnect=0;targetShapes=umlLifeline;portConstraint=eastwest;newEdgeStyle={&quot;curved&quot;:0,&quot;rounded&quot;:0};direction=south;" parent="1" vertex="1">
          <mxGeometry x="1383" y="1743" width="427" height="10" as="geometry" />
        </mxCell>
        <mxCell id="pBwmNIc0gVgjRXL-kRwy-83" value="" style="edgeStyle=none;curved=1;rounded=0;orthogonalLoop=1;jettySize=auto;html=1;entryX=0.996;entryY=0.488;entryDx=0;entryDy=0;fontSize=12;startSize=8;endSize=8;entryPerimeter=0;" parent="1" source="pBwmNIc0gVgjRXL-kRwy-29" target="9VljNj-bRr1mulfuYv1_-3" edge="1">
          <mxGeometry relative="1" as="geometry">
            <mxPoint x="600" y="1571" as="sourcePoint" />
            <mxPoint x="565" y="1571" as="targetPoint" />
          </mxGeometry>
        </mxCell>
        <mxCell id="pBwmNIc0gVgjRXL-kRwy-87" style="edgeStyle=orthogonalEdgeStyle;rounded=0;orthogonalLoop=1;jettySize=auto;html=1;" parent="1" source="pBwmNIc0gVgjRXL-kRwy-88" target="pBwmNIc0gVgjRXL-kRwy-82" edge="1">
          <mxGeometry relative="1" as="geometry">
            <Array as="points">
              <mxPoint x="1350" y="1748" />
              <mxPoint x="1350" y="1748" />
            </Array>
          </mxGeometry>
        </mxCell>
        <mxCell id="o3MaF3YIS8MiFT2cPfFZ-1" value="report withdraw success&lt;div&gt;with msg=&quot;EVAA withdraw&quot;&lt;br&gt;and op=0&lt;/div&gt;" style="edgeLabel;html=1;align=left;verticalAlign=middle;resizable=0;points=[];" parent="pBwmNIc0gVgjRXL-kRwy-87" connectable="0" vertex="1">
          <mxGeometry x="-0.0409" y="-3" relative="1" as="geometry">
            <mxPoint x="-51" y="-4" as="offset" />
          </mxGeometry>
        </mxCell>
        <mxCell id="pBwmNIc0gVgjRXL-kRwy-88" value="update tracking indexes" style="rounded=1;whiteSpace=wrap;html=1;" parent="1" vertex="1">
          <mxGeometry x="1020" y="1718" width="120" height="60" as="geometry" />
        </mxCell>
        <mxCell id="9PymqvHZJMddZspfVthG-5" style="edgeStyle=orthogonalEdgeStyle;rounded=0;orthogonalLoop=1;jettySize=auto;html=1;entryX=0.5;entryY=0;entryDx=0;entryDy=0;entryPerimeter=0;" parent="1" source="9PymqvHZJMddZspfVthG-4" target="pBwmNIc0gVgjRXL-kRwy-30" edge="1">
          <mxGeometry relative="1" as="geometry" />
        </mxCell>
        <mxCell id="9PymqvHZJMddZspfVthG-4" value="op::transfer" style="rounded=1;whiteSpace=wrap;html=1;" parent="1" vertex="1">
          <mxGeometry x="40.25" y="1898" width="120" height="60" as="geometry" />
        </mxCell>
        <mxCell id="o3MaF3YIS8MiFT2cPfFZ-3" value="revert user principal" style="rounded=1;whiteSpace=wrap;html=1;" parent="1" vertex="1">
          <mxGeometry x="1020" y="1651" width="120" height="60" as="geometry" />
        </mxCell>
        <mxCell id="SFaU2RS9cUj74fsuJC3y-7" style="edgeStyle=orthogonalEdgeStyle;rounded=0;orthogonalLoop=1;jettySize=auto;html=1;exitX=0.5;exitY=1;exitDx=0;exitDy=0;" parent="1" source="9VljNj-bRr1mulfuYv1_-1" target="pBwmNIc0gVgjRXL-kRwy-82" edge="1">
          <mxGeometry relative="1" as="geometry">
            <mxPoint x="1174" y="1542" as="sourcePoint" />
            <mxPoint x="1490" y="1740" as="targetPoint" />
            <Array as="points">
              <mxPoint x="1148" y="1530" />
              <mxPoint x="1480" y="1530" />
            </Array>
          </mxGeometry>
        </mxCell>
        <mxCell id="SFaU2RS9cUj74fsuJC3y-9" value="when caught an exception:&lt;div&gt;report withdraw_excess_message&lt;br&gt;with op=withdraw_execution_crashed&lt;br&gt;and query_id attached&lt;/div&gt;" style="edgeLabel;html=1;align=left;verticalAlign=middle;resizable=0;points=[];" parent="SFaU2RS9cUj74fsuJC3y-7" connectable="0" vertex="1">
          <mxGeometry x="-0.3266" y="1" relative="1" as="geometry">
            <mxPoint x="-95" y="2" as="offset" />
          </mxGeometry>
        </mxCell>
        <mxCell id="SFaU2RS9cUj74fsuJC3y-13" style="edgeStyle=orthogonalEdgeStyle;rounded=0;orthogonalLoop=1;jettySize=auto;html=1;entryX=1;entryY=0.5;entryDx=0;entryDy=0;" parent="1" source="SFaU2RS9cUj74fsuJC3y-12" target="pBwmNIc0gVgjRXL-kRwy-29" edge="1">
          <mxGeometry relative="1" as="geometry" />
        </mxCell>
        <mxCell id="SFaU2RS9cUj74fsuJC3y-12" value="update user principal &amp;amp; set user locked" style="rounded=1;whiteSpace=wrap;html=1;strokeColor=#006600;" parent="1" vertex="1">
          <mxGeometry x="1020" y="1540.5" width="120" height="60" as="geometry" />
        </mxCell>
        <mxCell id="9PymqvHZJMddZspfVthG-6" value="Jetton wallet smart contract (EVAA master)" style="text;html=1;align=center;verticalAlign=middle;resizable=0;points=[];autosize=1;strokeColor=none;fillColor=none;" parent="1" vertex="1">
          <mxGeometry x="-30" y="1861.5" width="250" height="30" as="geometry" />
        </mxCell>
        <mxCell id="dhT3XbkEFXpcO1lKDE8c-2" style="vsdxID=11;fillColor=#f8cecc;gradientColor=none;shape=stencil(vVLBDoMgDP0ajiwIM9nduf8gE5WMials6t8PU+JE3Q477Nb2vb6+UojIulq2inDWObA31evC1UScCee6qRVo5yMiciKy0oKqwD6aAvNWTswputvnpDBgH5s6OBsxSzG9IFPC1UMQmDxFKoxxHuCE7UqxgcpBdxSsk07bJppqJFSK+jG0NLIKOgh1vVLtovy7sf/Z8sH7mUttDF5pxj/dIDke0sjkXAiNRjcL+ild0efCZU99Q/+uvjGzVo+2XG3og/XH8yX8tCJ/AQ==);strokeColor=#b85450;spacingTop=-3;spacingBottom=-3;spacingLeft=-3;spacingRight=-3;points=[];labelBackgroundColor=none;rounded=0;html=1;whiteSpace=wrap;" parent="1" vertex="1">
          <mxGeometry x="535" y="1459" width="20" height="20" as="geometry" />
        </mxCell>
        <mxCell id="dhT3XbkEFXpcO1lKDE8c-3" style="vsdxID=11;fillColor=#f8cecc;gradientColor=none;shape=stencil(vVLBDoMgDP0ajiwIM9nduf8gE5WMials6t8PU+JE3Q477Nb2vb6+UojIulq2inDWObA31evC1UScCee6qRVo5yMiciKy0oKqwD6aAvNWTswputvnpDBgH5s6OBsxSzG9IFPC1UMQmDxFKoxxHuCE7UqxgcpBdxSsk07bJppqJFSK+jG0NLIKOgh1vVLtovy7sf/Z8sH7mUttDF5pxj/dIDke0sjkXAiNRjcL+ild0efCZU99Q/+uvjGzVo+2XG3og/XH8yX8tCJ/AQ==);strokeColor=#b85450;spacingTop=-3;spacingBottom=-3;spacingLeft=-3;spacingRight=-3;points=[];labelBackgroundColor=none;rounded=0;html=1;whiteSpace=wrap;" parent="1" vertex="1">
          <mxGeometry x="535" y="1651" width="20" height="20" as="geometry" />
        </mxCell>
        <mxCell id="dhT3XbkEFXpcO1lKDE8c-4" style="vsdxID=11;fillColor=#f8cecc;gradientColor=none;shape=stencil(vVLBDoMgDP0ajiwIM9nduf8gE5WMials6t8PU+JE3Q477Nb2vb6+UojIulq2inDWObA31evC1UScCee6qRVo5yMiciKy0oKqwD6aAvNWTswputvnpDBgH5s6OBsxSzG9IFPC1UMQmDxFKoxxHuCE7UqxgcpBdxSsk07bJppqJFSK+jG0NLIKOgh1vVLtovy7sf/Z8sH7mUttDF5pxj/dIDke0sjkXAiNRjcL+ild0efCZU99Q/+uvjGzVo+2XG3og/XH8yX8tCJ/AQ==);strokeColor=#b85450;spacingTop=-3;spacingBottom=-3;spacingLeft=-3;spacingRight=-3;points=[];labelBackgroundColor=none;rounded=0;html=1;whiteSpace=wrap;" parent="1" vertex="1">
          <mxGeometry x="372" y="1459" width="20" height="20" as="geometry" />
        </mxCell>
        <mxCell id="dhT3XbkEFXpcO1lKDE8c-5" style="vsdxID=11;fillColor=#f8cecc;gradientColor=none;shape=stencil(vVLBDoMgDP0ajiwIM9nduf8gE5WMials6t8PU+JE3Q477Nb2vb6+UojIulq2inDWObA31evC1UScCee6qRVo5yMiciKy0oKqwD6aAvNWTswputvnpDBgH5s6OBsxSzG9IFPC1UMQmDxFKoxxHuCE7UqxgcpBdxSsk07bJppqJFSK+jG0NLIKOgh1vVLtovy7sf/Z8sH7mUttDF5pxj/dIDke0sjkXAiNRjcL+ild0efCZU99Q/+uvjGzVo+2XG3og/XH8yX8tCJ/AQ==);strokeColor=#b85450;spacingTop=-3;spacingBottom=-3;spacingLeft=-3;spacingRight=-3;points=[];labelBackgroundColor=none;rounded=0;html=1;whiteSpace=wrap;" parent="1" vertex="1">
          <mxGeometry x="210" y="1459" width="20" height="20" as="geometry" />
        </mxCell>
        <mxCell id="dhT3XbkEFXpcO1lKDE8c-6" style="vsdxID=11;fillColor=#f8cecc;gradientColor=none;shape=stencil(vVLBDoMgDP0ajiwIM9nduf8gE5WMials6t8PU+JE3Q477Nb2vb6+UojIulq2inDWObA31evC1UScCee6qRVo5yMiciKy0oKqwD6aAvNWTswputvnpDBgH5s6OBsxSzG9IFPC1UMQmDxFKoxxHuCE7UqxgcpBdxSsk07bJppqJFSK+jG0NLIKOgh1vVLtovy7sf/Z8sH7mUttDF5pxj/dIDke0sjkXAiNRjcL+ild0efCZU99Q/+uvjGzVo+2XG3og/XH8yX8tCJ/AQ==);strokeColor=#b85450;spacingTop=-3;spacingBottom=-3;spacingLeft=-3;spacingRight=-3;points=[];labelBackgroundColor=none;rounded=0;html=1;whiteSpace=wrap;" parent="1" vertex="1">
          <mxGeometry x="50" y="1459" width="20" height="20" as="geometry" />
        </mxCell>
        <mxCell id="HOX6GRswkgkodM6_yyiV-54" value="&lt;div style=&quot;&quot;&gt;&lt;span style=&quot;font-size: 11.64px;&quot;&gt;Is valid recepient?&lt;/span&gt;&lt;/div&gt;" style="verticalAlign=middle;align=center;overflow=width;vsdxID=9;fillColor=#ffffff;gradientColor=none;shape=stencil(lZHdCsIwDIWfJvcxYfgAc77HYJ0N1nZ09Wdvb2sQp4jUu3PS74RyAtzOtp8MEM4phqO5ypAs8A6IxFsTJWUF3AG3Y4jmEMPZD+qnvpBFncKlbLhpjpoSIVzU4sPtlXTiV+S2mtwgvqFN/dZn9CtLf7D1P/jVQBav4kZxTntfv38WnUd6JO7u);strokeColor=#000000;spacingTop=-3;spacingBottom=-3;spacingLeft=-3;spacingRight=-3;points=[];labelBackgroundColor=none;rounded=0;html=1;whiteSpace=wrap;" parent="1" vertex="1">
          <mxGeometry y="1338.5" width="120" height="80" as="geometry" />
        </mxCell>
        <mxCell id="HOX6GRswkgkodM6_yyiV-56" style="edgeStyle=orthogonalEdgeStyle;rounded=0;orthogonalLoop=1;jettySize=auto;html=1;entryX=0.5;entryY=0.05;entryDx=0;entryDy=0;entryPerimeter=0;" parent="1" source="HOX6GRswkgkodM6_yyiV-54" target="dhT3XbkEFXpcO1lKDE8c-6" edge="1">
          <mxGeometry relative="1" as="geometry" />
        </mxCell>
        <mxCell id="HOX6GRswkgkodM6_yyiV-57" value="No" style="edgeLabel;html=1;align=center;verticalAlign=middle;resizable=0;points=[];" parent="HOX6GRswkgkodM6_yyiV-56" connectable="0" vertex="1">
          <mxGeometry x="-0.1566" y="2" relative="1" as="geometry">
            <mxPoint as="offset" />
          </mxGeometry>
        </mxCell>
        <mxCell id="HOX6GRswkgkodM6_yyiV-58" value="&lt;span style=&quot;color: rgb(0, 0, 0); font-family: Helvetica; font-size: 12px; font-style: normal; font-variant-ligatures: normal; font-variant-caps: normal; font-weight: 400; letter-spacing: normal; orphans: 2; text-align: center; text-indent: 0px; text-transform: none; widows: 2; word-spacing: 0px; -webkit-text-stroke-width: 0px; white-space: normal; background-color: rgb(251, 251, 251); text-decoration-thickness: initial; text-decoration-style: initial; text-decoration-color: initial; display: inline !important; float: none;&quot;&gt;is valid custom responce payload?&lt;/span&gt;" style="verticalAlign=middle;align=center;overflow=width;vsdxID=9;fillColor=#ffffff;gradientColor=none;shape=stencil(lZHdCsIwDIWfJvcxYfgAc77HYJ0N1nZ09Wdvb2sQp4jUu3PS74RyAtzOtp8MEM4phqO5ypAs8A6IxFsTJWUF3AG3Y4jmEMPZD+qnvpBFncKlbLhpjpoSIVzU4sPtlXTiV+S2mtwgvqFN/dZn9CtLf7D1P/jVQBav4kZxTntfv38WnUd6JO7u);strokeColor=#000000;spacingTop=-3;spacingBottom=-3;spacingLeft=-3;spacingRight=-3;points=[];labelBackgroundColor=none;rounded=0;html=1;whiteSpace=wrap;" parent="1" vertex="1">
          <mxGeometry x="160" y="1338.5" width="120" height="80" as="geometry" />
        </mxCell>
        <mxCell id="HOX6GRswkgkodM6_yyiV-59" value="Is pricefeed correct&lt;div&gt;or no pricefeed?&lt;/div&gt;" style="verticalAlign=middle;align=center;overflow=width;vsdxID=9;fillColor=#ffffff;gradientColor=none;shape=stencil(lZHdCsIwDIWfJvcxYfgAc77HYJ0N1nZ09Wdvb2sQp4jUu3PS74RyAtzOtp8MEM4phqO5ypAs8A6IxFsTJWUF3AG3Y4jmEMPZD+qnvpBFncKlbLhpjpoSIVzU4sPtlXTiV+S2mtwgvqFN/dZn9CtLf7D1P/jVQBav4kZxTntfv38WnUd6JO7u);strokeColor=#000000;spacingTop=-3;spacingBottom=-3;spacingLeft=-3;spacingRight=-3;points=[];labelBackgroundColor=none;rounded=0;html=1;whiteSpace=wrap;" parent="1" vertex="1">
          <mxGeometry x="322" y="1339.5" width="120" height="80" as="geometry" />
        </mxCell>
        <mxCell id="HOX6GRswkgkodM6_yyiV-60" value="EVAA" style="verticalAlign=middle;align=center;overflow=width;vsdxID=9;fillColor=#ffffff;gradientColor=none;shape=stencil(lZHdCsIwDIWfJvcxYfgAc77HYJ0N1nZ09Wdvb2sQp4jUu3PS74RyAtzOtp8MEM4phqO5ypAs8A6IxFsTJWUF3AG3Y4jmEMPZD+qnvpBFncKlbLhpjpoSIVzU4sPtlXTiV+S2mtwgvqFN/dZn9CtLf7D1P/jVQBav4kZxTntfv38WnUd6JO7u);strokeColor=#000000;spacingTop=-3;spacingBottom=-3;spacingLeft=-3;spacingRight=-3;points=[];labelBackgroundColor=none;rounded=0;html=1;whiteSpace=wrap;" parent="1" vertex="1">
          <mxGeometry x="948" y="1917.5" width="120" height="80" as="geometry" />
        </mxCell>
        <mxCell id="HOX6GRswkgkodM6_yyiV-61" value="Need" style="verticalAlign=middle;align=center;overflow=width;vsdxID=9;fillColor=#ffffff;gradientColor=none;shape=stencil(lZHdCsIwDIWfJvcxYfgAc77HYJ0N1nZ09Wdvb2sQp4jUu3PS74RyAtzOtp8MEM4phqO5ypAs8A6IxFsTJWUF3AG3Y4jmEMPZD+qnvpBFncKlbLhpjpoSIVzU4sPtlXTiV+S2mtwgvqFN/dZn9CtLf7D1P/jVQBav4kZxTntfv38WnUd6JO7u);strokeColor=#000000;spacingTop=-3;spacingBottom=-3;spacingLeft=-3;spacingRight=-3;points=[];labelBackgroundColor=none;rounded=0;html=1;whiteSpace=wrap;" parent="1" vertex="1">
          <mxGeometry x="752" y="1917.5" width="120" height="80" as="geometry" />
        </mxCell>
        <mxCell id="HOX6GRswkgkodM6_yyiV-62" value="You" style="verticalAlign=middle;align=center;overflow=width;vsdxID=9;fillColor=#ffffff;gradientColor=none;shape=stencil(lZHdCsIwDIWfJvcxYfgAc77HYJ0N1nZ09Wdvb2sQp4jUu3PS74RyAtzOtp8MEM4phqO5ypAs8A6IxFsTJWUF3AG3Y4jmEMPZD+qnvpBFncKlbLhpjpoSIVzU4sPtlXTiV+S2mtwgvqFN/dZn9CtLf7D1P/jVQBav4kZxTntfv38WnUd6JO7u);strokeColor=#000000;spacingTop=-3;spacingBottom=-3;spacingLeft=-3;spacingRight=-3;points=[];labelBackgroundColor=none;rounded=0;html=1;whiteSpace=wrap;" parent="1" vertex="1">
          <mxGeometry x="653" y="1878.5" width="120" height="80" as="geometry" />
        </mxCell>
        <mxCell id="HOX6GRswkgkodM6_yyiV-63" value="Is" style="verticalAlign=middle;align=center;overflow=width;vsdxID=9;fillColor=#ffffff;gradientColor=none;shape=stencil(lZHdCsIwDIWfJvcxYfgAc77HYJ0N1nZ09Wdvb2sQp4jUu3PS74RyAtzOtp8MEM4phqO5ypAs8A6IxFsTJWUF3AG3Y4jmEMPZD+qnvpBFncKlbLhpjpoSIVzU4sPtlXTiV+S2mtwgvqFN/dZn9CtLf7D1P/jVQBav4kZxTntfv38WnUd6JO7u);strokeColor=#000000;spacingTop=-3;spacingBottom=-3;spacingLeft=-3;spacingRight=-3;points=[];labelBackgroundColor=none;rounded=0;html=1;whiteSpace=wrap;" parent="1" vertex="1">
          <mxGeometry x="850" y="1877.5" width="120" height="80" as="geometry" />
        </mxCell>
        <mxCell id="HOX6GRswkgkodM6_yyiV-82" style="edgeStyle=orthogonalEdgeStyle;rounded=0;orthogonalLoop=1;jettySize=auto;html=1;entryX=0;entryY=0.5;entryDx=0;entryDy=0;" parent="1" source="HOX6GRswkgkodM6_yyiV-64" target="pBwmNIc0gVgjRXL-kRwy-72" edge="1">
          <mxGeometry relative="1" as="geometry" />
        </mxCell>
        <mxCell id="HOX6GRswkgkodM6_yyiV-83" value="Yes" style="edgeLabel;html=1;align=center;verticalAlign=middle;resizable=0;points=[];" parent="HOX6GRswkgkodM6_yyiV-82" connectable="0" vertex="1">
          <mxGeometry x="-0.168" y="3" relative="1" as="geometry">
            <mxPoint y="1" as="offset" />
          </mxGeometry>
        </mxCell>
        <mxCell id="HOX6GRswkgkodM6_yyiV-64" value="Enough to cover&amp;nbsp;&lt;div&gt;gas fees?&lt;/div&gt;" style="verticalAlign=middle;align=center;overflow=width;vsdxID=9;fillColor=#ffffff;gradientColor=none;shape=stencil(lZHdCsIwDIWfJvcxYfgAc77HYJ0N1nZ09Wdvb2sQp4jUu3PS74RyAtzOtp8MEM4phqO5ypAs8A6IxFsTJWUF3AG3Y4jmEMPZD+qnvpBFncKlbLhpjpoSIVzU4sPtlXTiV+S2mtwgvqFN/dZn9CtLf7D1P/jVQBav4kZxTntfv38WnUd6JO7u);strokeColor=#000000;spacingTop=-3;spacingBottom=-3;spacingLeft=-3;spacingRight=-3;points=[];labelBackgroundColor=none;rounded=0;html=1;whiteSpace=wrap;" parent="1" vertex="1">
          <mxGeometry x="485" y="1338.5" width="120" height="80" as="geometry" />
        </mxCell>
        <mxCell id="HOX6GRswkgkodM6_yyiV-65" value="All" style="verticalAlign=middle;align=center;overflow=width;vsdxID=9;fillColor=#ffffff;gradientColor=none;shape=stencil(lZHdCsIwDIWfJvcxYfgAc77HYJ0N1nZ09Wdvb2sQp4jUu3PS74RyAtzOtp8MEM4phqO5ypAs8A6IxFsTJWUF3AG3Y4jmEMPZD+qnvpBFncKlbLhpjpoSIVzU4sPtlXTiV+S2mtwgvqFN/dZn9CtLf7D1P/jVQBav4kZxTntfv38WnUd6JO7u);strokeColor=#000000;spacingTop=-3;spacingBottom=-3;spacingLeft=-3;spacingRight=-3;points=[];labelBackgroundColor=none;rounded=0;html=1;whiteSpace=wrap;" parent="1" vertex="1">
          <mxGeometry x="555" y="1919.5" width="120" height="80" as="geometry" />
        </mxCell>
        <mxCell id="HOX6GRswkgkodM6_yyiV-70" style="edgeStyle=orthogonalEdgeStyle;rounded=0;orthogonalLoop=1;jettySize=auto;html=1;entryX=0.525;entryY=0;entryDx=0;entryDy=0;entryPerimeter=0;" parent="1" source="HOX6GRswkgkodM6_yyiV-58" target="dhT3XbkEFXpcO1lKDE8c-5" edge="1">
          <mxGeometry relative="1" as="geometry" />
        </mxCell>
        <mxCell id="HOX6GRswkgkodM6_yyiV-71" value="No" style="edgeLabel;html=1;align=center;verticalAlign=middle;resizable=0;points=[];" parent="HOX6GRswkgkodM6_yyiV-70" connectable="0" vertex="1">
          <mxGeometry x="-0.1951" y="-3" relative="1" as="geometry">
            <mxPoint as="offset" />
          </mxGeometry>
        </mxCell>
        <mxCell id="HOX6GRswkgkodM6_yyiV-74" style="edgeStyle=orthogonalEdgeStyle;rounded=0;orthogonalLoop=1;jettySize=auto;html=1;entryX=0.021;entryY=0.488;entryDx=0;entryDy=0;entryPerimeter=0;" parent="1" source="HOX6GRswkgkodM6_yyiV-58" target="HOX6GRswkgkodM6_yyiV-59" edge="1">
          <mxGeometry relative="1" as="geometry" />
        </mxCell>
        <mxCell id="HOX6GRswkgkodM6_yyiV-75" value="Yes" style="edgeLabel;html=1;align=center;verticalAlign=middle;resizable=0;points=[];" parent="HOX6GRswkgkodM6_yyiV-74" connectable="0" vertex="1">
          <mxGeometry x="-0.1015" relative="1" as="geometry">
            <mxPoint as="offset" />
          </mxGeometry>
        </mxCell>
        <mxCell id="HOX6GRswkgkodM6_yyiV-76" style="edgeStyle=orthogonalEdgeStyle;rounded=0;orthogonalLoop=1;jettySize=auto;html=1;entryX=0.025;entryY=0.506;entryDx=0;entryDy=0;entryPerimeter=0;" parent="1" source="HOX6GRswkgkodM6_yyiV-59" target="HOX6GRswkgkodM6_yyiV-64" edge="1">
          <mxGeometry relative="1" as="geometry" />
        </mxCell>
        <mxCell id="HOX6GRswkgkodM6_yyiV-77" value="Yes&lt;div&gt;&lt;br&gt;&lt;/div&gt;" style="edgeLabel;html=1;align=center;verticalAlign=middle;resizable=0;points=[];" parent="HOX6GRswkgkodM6_yyiV-76" connectable="0" vertex="1">
          <mxGeometry x="-0.0361" y="-2" relative="1" as="geometry">
            <mxPoint x="-2" y="3" as="offset" />
          </mxGeometry>
        </mxCell>
        <mxCell id="HOX6GRswkgkodM6_yyiV-80" style="edgeStyle=orthogonalEdgeStyle;rounded=0;orthogonalLoop=1;jettySize=auto;html=1;entryX=0.5;entryY=0.05;entryDx=0;entryDy=0;entryPerimeter=0;" parent="1" source="HOX6GRswkgkodM6_yyiV-64" target="dhT3XbkEFXpcO1lKDE8c-2" edge="1">
          <mxGeometry relative="1" as="geometry" />
        </mxCell>
        <mxCell id="HOX6GRswkgkodM6_yyiV-81" value="No" style="edgeLabel;html=1;align=center;verticalAlign=middle;resizable=0;points=[];" parent="HOX6GRswkgkodM6_yyiV-80" connectable="0" vertex="1">
          <mxGeometry x="-0.0602" y="1" relative="1" as="geometry">
            <mxPoint as="offset" />
          </mxGeometry>
        </mxCell>
        <mxCell id="9VljNj-bRr1mulfuYv1_-1" style="ellipse;whiteSpace=wrap;html=1;aspect=fixed;&#xa;&#xa;vsdxID=11;fillColor=#f8cecc;gradientColor=none;shape=stencil(vVLBDoMgDP0ajiwIM9nduf8gE5WMials6t8PU+JE3Q477Nb2vb6+UojIulq2inDWObA31evC1UScCee6qRVo5yMiciKy0oKqwD6aAvNWTswputvnpDBgH5s6OBsxSzG9IFPC1UMQmDxFKoxxHuCE7UqxgcpBdxSsk07bJppqJFSK+jG0NLIKOgh1vVLtovy7sf/Z8sH7mUttDF5pxj/dIDke0sjkXAiNRjcL+ild0efCZU99Q/+uvjGzVo+2XG3og/XH8yX8tCJ/AQ==);strokeColor=#b85450;spacingTop=-3;spacingBottom=-3;spacingLeft=-3;spacingRight=-3;points=[];labelBackgroundColor=none;rounded=0;html=1;whiteSpace=wrap;" parent="1" vertex="1">
          <mxGeometry x="1138" y="1479" width="20" height="20" as="geometry" />
        </mxCell>
        <mxCell id="9VljNj-bRr1mulfuYv1_-8" value="" style="edgeStyle=orthogonalEdgeStyle;rounded=0;orthogonalLoop=1;jettySize=auto;html=1;" parent="1" source="9VljNj-bRr1mulfuYv1_-2" target="pBwmNIc0gVgjRXL-kRwy-50" edge="1">
          <mxGeometry relative="1" as="geometry" />
        </mxCell>
        <mxCell id="9VljNj-bRr1mulfuYv1_-10" value="Yes" style="edgeLabel;html=1;align=center;verticalAlign=middle;resizable=0;points=[];" parent="9VljNj-bRr1mulfuYv1_-8" connectable="0" vertex="1">
          <mxGeometry x="0.4622" relative="1" as="geometry">
            <mxPoint x="11" y="-1" as="offset" />
          </mxGeometry>
        </mxCell>
        <mxCell id="9VljNj-bRr1mulfuYv1_-2" value="Is enough liquidity?" style="verticalAlign=middle;align=center;overflow=width;vsdxID=9;fillColor=#ffffff;gradientColor=none;shape=stencil(lZHdCsIwDIWfJvcxYfgAc77HYJ0N1nZ09Wdvb2sQp4jUu3PS74RyAtzOtp8MEM4phqO5ypAs8A6IxFsTJWUF3AG3Y4jmEMPZD+qnvpBFncKlbLhpjpoSIVzU4sPtlXTiV+S2mtwgvqFN/dZn9CtLf7D1P/jVQBav4kZxTntfv38WnUd6JO7u);strokeColor=#000000;spacingTop=-3;spacingBottom=-3;spacingLeft=-3;spacingRight=-3;points=[];labelBackgroundColor=none;rounded=0;html=1;whiteSpace=wrap;" parent="1" vertex="1">
          <mxGeometry x="322" y="1530.5" width="120" height="80" as="geometry" />
        </mxCell>
        <mxCell id="9VljNj-bRr1mulfuYv1_-7" value="" style="edgeStyle=orthogonalEdgeStyle;rounded=0;orthogonalLoop=1;jettySize=auto;html=1;" parent="1" source="9VljNj-bRr1mulfuYv1_-3" target="9VljNj-bRr1mulfuYv1_-2" edge="1">
          <mxGeometry relative="1" as="geometry" />
        </mxCell>
        <mxCell id="9VljNj-bRr1mulfuYv1_-9" value="Yes" style="edgeLabel;html=1;align=center;verticalAlign=middle;resizable=0;points=[];" parent="9VljNj-bRr1mulfuYv1_-7" connectable="0" vertex="1">
          <mxGeometry y="2" relative="1" as="geometry">
            <mxPoint x="1" y="-2" as="offset" />
          </mxGeometry>
        </mxCell>
        <mxCell id="9VljNj-bRr1mulfuYv1_-3" value="Is valid sender?" style="verticalAlign=middle;align=center;overflow=width;vsdxID=9;fillColor=#ffffff;gradientColor=none;shape=stencil(lZHdCsIwDIWfJvcxYfgAc77HYJ0N1nZ09Wdvb2sQp4jUu3PS74RyAtzOtp8MEM4phqO5ypAs8A6IxFsTJWUF3AG3Y4jmEMPZD+qnvpBFncKlbLhpjpoSIVzU4sPtlXTiV+S2mtwgvqFN/dZn9CtLf7D1P/jVQBav4kZxTntfv38WnUd6JO7u);strokeColor=#000000;spacingTop=-3;spacingBottom=-3;spacingLeft=-3;spacingRight=-3;points=[];labelBackgroundColor=none;rounded=0;html=1;whiteSpace=wrap;" parent="1" vertex="1">
          <mxGeometry x="485" y="1530.5" width="120" height="80" as="geometry" />
        </mxCell>
        <mxCell id="9VljNj-bRr1mulfuYv1_-4" style="edgeStyle=orthogonalEdgeStyle;rounded=0;orthogonalLoop=1;jettySize=auto;html=1;entryX=0.5;entryY=-0.05;entryDx=0;entryDy=0;entryPerimeter=0;" parent="1" source="9VljNj-bRr1mulfuYv1_-3" target="dhT3XbkEFXpcO1lKDE8c-3" edge="1">
          <mxGeometry relative="1" as="geometry" />
        </mxCell>
        <mxCell id="9VljNj-bRr1mulfuYv1_-5" value="No" style="edgeLabel;html=1;align=center;verticalAlign=middle;resizable=0;points=[];" parent="9VljNj-bRr1mulfuYv1_-4" connectable="0" vertex="1">
          <mxGeometry x="0.2727" relative="1" as="geometry">
            <mxPoint y="-9" as="offset" />
          </mxGeometry>
        </mxCell>
        <mxCell id="Rv3pvhyty8UO6Tn3SfZe-22" value="" style="edgeStyle=orthogonalEdgeStyle;rounded=0;orthogonalLoop=1;jettySize=auto;html=1;" parent="1" source="Rv3pvhyty8UO6Tn3SfZe-1" target="pBwmNIc0gVgjRXL-kRwy-32" edge="1">
          <mxGeometry relative="1" as="geometry" />
        </mxCell>
        <mxCell id="Rv3pvhyty8UO6Tn3SfZe-25" value="No" style="edgeLabel;html=1;align=center;verticalAlign=middle;resizable=0;points=[];" parent="Rv3pvhyty8UO6Tn3SfZe-22" connectable="0" vertex="1">
          <mxGeometry x="-0.66" y="2" relative="1" as="geometry">
            <mxPoint x="4" y="1" as="offset" />
          </mxGeometry>
        </mxCell>
        <mxCell id="Rv3pvhyty8UO6Tn3SfZe-1" value="Is code of user sc&amp;nbsp;&lt;div&gt;of the last version?&lt;/div&gt;" style="verticalAlign=middle;align=center;overflow=width;vsdxID=9;fillColor=#ffffff;gradientColor=none;shape=stencil(lZHdCsIwDIWfJvcxYfgAc77HYJ0N1nZ09Wdvb2sQp4jUu3PS74RyAtzOtp8MEM4phqO5ypAs8A6IxFsTJWUF3AG3Y4jmEMPZD+qnvpBFncKlbLhpjpoSIVzU4sPtlXTiV+S2mtwgvqFN/dZn9CtLf7D1P/jVQBav4kZxTntfv38WnUd6JO7u);strokeColor=#000000;spacingTop=-3;spacingBottom=-3;spacingLeft=-3;spacingRight=-3;points=[];labelBackgroundColor=none;rounded=0;html=1;whiteSpace=wrap;" parent="1" vertex="1">
          <mxGeometry x="992" y="1338.5" width="120" height="80" as="geometry" />
        </mxCell>
        <mxCell id="Rv3pvhyty8UO6Tn3SfZe-2" value="Is user locked?" style="verticalAlign=middle;align=center;overflow=width;vsdxID=9;fillColor=#ffffff;gradientColor=none;shape=stencil(lZHdCsIwDIWfJvcxYfgAc77HYJ0N1nZ09Wdvb2sQp4jUu3PS74RyAtzOtp8MEM4phqO5ypAs8A6IxFsTJWUF3AG3Y4jmEMPZD+qnvpBFncKlbLhpjpoSIVzU4sPtlXTiV+S2mtwgvqFN/dZn9CtLf7D1P/jVQBav4kZxTntfv38WnUd6JO7u);strokeColor=#000000;spacingTop=-3;spacingBottom=-3;spacingLeft=-3;spacingRight=-3;points=[];labelBackgroundColor=none;rounded=0;html=1;whiteSpace=wrap;" parent="1" vertex="1">
          <mxGeometry x="1290" y="1338.5" width="120" height="80" as="geometry" />
        </mxCell>
        <mxCell id="Rv3pvhyty8UO6Tn3SfZe-3" value="Is withdraw max?" style="verticalAlign=middle;align=center;overflow=width;vsdxID=9;fillColor=#ffffff;gradientColor=none;shape=stencil(lZHdCsIwDIWfJvcxYfgAc77HYJ0N1nZ09Wdvb2sQp4jUu3PS74RyAtzOtp8MEM4phqO5ypAs8A6IxFsTJWUF3AG3Y4jmEMPZD+qnvpBFncKlbLhpjpoSIVzU4sPtlXTiV+S2mtwgvqFN/dZn9CtLf7D1P/jVQBav4kZxTntfv38WnUd6JO7u);strokeColor=#000000;spacingTop=-3;spacingBottom=-3;spacingLeft=-3;spacingRight=-3;points=[];labelBackgroundColor=none;rounded=0;html=1;whiteSpace=wrap;" parent="1" vertex="1">
          <mxGeometry x="1442" y="1340" width="120" height="80" as="geometry" />
        </mxCell>
        <mxCell id="Rv3pvhyty8UO6Tn3SfZe-4" value="Is enough price data&lt;div&gt;and amount &amp;gt;= 0 ?&lt;/div&gt;" style="verticalAlign=middle;align=center;overflow=width;vsdxID=9;fillColor=#ffffff;gradientColor=none;shape=stencil(lZHdCsIwDIWfJvcxYfgAc77HYJ0N1nZ09Wdvb2sQp4jUu3PS74RyAtzOtp8MEM4phqO5ypAs8A6IxFsTJWUF3AG3Y4jmEMPZD+qnvpBFncKlbLhpjpoSIVzU4sPtlXTiV+S2mtwgvqFN/dZn9CtLf7D1P/jVQBav4kZxTntfv38WnUd6JO7u);strokeColor=#000000;spacingTop=-3;spacingBottom=-3;spacingLeft=-3;spacingRight=-3;points=[];labelBackgroundColor=none;rounded=0;html=1;whiteSpace=wrap;" parent="1" vertex="1">
          <mxGeometry x="1754" y="1340" width="120" height="80" as="geometry" />
        </mxCell>
        <mxCell id="Rv3pvhyty8UO6Tn3SfZe-5" value="Is borrow collateralized?" style="verticalAlign=middle;align=center;overflow=width;vsdxID=9;fillColor=#ffffff;gradientColor=none;shape=stencil(lZHdCsIwDIWfJvcxYfgAc77HYJ0N1nZ09Wdvb2sQp4jUu3PS74RyAtzOtp8MEM4phqO5ypAs8A6IxFsTJWUF3AG3Y4jmEMPZD+qnvpBFncKlbLhpjpoSIVzU4sPtlXTiV+S2mtwgvqFN/dZn9CtLf7D1P/jVQBav4kZxTntfv38WnUd6JO7u);strokeColor=#000000;spacingTop=-3;spacingBottom=-3;spacingLeft=-3;spacingRight=-3;points=[];labelBackgroundColor=none;rounded=0;html=1;whiteSpace=wrap;" parent="1" vertex="1">
          <mxGeometry x="1645" y="1531" width="120" height="80" as="geometry" />
        </mxCell>
        <mxCell id="Rv3pvhyty8UO6Tn3SfZe-7" value="" style="edgeStyle=orthogonalEdgeStyle;rounded=0;orthogonalLoop=1;jettySize=auto;html=1;entryX=0;entryY=0.5;entryDx=0;entryDy=0;exitX=1;exitY=0.469;exitDx=0;exitDy=0;exitPerimeter=0;" parent="1" source="Rv3pvhyty8UO6Tn3SfZe-3" target="Rv3pvhyty8UO6Tn3SfZe-6" edge="1">
          <mxGeometry relative="1" as="geometry">
            <mxPoint x="1550" y="1380" as="sourcePoint" />
            <mxPoint x="1850" y="1416" as="targetPoint" />
          </mxGeometry>
        </mxCell>
        <mxCell id="Rv3pvhyty8UO6Tn3SfZe-8" value="Yes" style="edgeLabel;html=1;align=center;verticalAlign=middle;resizable=0;points=[];" parent="Rv3pvhyty8UO6Tn3SfZe-7" connectable="0" vertex="1">
          <mxGeometry x="-0.3" relative="1" as="geometry">
            <mxPoint as="offset" />
          </mxGeometry>
        </mxCell>
        <mxCell id="Rv3pvhyty8UO6Tn3SfZe-6" value="calculate withdraw amount and check enough price data" style="rounded=1;whiteSpace=wrap;html=1;" parent="1" vertex="1">
          <mxGeometry x="1603" y="1349.5" width="120" height="60" as="geometry" />
        </mxCell>
        <mxCell id="Rv3pvhyty8UO6Tn3SfZe-10" value="" style="edgeStyle=orthogonalEdgeStyle;rounded=0;orthogonalLoop=1;jettySize=auto;html=1;exitX=0.5;exitY=0.988;exitDx=0;exitDy=0;exitPerimeter=0;" parent="1" source="Rv3pvhyty8UO6Tn3SfZe-4" target="Rv3pvhyty8UO6Tn3SfZe-9" edge="1">
          <mxGeometry relative="1" as="geometry">
            <mxPoint x="1780" y="1440" as="sourcePoint" />
            <mxPoint x="1850" y="1531" as="targetPoint" />
            <Array as="points">
              <mxPoint x="1814" y="1484" />
            </Array>
          </mxGeometry>
        </mxCell>
        <mxCell id="Rv3pvhyty8UO6Tn3SfZe-9" value="" style="html=1;points=[[0,0,0,0,5],[0,1,0,0,-5],[1,0,0,0,5],[1,1,0,0,-5]];perimeter=orthogonalPerimeter;outlineConnect=0;targetShapes=umlLifeline;portConstraint=eastwest;newEdgeStyle={&quot;curved&quot;:0,&quot;rounded&quot;:0};direction=south;rotation=-180;" parent="1" vertex="1">
          <mxGeometry x="1654" y="1479" width="102" height="10" as="geometry" />
        </mxCell>
        <mxCell id="pBwmNIc0gVgjRXL-kRwy-22" style="edgeStyle=orthogonalEdgeStyle;rounded=0;orthogonalLoop=1;jettySize=auto;html=1;exitX=0.5;exitY=1;exitDx=0;exitDy=0;exitPerimeter=0;" parent="1" source="Rv3pvhyty8UO6Tn3SfZe-2" target="pBwmNIc0gVgjRXL-kRwy-82" edge="1">
          <mxGeometry relative="1" as="geometry">
            <Array as="points">
              <mxPoint x="1350" y="1490" />
              <mxPoint x="1560" y="1490" />
            </Array>
            <mxPoint x="1338" y="1419" as="sourcePoint" />
          </mxGeometry>
        </mxCell>
        <mxCell id="pBwmNIc0gVgjRXL-kRwy-23" value="yes" style="edgeLabel;html=1;align=center;verticalAlign=middle;resizable=0;points=[];" parent="pBwmNIc0gVgjRXL-kRwy-22" connectable="0" vertex="1">
          <mxGeometry x="-0.8633" y="1" relative="1" as="geometry">
            <mxPoint as="offset" />
          </mxGeometry>
        </mxCell>
        <mxCell id="SFaU2RS9cUj74fsuJC3y-10" value="report withdraw_excess_message&lt;div&gt;op=withdraw_locked_excess&lt;br&gt;&lt;/div&gt;" style="edgeLabel;html=1;align=left;verticalAlign=middle;resizable=0;points=[];" parent="pBwmNIc0gVgjRXL-kRwy-22" connectable="0" vertex="1">
          <mxGeometry x="-0.358" y="3" relative="1" as="geometry">
            <mxPoint x="-77" y="-17" as="offset" />
          </mxGeometry>
        </mxCell>
        <mxCell id="Pwce9LuDka779ld7ZI8a-1" value="" style="sketch=0;pointerEvents=1;shadow=0;dashed=0;html=1;strokeColor=none;labelPosition=center;verticalLabelPosition=bottom;verticalAlign=top;outlineConnect=0;align=center;shape=mxgraph.office.security.lock_protected;fillColor=#DA4026;fontSize=10;" parent="1" vertex="1">
          <mxGeometry x="-184.62" y="1947.5" width="14.62" height="20" as="geometry" />
        </mxCell>
        <mxCell id="QKfYTQII9LWKq_Klsc3Y-2" style="edgeStyle=orthogonalEdgeStyle;rounded=0;orthogonalLoop=1;jettySize=auto;html=1;entryX=0;entryY=0.7;entryDx=0;entryDy=0;exitX=1;exitY=0.5;exitDx=0;exitDy=0;" parent="1" source="Pwce9LuDka779ld7ZI8a-2" target="NwS3Xz_NMjakxZuXKKBK-1" edge="1">
          <mxGeometry relative="1" as="geometry">
            <Array as="points">
              <mxPoint x="-253" y="1935" />
            </Array>
          </mxGeometry>
        </mxCell>
        <mxCell id="Pwce9LuDka779ld7ZI8a-2" value="EVAA decentralized oracles" style="rounded=0;whiteSpace=wrap;html=1;rotation=-90;" parent="1" vertex="1">
          <mxGeometry x="-335.38" y="2030" width="165.38" height="25.5" as="geometry" />
        </mxCell>
        <mxCell id="Pwce9LuDka779ld7ZI8a-3" value="prices_packed" style="text;html=1;align=center;verticalAlign=middle;whiteSpace=wrap;rounded=0;" parent="1" vertex="1">
          <mxGeometry x="-222.31" y="1903.5" width="90" height="30" as="geometry" />
        </mxCell>
        <mxCell id="Pwce9LuDka779ld7ZI8a-4" value="get prices" style="text;html=1;align=center;verticalAlign=middle;whiteSpace=wrap;rounded=0;" parent="1" vertex="1">
          <mxGeometry x="-222.31" y="2140" width="90" height="30" as="geometry" />
        </mxCell>
        <mxCell id="NwS3Xz_NMjakxZuXKKBK-2" value="" style="edgeStyle=orthogonalEdgeStyle;rounded=0;orthogonalLoop=1;jettySize=auto;html=1;entryX=0.5;entryY=1;entryDx=0;entryDy=0;" parent="1" source="pBwmNIc0gVgjRXL-kRwy-6" target="NwS3Xz_NMjakxZuXKKBK-1" edge="1">
          <mxGeometry relative="1" as="geometry">
            <mxPoint x="-92" y="1409" as="targetPoint" />
            <Array as="points">
              <mxPoint x="-92" y="2020" />
            </Array>
            <mxPoint x="-93" y="2068" as="sourcePoint" />
          </mxGeometry>
        </mxCell>
        <mxCell id="NwS3Xz_NMjakxZuXKKBK-1" value="" style="shape=message;html=1;outlineConnect=0;fontSize=12;fontColor=#000000;" parent="1" vertex="1">
          <mxGeometry x="-102.00022687442788" y="1925.4974995840635" width="20" height="14" as="geometry" />
        </mxCell>
        <mxCell id="hys-FYsGIjhrwX2SmIcx-1" value="" style="sketch=0;pointerEvents=1;shadow=0;dashed=0;html=1;strokeColor=none;labelPosition=center;verticalLabelPosition=bottom;verticalAlign=top;outlineConnect=0;align=center;shape=mxgraph.office.security.lock_unprotected;fillColor=#DA4026;fontSize=10;" vertex="1" parent="1">
          <mxGeometry x="375.42999999999995" y="1340" width="13.13" height="19" as="geometry" />
        </mxCell>
      </root>
    </mxGraphModel>
  </diagram>
  <diagram id="YdqxcE5MKzMi2xXTVcta" name="Liquidate_TON_Jetton">
    <mxGraphModel grid="1" page="1" gridSize="10" guides="1" tooltips="1" connect="1" arrows="1" fold="1" pageScale="1" pageWidth="827" pageHeight="1169" math="0" shadow="0">
      <root>
        <mxCell id="0" />
        <mxCell id="1" parent="0" />
      </root>
    </mxGraphModel>
  </diagram>
</mxfile>
